<svg xmlns="http://www.w3.org/2000/svg" viewBox="0 0 581 706">
  <path  fill="#1D1D1B" d="M199 680c-1 0-2-2-1 0s4 0 6 2c1 1 2 4 4 3 2 0 3-2 5-3 1-2 0-4-1-5h-9l-5 2 1 1zm-72-1v-2 2zm-71-41c0 3 3 5 6 6l11 1c2 1 2 3 5 3l6 2c3-1 6-1 9 1 1 2 3 3 6 3l9 6c2 1 3 3 5 3 2 1 4 0 6 2 1 2 0 4-2 4s0 2 1 3 3 1 4-1c1-1 4-1 4 1 1 3 0 5-1 8v5c1 3 3 5 5 6 4 2 8 2 12 1h13l6 1c2-1 4-2 6-1s5 2 6 0c0-3-2-4-3-4-2 0-4-2-5-3 0-2 1-5-1-6l-5-4c-1-1-3 0-3 2v5c-1 3-5 4-8 3-1 0-2-2-3-1-2 1-1 3-3 3-1 1-3 0-3-1-1-3-3-3-5-4l-5-2c-2-1-1-3-1-5 3-2 7-1 10 0 2 0 4 2 4-1l-2-5-3-6-6-3c-2-1-5 0-7-2s-5-3-8-3-6-2-7-4c-2-2-5-3-8-1h-5c-2 0-3-3-3-4-2-2-4-1-6-1l-5-2h-6l-6-2c-2-1-4 0-5 1l-5-2-4-2zm234 31h-2l6 3c1-2-1-3-2-4-1-2-3-3-5-3-2 1 0 4 1 4h2zM45 612l-1-1 1 1zm-14-5 6 3 5 1c2 0 4 2 6 0 1-1 0-3-2-3l-6-3h-7l-2 2zm235 11c-2-1 0 2 1 1h5c2-1 0-3-2-2l-6-3c-2-1-4 0-6-2l-3-3c-2-2-3-1-5-1l-6-1-4-3-5-2-6-1-15-2-7-4c0-2 2-4 3-4h7c2 1 4 2 6 1l3-1c1-2-1-3-2-3h-11l-6-2c-2 0-3 3-5 3l-8-2-5 1c-1 2 0 4 2 4 4 1 8 0 10 3l11 8c2-1 4-1 6 1s4 1 6 1 5 0 7 2l6 2 6 1 7 3c6 1 11 2 16 5zm36-18c2 5 8 9 13 7 2-1 1-3 1-5s-1-4-3-4c-4 1-7 0-10 2h-1zm25-27v1l3 1h2l8 4c-1-3-4-4-6-6l-9-6c-2 0-2 4-1 5l3 1zm-278 0c-3 0-5-2-8-3-4 1-9-2-13-1h-6c-1-1-3-2-4 0l3 3 3 1 5 4 6 1c2 1 3 4 6 4l5-1 5-1 5-1 9 4c2 0 2-3 0-4l-7-1-7-4c-1-1-2-3-3-2l1 1zm193-7 10 4c1 2-1 5-2 6-1 2-4 2-6 2l-6 1c-1-1-3 2-1 2s4-2 5 0c2 1 4 3 6 2 2 0 2-2 3-3l4-2c2-1 4-2 4-4 1-2 4-3 5-2l5 2 5-4 3-5c-1-2-3-2-4-2-3 0-5 1-7-1-1-1 0-3-2-4l-7-1-8-2-8-6-4 1-5-3-5-1c0-2-3-1-5-3l-7-5c0 3-3 0-4 1-2 0-5 0-5 2s2 3 4 3c4 1 7 4 12 3 3 0 6 2 8 4l6 2 5 4 6 2c2 2 1 4-1 5l-12-3h-7l-4-1-4-3c-2-1-4-3-7-3-2 1-1 5 2 4l7 2c5 2 9 5 14 5l5 1h2zM44 493c7 3 14 5 22 6 1 1 2-2 3-1l7 1h9c3 1 7 2 10 1l6 2c1-1 2-4 4-4h6c3 0 5 2 8 1 1-2 4-1 3-4 1-1 2-3 0-3l-5 2-7-2-8 2h-8l-8 2c-3 0-5-3-9-3l-6 1-7-3c-3 0-5-3-8-2-4-1-9 1-14 1l-6-3c-2 1-1 4 1 4 1 1 4 2 6 1 1 1 3 4 4 3 0-2-2-1-3-2zm12-38-2 3c1 2 4 0 3-2l-1-1zm62-7c-1 2-4 2-5 1-3 0-3 4-1 5l5 1h5c2-1 0-4-2-3-3-1-1-3-2-4zm-38-21-1 3h4c0-2-2-2-3-3zm391-80c-2 2-2 5 0 7 0 2-2 4 0 5 2 2 0 5 2 7 3 3 7 5 8 8v6l2 6 4 8c1 1 3 1 3 3v5c2 3 3 6 3 10 0 1 0 4 2 4l2 5 1 6 2 6 5 7c1 2 1 4 3 5l1 6c1 2 5 2 5-1l-2-6-3-6-2-7-2-5c-2-4-3-9-6-13l-1-8c-1-2-2-5-4-6l-2-6-3-7c0-2-2-3-3-5l-1-6c-1-2-4-3-4-5l-2-8-3-5c-2-1-4-3-3-6l-2-4zm13 68c1-2 0-4-1-6l-1-8-4-7-5-6c-1-1-3 1-2 3 1 1 4 1 4 3v7c0 3 1 5 3 8l2 5c-1 3 0 5 1 7l2 9c1 2 1 4 3 5l1 8 4 8 2 6 1 6c1 0-2-1-1 1l5 8c2 1 3 3 3 5 1 2 4 2 5 0 0-2 1-4-1-5-2-2-4-4-4-6-1-4-1-8-3-11v-6l-2-5-3-6-5-13-2-5-3-4c-1-1 0-3 1-1zM76 398c1 1-2 2-1 1l1-1zm184-76c-3 3-7 4-11 3l-11 1-6 4-9 3-8 4c-3 0-4 4-7 4-4 0-8 1-11 3h-6c-2 1-2 4-5 4l-8 2c-2 2-5 3-7 3-2 1-4 2-4 4s-3 2-5 2c-1 1-2 3-4 3-2-1-4-1-5 1-3 3-8 3-10 6-2 0-3 2-5 1l-3 2c-2 0-4-2-6-1s-2 4-4 4l-5 3c-3 1-7 3-10 2-2 0-4 2-5 3l-6 3h-9c-2 3-5 5-9 6-2 4-7 4-10 3l-6-2c-2-1-3 0-3 2v5l-5 1-4 2c-2 0-3-3-5-3l-5 2-7 1c-2 1-5 1-6 3-1 1-1 4 1 3 2 0 5-2 7-1 3 2 7-1 10-1h10l4-4c4 0 7 1 10-1 2 0 4-1 4-3 2-1 6-2 8-1h7c2 1 4 0 5-2s4 0 6-1l8-5c2 1 4-2 6-2l7-3 5-1 6-2c2 0 5 0 6-2s2-4 5-3c3 0 5-2 8-3l4-2 4-4c1-2-1-5 1-5 2-1 4 1 6 1l6-2 6-2h6c2 0 3-3 4-4 1-2 0-4 2-5 1-2 3 0 5 0 2 1 4-1 6-1l5-3c2-1 5-1 6-3s3-3 5-3c4 0 7-1 10-3 4-1 8-1 11-3 2 0 5 1 6-1l4-1 2-3c2-1 5-1 6-4l2-4zm175-64c0 2 2 4 3 5 3 2 4 6 7 9 0 2 3 1 4 3 2 5 4 10 8 14 1 1 4 2 4 5-1 2 0 3 2 4l3 5 3 5c2 1 4 2 5 5l3 4c3 2 4 6 4 9l4 4c2 2 2 6 4 9 0 2 2 3 4 4l1 6c2 2 4 3 5 6 0 2 0 3 2 4l2 5 2 8c2 3 4 4 4 7l1 6c-1 2-1 4-3 4l-4-5c0-2-3-2-3-4-1-2 1-4-1-6l-4-4-1-5-4-7c-1-3-1-6-3-7-3-2-3-6-5-9l-5-10c-2-1-2-4-3-5-1-2-5-1-4 1l2 6 4 8c1 1 0 4 2 5s3 3 3 5 2 3 3 4c3-1 4 2 2 4-2 1 0 3 1 4 2 2 0 4 1 6l6 5 1 4 2 4c1 2 0 5 2 7l2 4c-1 2-1 3 1 5s5 5 5 9v5c0 2 2 4 3 5l6 9c0 2 2 4 4 2 1-2-2-3-2-5s0-5-2-6l-1-5-2-6c-1-2-1-4-3-4-3-1-4-4-2-5 2-2 4 0 5 2 1 1 2 3 3 2 2-1 1-3 1-5s-2-3-3-4v-8l-1-6-4-9-3-8c-2-1-2-4-2-5l-1-9h5c1 1 3 3 4 2 2-2 1-4-1-5l-2-5-3-5c-1-1-3-3-4-2-2 2 1 4 2 5l2 5c0 2-2 4-3 3-3 0-5-1-7-3s-4-2-4-5c0-2-2-3-3-5l-2-5c1-2 0-5-1-6l-4-6c-1-2-4-3-4-5-1-4-4-7-6-10l-4-5-2-6-7-7c-2-1-4-3-4-6 0-2-1-4-3-5l-4-7-7-6-5-6c-1-1-2-3-4-2-1 2 2 4 3 4l1 3h-1zm110 88c-2 0-2 4 0 4s2-3 1-4h-1zm-429-45v-2c-2-2-6-1-7 2-2 1 0 4 2 4s3-2 4-3l4-4h5c2 0 3-3 2-4-1-2-3-1-5 0s-4 4-5 7zm359-58c1 2 1 5 3 6 4 3 6 7 8 11 3 1 4 4 5 6l6 7c0 2 1 4 3 4l7 9c0 2 2 4 4 4 2-1 2-3 2-5s-2-3-4-3c-2-1-3-3-2-5l-5-7-6-9c-6-7-13-12-20-18h-1zm-309 22 2-2c-1 0-1 3-2 2zm-11 6-2 2c2 0 3-3 4-4 0-2 3-3 5-2s3 0 4-1c2-1 2-3 4-3h5c2 0 3-3 5-4s3 2 5 1c1-2 3-1 3-3 1-3 4-5 7-5 2 0 4 2 6 1h5c2-1 0-3-1-4-2 0 0-2-2-2l-9 3c-1 1-4 1-4 3-1 2-4 3-6 1-1-1-4 0-5 2l-6 1c-2 2-4 1-6 1l-6 2c-1 2-3 3-5 3s-3 3-4 4l-6 4-5 4c-2 1 0 5 2 3 1-2 1-4 3-4l7-2 2-1zm-25-12c-1 2-4 1-6 2-2 0-2 3-4 4-3 1-6 4-10 4-2 0-4 0-6 2-2 1-5 3-9 3-2 0-1 4 0 4 2 2 5 2 7 2l6-2c2-1 3-3 5-3s4-2 5-4l10-5 3-5-1-2zm12-25c-2 2-4 5-7 5-2 0-2 2-4 3s-3 4-6 5h-5c-1 2-2 4-4 4l-5 4c-1 0-3-1-5 1-1 2 3 2 4 1h7c2 0 4-3 3-5 0-2 2-4 4-3 3 1 6 0 9-1 1-1 4-1 4-3 2-2 5-2 7 0h4v-4l-2-6-4-1zm28 8c-1 2-3 1-4 2-2 1 0 4 2 4 2 1 5 1 5-1s-1-4-3-5zm211-20 7 4c-1-3-3-4-6-5 0-2-2-4-4-4-4-3-8-8-13-10-3-1-7-2-9-4l-5-2c-5-3-10-4-15-5-2-1-3-4-6-5-2-1-4-1-6 1-2 1-6 3-9 2-1-1-2-3-4-3-2-1-5-1-6-3-2-2-4-1-6-1l-6-1h-8c-5-2-10-1-14-1-4-1-6-5-10-5l-12 2c2 1 0 5-2 3-1-1-2-3-4-3-2-1-4 2-6 1s-5-2-7-1h-6c-3 1-6 1-8 3-2 1-3 3-5 3-3-1-5-3-8-3-4 2-8 1-12 1-3 0-5 0-8-2-2 0-3 2-5 3s-4 0-6 2c-1 1-4 0-3 2l5 2c1 2 3 1 4 1 2-1 4 1 6-1h4c3 0 6-2 8-3 4-1 7 0 10 1l6-1 5-2h11c2-1 4-2 6-1 1 2 3 2 5 1h8l7 1c3-1 5-2 7-1h5l5 1 7 1 11 1 5 1 6 2c3 0 5-2 7-1s4 3 7 3l7 2c1 1 3 0 4-1l5 2h7l8 5 5 2h5l8 4 4 5c4 1 7 4 11 6l3 2v-1zm-5-99-2-1c4 3 7 6 12 7l10 4 6 3c2-1 2-4 1-5-3-3-7-3-9-6 2 0-1-2-2-2-2 0-4-1-5-3l-6-3c-3 0-6-1-8-3s-4-3-7-3-5-3-8-2c-2 1-4 2-6 0-1-1-2-3-5-2-1 0-1 4 1 4 3 0 5 2 7 3 4 3 9 3 14 4l7 4v1zM266 33c-1 2-3 4-1 5l5 3h6c3 0 6-2 6-5-1-2-3-3-5-2l-11-1zm129 609h1-1zM58 600c-2 0 1 1 2 2l7 5h6c3 0 6-1 8 1 3 0 5 3 9 3l5 2s2 2 2 0 2 0 3 0l3 2c4 3 8 4 12 5l6 2c3 0 7 1 10 3l6 2 6 3 3 4c1 1 3 2 4 5 0 2-3 2-5 2l-12-6c-4-1-7 1-11-1l-5-2v-1h1l-9-3-5-2h-3l-9-3-13-2-11-1-6-3c-2-1-4-2-7-1h-6c-2 2 1 3 2 2 2 1 1 4 3 4 1 0 3-2 5-1l11 5c0-2 3 0 4-1s4-1 5 1 4 3 7 3c2-1 3 1 5 1 2-1 4 0 5 1 2 2 4 4 7 4h5l7 2 12 6c1 2 4 2 6 1 2 0 4 0 5 3 0 2 3 1 4 1 2-1 6 0 6 2 0 3 3 1 5 1l9 3c2 1 4 3 7 3 4 2 7 6 8 10v4c2-2 2-5 4-4 2 0 2 3 3 3h5l4-1c2-1 3-3 2-4-1-2-3-2-5-3-6-4-11-6-17-8-2-2-5-1-7-2l-8-6c-1-2-4-1-5-3s2-2 3-3l7-1c3-1 5 1 8 2l10 3 5 1c1 1 3 3 5 3l8 1c3 0 6 0 7 2 2 2 3 4 6 5 2 0 5-1 8 1 1 1 3 3 5 2 2-2 1-4 0-6s-3-1-5-2l-6-2c-1 1-3 0-4-1s-3-2-5-1c-3 1-6 0-9-2l-8-1c-2 0-1-3-2-4-2-2-4 0-6-1-3-1-5-4-9-5s-10-1-14-3l-6-7c-3 0-3-3-2-4 1-2 3-3 5-3 3 1 5 5 9 6l5-1c3 0 6 2 9 4l5 1 6 2 9 1c3 0 4 3 6 3 5 2 10 2 15 5l5 2-4-3 10 5h6c1-2 3-3 5-1 3 2 5 6 8 7h9c2 0 3-2 2-4s-3-2-5-1c-2 0-3-3-6-2l-8-2-6-2c-2-1-2-4-5-4-2-1-5 1-8-1l-7-3c-2 0-4 1-6-1l-4-4c-2-1-4 1-6 1l-8-2-5-1h-6v-4c0-2-3-2-4-1-2 1-5 2-7 0s-4-2-6-2l-10-5c-1-2-4-2-6-1s-4-1-6-3-4-4-7-4l-6-2-7-2-9-5h-6l-4-3-6-1-5-3c-2 1-4 0-5-1l-11-5c0 2-3 2-2 4l4 2c1 1 2 3 4 3l6 2c3 0 7 0 11 2l7 3c2-1 3 2 5 2 6 3 12 5 17 9 2-1 4 0 5 1 3 2 6 3 10 2 2 0 2 4 0 5-1 1-2 4-4 3l-6 1-6-2-6-3c-2-2-4-1-6-2-1-1-3-2-5-1-3 1-6 0-9-1l-8-5c-3-2-6-1-8-3l-8-3c-2 0-4 1-6-1-1-1-3-2-5-1l-5-2c-1-1-2-3-4-3-3 0-6 1-9-1l-5-4c-2-1-3 1-5 1s-4 2-3 3c2 2 4 2 6 2l4 1 8 3 7 3zm61-65c4 0 7 2 11 4l8-1c2 0 4 2 6 1 2 0 4-2 6-1 3 0 5 3 8 3h7c2 1 5 3 8 2 2 0 4-2 6 0 1 1 3 3 5 1l3-2h6c1-1 0-4-2-3-1-1-3-2-5-1l-7 1c-3-1-4 1-6 1l-6-3h-5c-3 1-5-1-8-2l-5 2-9-2c-2-1-3-3-5-3-2 1-3 3-6 3s-6-2-9-1l-1 1zm19-10c2-1 4 1 5 2l14 2h6c4 2 8 3 12 2l6 2 6-2c1-2-1-3-3-3l-5-1-5 2-4-2-6-1c-4-1-8 0-11-2l-7-1h-7l-1 2zm206-18c1 2 5 1 6 3 1 3 0 6 3 8 2 1 2-3 1-4 0-2 1-4-1-5l-6-4-3 2zm-146-6c1 0 4-1 4 1s-2 3-3 4c-1 2 1 4 3 3l6 2 4 1 5 2h6l5 4h6c1 2 3 0 2-2-3-3-6-4-10-6-1-1-4 0-5-2h-5c-2 1-4-1-4-2-2-2-4-2-5-2-2 0-2-3 0-3l4-1c3 0 0-3-2-3l-5 1c-1-1-4 0-5 1l-1 2zm270-80c1 1 2 3 1 5 0 2-2 4 0 6 1 2-2 3 0 5 3 3 5 6 4 10l-2 5c0 1 0 3 2 4s1 3 2 5v6c0 2 2 3 1 5v4c0 1 3 3 4 1l2-3c-1-1-1-4 1-4s2 2 3 4l1 4c2 2 2 4 2 6l3 6 2 6c1 2 1 4 3 4s1-3 1-5-2-3-1-5c0-2-2-3-3-4l-2-5-3-6-3-6c-1-1-4-2-4-4-2-4-1-7-2-11v-6l-3-8-2-6-2-7c2-2 0-5-2-5-1-1-2-2-3-1zm-276 33c-1-1 1-3 1-3l-1 3zm8-30zm29 51 3-5c0-2-2-5-4-5-2-1-2-4-1-5 1-2 3-4 5-3 2 0 2 3 2 4l5 4c1 2 4 2 6 3 1 2 4 2 4 4s-3 2-4 2c-3 1-5 0-7-2-1-2-3 1-2 2l6 4c1 0 2 2 0 3l-4 2h-6l-6-1h-5l-8 1h-3l-4 2c-1 1-4 2-5 1-2-2-5-1-5 2-1 2 1 3 2 4l8-1h6c2-1 3-3 6-3l6 2h7c1 1 2 3 4 3s2-4 5-3l14 3c7 3 14 8 22 9 0 1 3 2 2 0 2-1 2 2 2 4s2 3 4 3 5 1 6 3l4 4c2 1 5 1 6 3s4 2 4 4l5 4 5 4c2 0 4-3 2-5l-8-5c-1-1-1-4-3-4l-4-5c-1-1-4-1-5-3-1-3-2-6-5-7l-6-6c-2-2-5-2-6-1-3 1-6 0-8-2-3-1-6-4-10-4-1 0-4 0-4-2s3-3 2-5c1-2 3-4 5-3 5 2 8 7 14 8 1 1 3 3 5 3 3-1 6 1 7 4 1 2 3 1 5 2 3 1 4 6 7 7l5 3c0 2 1 4 4 3l4 5c1 3 4 4 6 6l5 4c0 2 2 3 3 4l5 4c1 0 3-1 3-3l-3-2c-3-1-5-3-6-5l-4-7c-3-2-7-3-9-7l-3-5-2-3c-1-2-2-5-4-6s-2-4-4-4l-7-4-4-3c-2-1-2 1-3 3-1 1-3 1-4-1l-3-2-4-2-5-4c0-3-4-3-5-6-2-1-3-3-6-3-2 0-4 0-5-2l-1-5c2-2 4-1 6-1s3 2 5 3l10 6c2 1 2 5 5 6 2 1 4 0 5 2s2 4 4 2c2-1 1-3 0-4l-10-8c-2-1-3-3-3-5s-1-3-3-4l-2-5c-2-2-1-4-2-6l-4-3-1-5c-2-1-4 0-5-2s2-3 3-4 2-2 1-4c-1-1 0-3 1-4 0-2-2 0-3 1-3 1-6 3-8 6l-3 6c-1 2-1 4-3 4h-6c-1 1-1 4-3 4-3 1-7 1-9 4l-6 2-6 1-7 2-6 1-10 1c-2 1-3-2-2-3l3-3 4-3 8-1c3 0 6-2 9-4l6-2c1-2 4-2 6-2 1-1 3-2 3-4l1-5h-5l-6 3h-6c-2 0-1-3 0-4l4-5 6-3c2-2 0-5-2-5s-5 0-7 2l-9 4-3 2-5-1c-1-2 0-4 2-5l5-2 5-4 6-4c2-1 2-3 3-5s0-4 2-5l4-3 8-5c1 1 4 1 5-1s4-3 6-3l6-5c2 0 4-1 5-3s4-3 6-2h9c1-2 0-4-1-4l-5-1h-7c-2-1-3 2-5 2h-12c-1-2 0-4 2-4 2-1 4-1 5-3s4-3 5-6c1-1 3-2 3-4-1-2-3-1-4 0-3 2-5 4-8 4-2 0-4 1-5 3l-6 1-4 4c-2 1-5 2-6 5l3 4c2 0 3-3 5-2h5c2 0 4 1 3 3l-3 3c0 2-1 3-3 3s-4 0-5 2l-4 5c0 2-2 2-3 1-2 0-3 1-4 3s-4 1-6 1l-6 1-5 2c-1 1-3 3-5 3l-6 1c-1 2-2 4-5 4-2 0-4 2-4 4s-3 4-5 4l-7-1c-1 2-2 3-4 3l-7 2h-11l2 2c0 2-3 1-4 3l-5 5c-1 1-3 3-5 2h-6c-2 1-3 3-2 5s4 1 6 0h7l6-2 7-3c2-2 5-2 7-1 3 0 5-3 8-4l5-4 5-1 5-4 8-7c2 0 4-2 5-4 2-2 6-2 8-5h5c2 0 3-2 4-3s4 1 4 3l-5 5-5 4c-2 2-5 2-6 5-1 2-3 2-5 2-3 1-7 3-8 6 0 2 2 1 3 0h6c2 2 0 5-2 6l-5 1-4 2c-2-1-4 0-7 1h-9l-7 3-7 2c-3 0-5 1-6 3-2 1-4 2-6 1h-5c-1 1-3 2-5 1-2 0-3 3-4 4-2 1-5 0-5 3 1 1 4 1 5 3 1 1 4 0 5-1h6l6-1 4-3c2 0 4-1 5-3 4 1 8 0 12-1l5-1 6-1 15-6 16-4c2 0 4 3 2 5l-6 1-8 2c-2 1-5 2-5 4-1 2-4 2-6 1-2 0-3 2-4 3-2 2-4 1-7 1-1 0-3 0-5 2l-4 2c-3 0-4 2-5 3h-6c-3 0-4 3-6 4h-5c-3 1-5 2-7 1l-4-2-4-2c-1-2-5 0-3 2 1 2-1 4-2 5-1 2 1 4 3 5 1 1 3 2 5 1 1-1 3-2 4-1 3 0 5-1 6-3l6-1 3-4c2 0 5 2 7 1l6-2c3-1 6 0 8-2l11-2 4 1c2 1 1 4-1 5-3 3-8 3-11 5-2 0-5 3-2 4l6 1 6-3 6-1c1 0 4 1 5-1s4-2 5-2c3 1 3-2 5-2h7v5c1 1 1 3-1 4h-5l-12 4-6 2c-4 1-6 4-10 4l-7 2c-2 0-4-1-6 1-1 2 1 4 3 3l10-1c2 1 4 2 7 1 2 0 2-2 2-4s2-3 4-3l9-2 6-1c2-2 4-1 6-2 3-1 4 1 6 1s4 2 6 1c2 0 2-2 3-3zm-61-4c-2 0 1 2 1 1l-1-1zm132 11c0 2 2 3 3 5 3 2 6 0 8 2 1 2 1 4 3 5l6 2c2-2 4 1 4 3 0 3 2 5 4 7 1 2 4 0 3-2l-1-4c0-2-1-3-3-3l-3-6-3-5c0-3 2-5 1-8l-2-4c0-2-2-3-4-4s-2-4-4-6c-1-3-3-5-6-6-2 0 0 3 1 4l3 9c2 1 4 3 3 5-1 3-5 4-7 2l-5-4-1-6c0-2-1-4-3-5l-6-12-3-5c-2-2-2-5-4-5-2-1-2-4-1-5l-2-6c0-3-5-4-6-2-1 3 2 4 1 7-1 1 1 4 3 4l3 2c0 2-3 3-3 5 0 3 1 7 3 9 2 0 3 3 4 4l5 8c3 1 1 5 3 6 2 2 2 5 3 7l3 2zm162 4 4 6-2 2 7 15c-1 1 0 3 1 4l4 3 1 5 5 4c-1 3 4 3 3 0l-4-9c0-2-2-4-3-5l-3-6c-1-3-1-7-3-10-2-2-1-3 0-5 1-1 0-2-2-3l-2-4v-7c-1-1-2-4-1-6 0-2-1-4-3-5-1-2 1-4 1-6 1-2-3-2-3-4l-2-5-1-6c1-2 0-5-2-4-2 0-4 0-2 2l1 8 1 6c2 1 3 4 2 6 0 3 2 7 4 9 2 1 1 3 0 3v5l2 4-3 3zm-297-86-5 5h-2c0 2-2 3-1 4 2 2 3-1 6-1 1 1 3 1 4-1l6-2c2 1 5 1 5-1s2-3 4-3l7-3c1-2 3-2 5-1 2 0 3-2 3-4 1-1 0-3-2-4l-6 1c-5 0-10 3-14 6l-4 3-6 1zm-49-1c-2 0-3 3-5 2l-7 2-4 4-7 2c-2-1-4 0-5 2s-4 1-5 0l-7 2c-4 0-7 1-11 3l-6-1c-3 1-1 5 1 4h11l6-1h10c3 2 7 0 8-3 2-2 5-2 7-3l13-4c0-2-2-4 0-6l1-3zm156-17c0 2-3 2-5 2l-5 4c-2 0-4-1-6 1-3 2-4 8-8 10-2 1-4 2-4 4l-5 4c2-1 2 4 4 2 1-2 2-3 4-3 3 0 4-3 7-4l5-3c1-2 4 0 5-2s5-1 4 2c0 2-2 3-4 4l-5 4-3 2-5 4c1 2-1 5-3 5-2 1-5 2-6 4-1 1-4 1-5 3-2-1-4 2-3 4l6 1c2 0 3-2 4-3 1-2 3-2 5-2l5-6c2-1 4 0 5-2 2-1 4-1 4-4l6-1 6-1c1-2 3-3 5-3s3-2 4-4l6-2c2 0 4 1 5 3l2 3c2 2 3 4 2 6s-1 5 1 6l2 5 5 4c2 2 2 5 3 7 0 2 2 3 3 5 0 2 0 3 2 4l4 8 2 7c2 2 4-1 4-3v-4l-4-4-1-7-3-12-3-6c0-2-2-3-3-5 0-4-4-5-5-8-2-2-1-5-3-8v-4c-2-2-4-3-4-5 1-1-2-1-3-1-2-1-3-3-6-3-2 0-2 2-4 3-1 1-5 0-5-2 1-1 3-3 2-5 0-1-2-3-4-3l-6-1h-1zm60 45c1-2 0-4-1-6-1-1-2-3-1-5 0-2-2-3-3-5l-3-4c-2 0-4-3-4-5l-3-8c1-1 0-4-2-4-2-1-4-3-3-5-1-3-4-2-5-2h-11c-2-1-2-4-5-5l-4-2h-4c-1 0-3 0-3 2-1 2 2 2 4 3 5 1 9 5 14 7 3 1 3 4 6 5 2 0 3 2 4 4 2 1 3 4 4 6l5 5 3 5c0 3 4 4 4 7v5c2 0 3 2 2 3-1 2 1 4 2 5l6 5c-1 0-3 0-1 1 2 0 0 3 2 4v12l2 4c1 2 2 3 1 5l3 4c1 0 4 2 4 0 1-4-3-7-3-12 0-1 2-3 1-5 0-2-2-3-3-4l-3-5c-1-1 0-3-2-4s-3-3-2-4c1-2 2-4 0-6l-1-1zm203-48c-1-2-4-4-4-6 2-2-3-4-3-2l2 6 5 4c1 0 0-2-1-1l1-1zm-191 6c-2-1-2-3-3-5 1-2 5 0 4 2l-1 3zm76-28c2-1 4 2 3 4s3 4 1 5c-3 1-3-2-3-4 0-1-2-3-1-5zm-92 2c-1-1-2-4 0-5s4 1 4 3l7 5 1 6c0 2 1 4-1 5s-3-1-4-3l-3-6-4-5zm65-22c-2 1-3-2-2-3 2-1 4 2 2 3zm-36-1c1 2 3 2 5 3l-1 4c-2 1-4-1-5-3 0-2-2-3-4-4l-4-5-6-4h2c-1-1-3-2-5-1-1 2 1 4-1 6-1 1-3 0-5-1-1-2-2-3-4-3l-5-2c-2-2-4-5-7-6-3-3-6-4-9-5-5-1-9-6-14-6-3 0-5 2-7 3-2 0-2-4-5-3-2 0-4 0-5-2 0-2 2-4 1-6l-5-2c-1-1 1-4-1-5s-4 1-6 1c-2 1 0 4 2 4 2 1 5 2 5 5 0 2-4 1-4 3-1 2 1 4 3 5l9 1 7 1c3 1 5 3 9 3 1 1 3 2 5 1 2 0 3 2 5 3l5 3 3 3c2 0 4 0 5 2l8 6c2 1 4 3 5 6-1 2-3 2-4 0l-9-6s-2-1-1-2l-4-2-15-6-9-3c-2 0-4 2-6 0-2-1-3-3-5-3l-6 1c-2 1-5 0-5 2l6 3 8 1 10 2 6 1 5 5 6 1 5 5c2 1 5 1 7 3v3c-1 2-4 2-6 0l-3-3-4-2c-2 0-4 2-5 0-2-1-4 1-3 2l6 4 7 8c5 1 9 4 11 8 0 4 3 7 5 9 2 1 3 3 3 5 3 2 3 5 3 8 0 2-2 4-4 3l-7-7c-2 0-3 2-2 4 0 3 2 5 4 8s5 6 6 10l2 7c2 2 4 0 4-2s2-2 3-4l-4-5-2-6c-1-2 0-4 2-4l6-2 3-3c3-1 4 2 3 4l1 7c-1 3 0 6 3 8 2 0 3-3 2-5l-2-7c0-4-3-8-2-11 0-3-1-5-3-6l-1-6-2-3c-1-2-1-4-3-5v-6c1-1 3-1 4 1v6c0 2 2 3 3 5l3 4 3 3c2 3 1 6 3 8l3 5v7c1 3 3 5 2 7l2 6c0 2 0 4 2 6 2 1-1 4 1 5l4 4v8l1 5c1 3 0 6 2 9s2 6 2 9 3 5 4 7l1 10c-1 2 1 4 1 6v5l2 5 7 10h-2c3 1 5 4 5 7 1 2 2 4 4 4 0-3-3-5-3-8v-6c1-1-1-2-2-4 0-2 3-3 4-3 2 0 5 0 6 2 3 5 4 10 8 14l2 5c2 1 1 4 3 4 2 1 3-1 1-3-1-1-3-2-2-4l2-4-2-3c0-2 0-4-2-5-1-1-3-2-3-4v-6c0-2 0-5-3-5-2 0-3 3-6 2-2-1-1-4-2-6s-3-2-3-4l-1-4c0-2-2-4-1-6l-1-7-2-6c-2-2 0-4 0-6-1-2-4-2-3 0l-1 6 1 5c-1 2 2 4 1 6l2 6 1 5 1 5c0 2 0 5-2 4-3-1-4-3-5-6l-4-17c-2-1-3-3-2-5l-1-6c0-2-2-3-3-4v-6c-1-6-4-11-7-15 0-1 2 2 2 0-1-2-3-3-2-5h-1c2-5 3-10 2-15l-2-6c0-3-3-4-3-7l-2-8c-1-1-4-1-4-3s-2-5-1-7c1-1 1-4-1-4l-5-1c0-2 2-4 1-6s-4-3-4-6l-4-4c-2-1-4-2-4-4-2-2 1-5 3-3 3 3 5 6 9 8l4 7 4 6c2 1 4-2 2-3l-3-9h3l2 4 1 5c1 2 4 1 6 1 2-1 1-4 0-5 0-2 0-4-2-5l-2-5c-1-2-4-3-3-5s3 2 5 0c1-1 3-2 5-1l2 4c1 2 3 3 2 5 0 2 2 4 3 5 2 2 1 4 1 6-1 3 2 5 5 5 1 0 1 4 3 2l-3-5c-2-1-2-3-2-5v-6c0-2-3-2-4-4-1-1-2-5 1-5l4 5c3 2 3 5 4 8 0 2 2 4 4 3s4 0 4 2c0 3-2 5 0 8l1 3c1 1 2 3 3 2 2 0 2-3 2-4 1-2 2-5 0-6-1-2-3-5 0-5 2-1 3 2 4 3l4 6v6l2 5 1 6 4 12c-1 2-2 3-1 5 2 2 3 5 2 7 0 2 2 4 1 6v7c1 2 0 4 2 6v6c-1 1-2 3-1 4 1 2 3 3 5 1v-5l2-6c-1 2-2-1-1-2l-1-2-2-7v-19c-1-2-3-3-3-5 1-2-1-4-2-5v-10c-1-1 1-3 3-3 2 1 2 3 2 4l2 10 1 3c1 2 2 3 4 3 1 0 2 3 4 1l-2-4-2-6v-13c-2-2-4-3-4-5l-2-6c1-3-1-4-2-5l-3-6-4-6c-1-2-3-3-5-3l-4-2c-1-1-3 0-2 1 1 2 3 3 3 5 0 1-1 3-3 3s-4 2-6 0l-2-7-4-10c-2-2-3-4-3-7-1-1-4-1-4-3s-4-2-4-4l-4-5-2-6c-1-2-4-3-7-4l-4-5c0-2-1-3-3-4-3-1-7-2-9-5l-4-3c-2-1-2 3 0 3l4 3c1 2 3 2 5 3s2 3 3 5c1 3 3 6 6 8l6 1c1 2 4 3 3 5-1 1-3 1-3 3l4 5c1 1 4 3 2 5h-6c-2-1-1-3-3-5l-5-7c-1-2-3-3-3-5s-2-3-4-5l-7-7c-2-1-4-3-7-3s-6-3-9-4l-11-5c-3-3-6-5-10-5l-15-2h-6c-2-1-4 0-4 1 0 3 3 2 5 2s4 0 6 2l6 2c5 0 9 2 13 5 6 3 13 4 19 5 1 0 4 1 3 3l2 4c3 1 5 2 7 5l11 9 5 8c0 2 0 4 2 6 1 1 3 3 1 4-2 0-2-3-3-4l-6-7c-2-1-4-2-6 0-1 2 1 3 2 5 1 1 3 4 1 4s-4-2-5-3c-1-2-3-2-4 0s1 4 2 6l4 5h-1zm54-5c2-1 1-3 0-4l-2-3-3-3c-3-2-6-4-6-7l-1-5-7-7c1 2 3-1 1-1l-5-5c-1-2-3-5-6-6-3-2-3-6-6-7-2 0-5 0-6-2l-5-6c-6-5-13-7-20-11l-10-6c-1-1-3-3-4-2-2 1-2 5 0 5 3 0 6 2 8 4s4 3 7 3l8 5 6 3c2 1 5 3 6 6l4 4c1 1 3 3 3 5 1 2 4 2 7 3l4 4c-1 2 1 3 2 4 2 1 4 3 4 5l4 7 4 4c0 2 2 3 3 4 1 2-1 5 2 6 1 0 4 1 4 3 1 2 3 0 4-1v1zm-255-82c-2-1-5-2-7-1-2-1-2 3-4 3-2 1-4 2-4 4-2 1-1 4 1 4 2-1 1-4 3-5s3 1 4 2c3 1 4-2 5-3 1-2 2-4 4-4s1-3 0-2l-2 2zm202 4c6 2 11 5 15 9 0 2-1 4-3 3l-7-5h-6c-2-1-1-4-3-5s-1-5 1-3l3 1zm41 23c-2-1-5-2-6-4l-5-7-12-9-4-3c-1-1 0-5 2-4l6 4c1 3 4 3 5 6l5 4 4 4c1 1 4 1 4 3l4 4c1 2 3 4 5 4 2 2 4 3 4 6l4 5 5 6 7 7 4 10 4 4c0 2 0 4 2 6l5 6c2 1 0 4-2 3l-6-2c-2-1-3-3-3-5 0-1 0-3-2-5-1-2-1-5-4-7l-13-20-6-6c-2-3-3-7-6-8l-2-2h1zm-79-33c-1 1 0-1 0 0zm90 31-4-4-6-7c-4-2-5-6-9-7l-6-4-3-6c-8-3-15-8-22-12l-15-8c-2-4-7-5-11-4-3 0-5-1-7-3l-7-2c-2 0-3-2-4-4s-4-2-5 0c-1 1-3 2-4 1-2-1-3-4-5-4l-6 1-9-2-7-2c-5-1-10 2-15 1l-7-2h-15l-6-1-5 2c-3-1-6-2-9 0l-4 2-7-1-5 2h-6l-5-1h-5c-2-1-4-2-6 0-2 1-4 4-7 4-2 1-4 2-6 1h-5c-3 3-7 5-11 4h-6c-2 1-4 1-5 3-3 2-6 2-9 2l-8 2-5 4-3 3c-2 0-5 1-4 3l4 3c2 0 3-3 3-4 1-3 4-2 5-2 3-1 3 2 5 2 0-1-1-2 1-3h4l5-2c2 0 3-2 5-3 1-1 3-3 6-3s7 1 10-1l7-4 9-1 6-1c6 1 11-1 17-1h5c2 1 3 0 5-1s4 3 6 1c1-2 4-2 5-3 2-2 4-2 6-1l6 2c3-1 5-3 8-1h6l7-1 6 2h7c3 0 6 0 9 2 2 1 3-2 5-1s3 3 5 3c3 0 5-1 7 1 2 1 2-2 4-2 3-1 5 1 7 2l6 1c4 0 7 2 9 4s5 3 7 3c2 1 3 3 5 3 4 1 6 6 10 6l6 1 7 3c2 1 3 3 5 3l5 4c1 1 1 3-1 3-2 1-4-1-5-2-2-2-5-3-7-3-3 0-5-2-6-4 0-2-3-2-5-3h-9l-13-5-6-3c-2 1-2 4 0 5s4 3 7 3c4 0 7 1 10 3 2 2 4 4 6 4 2-1 4-1 5 1 2 1 3 3 3 5-1 2-4 0-5-1l-10-2c-2 0-4-3-6-4l-5-1-11-3c-2-1-5-1-4 2l6 2 9 4c1-2 3 1 4 2l6 3 6-1 3 3 7 2 10 5v2c8 4 15 8 21 15 1 3 4 4 6 6l7 7c3 3 6 8 10 10 1 1 5 1 4-1l-4-4c0-2-2-4-4-5l-10-12c-3-2-7-3-8-6v-4h4c2 0 3 2 5 3 2 2 4 3 4 6l3 4c1 2 2 4 4 4l6 5c3 3 5 9 9 13 1 3 4 4 6 6s1 5 3 7c1 2 0 4 2 6 2 1 4 3 4 6l2 6c1 1 3 0 4-1h4l3 6c0 3 1 6 3 8 0 2 0 4 2 4 2 1 2 3 1 4-2 1-1 3 0 4 2 2 1 4 2 5l2 3 1 6 3 9 1 6c2 3 4 6 3 9l2 8c2 3 0 6 2 8 1 2 3 4 5 4 2-2 1-4 0-6l1-4c-1-2-3-3-3-5 1-2 0-4-1-5l-2-6v-4l-1-5c0-2-3-3-3-5 0-3-3-4-3-7 0-2 1-4-1-6-1-1-4-1-4-4 1-2 0-4-1-6l-1-6c0-1 0-4 2-4s3 2 3 3c1 3 3 4 3 7l4 5c1 1 2 3 1 5 0 1 0 3 2 4 1 1 3 2 4 0l-1-5-2-5-1-5c0-3-2-6-4-8-3-3-4-7-8-10l-3-6c0-3-3-3-3-5l-1-6-6-8c-1-1-2-4-4-4-2-1-3-4-3-6s2-4 3-2l4 4c2 1 3 3 3 5s2 3 3 5c0 2 1 4 3 5 3 2 2 5 4 7l4 4 3 5c1 2 2 5 5 6 1 1 2 3 4 3 1-1 0-3-1-5-1-4-5-7-8-12l-2-7c0-2-3-3-2-5s4-2 5-1c2 2 2 5 3 7s3 3 5 3c3 0 3-3 1-4l-4-7-4-7-6-7-2-4c0-2-2-3-4-4l-5-9c-3-5-6-11-11-15l-7-11-7-5-10-11-6-4-4-2-6-5c-1 2-4 1-4 3-1 2 2 3 4 4l6 4 6 3c1 3 4 4 6 5 3 2 4 5 6 8 2 4 6 7 10 9 2 1 0 4 2 6l4 4 7 8c1 2 2 4 1 6 1 2-3 3-4 1-1-3-4-6-7-9l-4-5c-1-2-1-5-4-5l-5-5c-2-4-6-6-9-10l-6-3-6-6c-1-1-2-3-4-3-2-1-2-4-5-4-2 0-3-2-4-4l-6-3-8-6v-4l-6-3h-3c-1-3-4-4-6-5l-14-7c-3 0-6 1-8-2h-6c-2 0-3-3-6-3-2 0-5 1-7-1l-6-2h-8c-2 1-4 0-6-1l-6 2-8-3c-3-2-7 0-10-1l-4-1h-6c-5 0-11-2-17-1-4 2-8 3-12 2l-7-1c-2 0-5 2-7 0l-8 2h-6l-8 1h-7c-2 1-2 4 0 5h6c2 0 4-2 6-1s3-1 4-3c1-1 4-1 5 1s4 1 6 2c2-1 3 1 5 1 2 1 3-1 5-2 2 0 3-2 4-4l5 2 13 1c2 1 5 2 7 0l7 1 6-1h7c2 0 3 2 5 3 3 0 6-2 9-1l6 2h17c1 2 3 4 5 2l7 1c4 1 7 3 11 3 5 1 10 4 13 9 0 1-1 4 1 3 1-1 3-3 5-2l14 10 8 6c-1 1 2 2 2 2l10 6c0 2 3 2 5 2 2-1 5 1 5 4 0 2 2 4 4 6l3 5c1 2 5 2 6 4l5 5c0 2 3 2 3 5 1 2 4 2 6 4l8 11c0 1 2 4-1 4-3-1-3-4-5-5-3-2-6-3-8-6-1-3-2-7-6-9h-1zm-234-99h-6c-2 1-5 1-7-1-1 1-2 4-4 3-2 0-4 2-4 4 1 2 4 3 6 2s2-3 4-3l6-1c1-2 4 0 6-1 2 0 2-4 0-4l-1 1zm204 32c0 2 4 1 5 3 0 2 1 4 3 4 3 1 5 2 6 4l5 4 6 3 6 5 7 6 6 7 4 4c2 2 4-1 2-2l-4-4-1-4-6-5-5-5-12-9-5-5c-3-2-5-4-9-5l-4-5c-2-1-4 0-5-2l-6-5-12-6c-3-2-7-5-12-6l-5-1-5-4c-2-1-5-1-7-4l-5-4-8-5h-5c-1 0-4 0-3 2l6 3 12 6 4 4c0 3-3 3-5 2l-6-2-1-2-7-1-5-2c-2-1-3-2-5-1l-6-2-12-3h-6c-3 0-5 3-8 2s-5-4-8-4c-4 2-8 0-12 0l-4-2c-2-1-4-1-5 1l-7 1h-7l-5-1c-1 1-3 3-5 3l-6-1-6 2c-2 1 1 3 3 3l4 3h4c2 0 4 2 6 1l5-3c3-2 7-1 11-1 1 1 4 3 5 1s3-3 5-2 3 3 5 3c2-1 4-2 6-1h9c1-1 4-1 5 1l7 1 11 1 6 1h7l12 6c2 0 4-2 6 0 1 1 4 3 6 1h11c2 1 3 3 5 2 2 0 4 2 5 3 3 0 4 3 7 3l11 7a242 242 0 0 1 11 6zm15-91c-1 0-2-2-3-1l6 5c4 4 10 6 15 9l14 9c6 4 10 11 17 14 1 2 2 4 4 4l6 2c2 0 4 1 5 3 2 3 5 5 9 6l2 4 8 6 5 6c2 0 4 2 4 4l5 4 3 5 5 4 5 7c0 2 2 3 4 4s1 4 4 5c2 1 2 4 3 5 2 1 4 2 4 5 1 1 2 4 4 4l4 5c0 2 1 3 3 4 2 2 0 5 2 6l5 4 2 6c-1 2-1 5 2 5l4 3 3 5c2 1 3 2 3 4s2 3 4 5c2 1 1 4 3 6 2 1 3-2 5-3s-1-3-2-4l-3-3c2-1 0-3-1-4-2-2-1-5-3-7l-3-3c1-2-1-4-2-5l-7-12-7-8-3-4c-1-3-4-5-6-7l-3-5c-1-1-2-4-4-4-2-2-2-5-5-7a1076 1076 0 0 1-11-12c-1-2-4-2-5-3-3-2-3-7-6-8l-5-4-5-4-5-6-2-2c-2 0-4-2-5-3-3-4-8-7-12-9l-15-10-7-4c-3-2-3-6-6-7l-6-3c-3 0-5-2-7-3 2-1-1-4-2-3-2 2-4 1-5-1s-3-3-3-5-2-4-4-4c-3-3-6-7-10-8h-6l-5-4-4-2c-1-3-4-4-7-5l-10-4c-4 0-8-4-12-3l-12-2c-2-2-2 1-1 2 1 2 3 3 5 2h8c3 0 6 1 8 3l4 4c2 0 5 0 6 2s3 4 6 5l18 8 3 2zm-46 42c-2 0 1 1 1 2l5 2c3 0 7 2 9 5l9 2 7 4v2c3 2 7 4 11 4 2 0 3 4 6 4l13 8c3 2 7 4 8 7l4 5 6 3c2 1 2 3 2 5l6 3 9 5v2c3 0 5 2 6 4s2 4 4 4c2 1 4 2 4 4 2 2 5 2 6 4l5 2c2-1 1-3 0-4l-3-3-4-3c-3-1-4-4-6-5l-6-4c-1-1-2-3-4-3-2-1-4-1-5-3l-3-4-6-6-6-3-4-5-5-3c-1-3-4-3-5-5s-4-1-4-4c-1-2-3-2-5-3l-5-2-4-5c-3-2-7-1-10-4l-10-5-6-4-6-1-7-4-18-6-6-3c-2-2-4-3-7-3s-4-4-8-4h-5c-2-1-4-2-6-1-1 0-5 1-3 3l6 1 6 1 5 1c2 2 3 3 5 3s4 0 5 2l9 4c1 1 1 2 3 2l5 1 2 1zm-117-30c0 2 2 4 4 4 2 1 5-1 7 1 1 1 3 2 4 1l5 2h7c2-1 4-2 5-1l4 2c2-1 4-2 6-1l6 3c2 1 3-1 4-2s2-2 0-3c-1-2-4-2-6-1l-5-1c-2-2-5-3-7-2l-6-1h-18l-10-1zm-44 5h-3c0 2 2 4 4 3 3-1 5-5 8-5 2 0 4 0 5 2 1 1 3 2 5 1 0-1 0-4 1-3 2 1 3-2 5 0l7 1c2 1 3-2 1-3l-6-2-7 1c-2-1-3-3-5-3s-3 2-5 3c-4 1-8 2-10 5zm127-63zm1 2c2-1 0-4-2-4l-5-1c-1 2 1 3 2 4l5 1zm78 1-4-5c-2-2 1-6 4-5 4 1 7 4 9 7 1 2-1 3-2 5h-5l-2-2zm-23-19c3 1 5 5 8 5 2 0 3 0 4 2s-2 2-4 3h-6c-2 0-5 2-7 1l-5-5c-2 0-3-2-1-4l6-2h5zm68 57c5 3 9 7 14 9 3 2 1 5 4 6 2 2 4 2 6 2 3 1 5 3 6 5l5 4 11 8 6 5 2 4 3 4 7 1 4 5c3 2 7 4 9 8l5 4c0 2 3 3 3 5-2 2-1 5 2 5l5 3 4 5 6 3v4c-1 3 0 5 1 7l4 5 5 4c2 1 2 4 3 6l6 5 2 3 1 1 3 5c1 2 2 3 4 3 1 2 5 1 5-1 1-2 1-4-1-6l-1-5c-2-1-4-1-5-3l-4-5-8-10c1-2 3-3 3-6 2-1 4 1 5 2l5 5c1 3 1 6 3 8l4 5c1 1 4 2 4 0l-2-5v-5c0-2-2-3-3-5-2-2-2-7-5-9l-4-7c-2-1-1-4-4-6l-4-4-3-5-4-4-7-5-4-6a37 37 0 0 0-13-11h3c-2-1-4-1-5-3l-12-10c-2-1-4-1-5-3-1-3-4-5-6-7l-6-2c-1-1-4-1-4-3s-2-3-4-3l-7-5-8-4c-2 0-2 3-1 4 0 2 3 1 5 2l4 4 5 1c2 2 0 4 2 5l5 4 6 4 4 3 4 4 5 4c1 2 5 4 8 4l8 7c1 2 0 4 2 5l4 5c2 1 3 2 3 4-1 2 0 4 1 5l8 5 7 8c1 1 4 2 4 4s3 3 3 5c-1 2-3 1-5 1-3-2-6-4-8-8 0-2-3-3-3-5-1-3-4-6-8-6-2 0-3-2-3-4-2-4-7-4-9-8l-3-3-4-3c-2-1-4-2-4-4l-7-5c-4-3-6-8-10-10l-9-3-3-4c-3-2-5-6-9-8l-10-5v-2c-2 0-4-2-5-4-3-3-7-4-11-6-2 0-2-3-4-3-3-1-4-4-6-6-2-1-1-5-4-6l-7-4-7-2c-3-2-2-6-6-7-2-2-5-1-8-3 1-3-2-4-1-6 0-2 3-4 5-3 4 2 7 5 9 8l6 3 4 2 6 5 7 5c1 4 4 6 7 7 2 1 5 1 6 3s4 1 5 1c3 0 4 3 7 3 2-1 0-4-1-5-1-2-2-4-5-5-1-1-2-3-4-3-3 0-6-2-7-4l-6-3c1-1 0-4-2-4-3 0-5-2-7-4l-5-5-8-4c1-2-1-4-3-4l-10-4-4-4-9-3-2-2-4 1-6-2c-2-2-4-2-6-1l-6-2-8-1-4-2h-6l-5-1c-4-3-9-4-13-5l-5-1c-1 2 1 3 2 4 3 3 6 3 9 4 2 2 3 4 6 4h5c1 1 0 3-1 4-2 2-4 5-3 7 0 2 3 3 5 3 3-1 6 0 9 2 2 0 4 0 5 2l9 3c3 2 7 5 11 5l6 1c2 1 0 4 2 5l11 4c3 2 6 3 8 6 2 1 4-1 6 1 3 2 6 4 7 7 2 2 4 2 6 1l4 4v3zm0-47c-3-1-7-2-9-5l4-2c3 1 5 5 8 5 2 0 5 0 6 2 2 1 3 4 2 5-2 2-5 1-6 0l-5-5zm18-3c-1-1-4-2-4-4v-4c2 3 6 3 7 6 1 2-2 2-3 2zm41 8c-4-2-8-3-11-6-1-3-4-5-7-6l-5-4c0-2 3-2 4-2 2 0 5 0 6 3l5 4c2 0 4 0 5 2s2 3 4 3l4 2c0 2 2 4 4 5 2 0 4 2 3 4 0 1-1 4-3 3-3 0-5-3-7-4-1-2-3-2-3-4h1zm-82-22-12-8c-1-1 0-4 2-4 2-1 4 0 6 1 2 0 5 0 6 2l3 5v4c1 2 3 1 3-1 1-1 2-2 4-1s3-1 4-2c2-1 4 0 5 1 2 1 0 4-2 3l-5 1c-2 1-4 3-3 4 2 2 1 5-2 3l-2-4-5-3-2-1zm-17-12-3 1c-2-1-5-1-7-4-1-2 2-4 4-3 2-1 5 0 6 2v4zm-21 0 3 2c2-2 3 1 3 3h6c2 0 4 2 5 4 4 3 9 3 12 7l7 6 4 2 5 4 5 5c2 1 4 1 5 3 1 1 4 0 5 2l7 5 7 6 5 4c1 2 4 2 5 1 2 0 5-2 6 0v6l5 4 5 1c2 0 3 2 4 3l6 4 4 5 5 4 5 4 5 4c3 1 4 5 7 6l5 4 4 4 4 4 5 4c1 3 4 4 6 6 1 0 3 1 2 2l7 5c1 1 3 0 4 2l4 6 4 4 3 4c1 1 1 4 3 4s4 2 5 4c1 3 5 5 8 6 2-2 0-4-2-4-2-2 0-5-1-7-1-3-5-5-8-7l-2-3v-3l-4-5c-4-1-8-2-10-6-3-3-5-7-9-9l-7-6c-2-2-3-4-5-4s-4-2-5-4c-2-1-2-4-4-4l-6-4-9-7-4-4c-1-2-3-3-3-5-1-3-4-3-5-6-1-2-4-2-6-2l-9-4-5-4-8-7-5-5c0-2 3-3 5-2l9 7c2 0 4-2 6 0l12 10 8 7 3 4c2 1 4 1 5 3l5 4 4 4 8 6c3 1 4 5 7 5 2 1 4 1 4 3-1 2 0 4 2 4l3 3 3 5c1 2 3 2 5 3 3 1 5 2 6 5l6 4c0 2 2 4 4 4 1 1 4 2 6 1 1 0 3 1 3-1l-3-6-4-3-6-3c-2-1-2-4-4-6l-5-3c-3-3-8-4-11-8l-8-9c-4-1-4-6-8-7-2 0-4-1-5-4s-4-5-8-6l-6-5-7-5h2l-8-4c1-1-1-4-3-2h-3l-1-4c0-2-1-3-3-4l-14-10c-3-1-4-3-5-4s-1-4 1-4c2-1 2 2 4 3 1 2 3 2 5 3 3 2 6 1 8 3l10 7 11 8 4 3c4 1 6 5 8 8l5 5c1 1 4 1 5 4l5 3 8 9 4 4c3 2 6 3 8 6l3 4c1 1 1 4 4 4l5 2 6 3c2 0 2-3 1-4l-3-2c-2-3-3-6-6-8l-6-4-4-5c-2 0-3-3-4-4-2-2-6-2-7-5l-5-5-4-4-5-4-7-4c-2-1-2-4-3-5l-4-4c-1-1-3-3-1-3 2-1 4 1 6 1l7 4 9 4c2 0 1 2 2 4l3 2 4 5c2-1 2-3 4-3 2 1 2 4 2 5l1 5 3 4 9 5c-1 1-3 0-2 1 2 1 5 1 5-1l-4-5-5-8-4-3-5-5-4-4c1-2-2-3-3-4-2-2-5-2-6-5s-5-4-8-7l-5-4-4-5c-3-1-6-1-8-4l-4-5-8-4c-5-4-12-7-18-10-4-3-7-6-12-7-2-1-3-4-5-4-2-1-4-3-7-2-2 0-4 0-5-2l-3-4c-1-2 0-4-2-5-4-1-7-4-11-7-3-2-5-5-9-6-3-1-5 3-3 5l6 4 8 5-4-1c2 2 6 2 8 5-2 2-4 1-6 1-5-2-9-5-14-5l-8-5h-4c-2 0-4 0-6-2-1-1-2-4-4-3v5l6 3 10 5c2 1 4 3 7 3l7 4c2-1 3 1 4 2 1 2 4 1 5 2 2 0 3 2 5 3 2-1 4-3 4-5 1-2 4-2 5 1 1 2 2 4 5 4l15 11c2 0 4 2 3 4s-3 1-5 0l-6-3c-1-2-2-4-4-4l-6-2-6-1c-1-2-3-3-5-2h-6c-2-2-4-5-8-5l-5-1c-2-2-6-1-8-3-5-3-10-9-16-11l-6-1-7 1c-1 0-3-2-5-1l5 4c1 1 2 4 0 6-1 1-3 0-5-1-2 0-6 0-8-2-3-2-5-4-9-4-2 0-4 0-5 2 0 2 1 5 3 5h6c2 1 3 4 5 4l6 2v1zm-41-18c-1-1 1 0 0 0zm-16-9h-8c-1 2 1 6 3 5 3 0 6-2 9-1s5 3 6 5l6 3 6 2-6-4c1-1 3-4 1-4l-6-3h-5l-6-3zM180 704c-2 0 1 3 0 1v-1zm3-4c1 2 3 3 3 5 1 1 4 0 2-1-1-2-3-4-5-4zm153-3c-2 0 1 3 1 1l-1-1zm4 1c-1 2 3 4 4 2 2-1-1-4-3-3l-1 1zm-94-3c-1 2 0 5 2 5l6 2c3 2 6 0 9 0l5-1c1-2-1-3-2-2-2 2-4 0-5 0l-9-5c-2-1-4 1-6 1zm71-3v2-2zm40-9c0 2 3 3 4 3 3 0 5 3 7 5l7 4c1 2 4 0 4-2l-4-3-5-2c-1-1-2-3-5-3-2-1-6 0-8-2zm-83 0c-1 2 1 4 3 3 2 0 3 3 5 3l8 2c1-1 3-2 5 0h7c2-1 2-4 1-5-2-2-5-2-6 0-2 1-4 0-6-1-4-1-8-1-11-3l-6 1zm76-2v2c1 1 3 0 1-1l-1-1zm-24-8c-2 0-4-2-7-1-1 1 1 4 3 4l6 3c2 2 6 4 9 4l6-2c2 1 4 3 5 1s-1-2-3-3-5-3-8-3c-2 0-3-3-5-3s-4 1-6-1v1zm-110 0h-3l7 3c1 2 2 4 5 5 1-1 3-3 4-2 2 1 4 2 6 1 2 0 4 2 6 1h8l7-1-5-4c-4-2-8-2-12-2l-6-1-6-3h-7l-5-2-4 3 4 2h1zm96-5c-1 1 3 2 1 1l-1-1zm60 1c-2 1-4-2-6-2l-6-2h-5v2c0 1 0 4 2 4 3 1 5 3 8 2 1-1 2-3 4-3l4 3c2 2 4 3 6 2l3-3c-1-2-3-2-5-2l-5-1zm-28-5 2 2c2 0 1-5-1-3l-1 1zm-82-2c1 1 4 1 4-1-1-1-4-1-4 1zm79-1c1 1 4 1 3-1l-3 1zm-7-3c-1 1 2 1 0 0zm75 1h3c-1 0-3-2-3 0zm-28-2c1 2 5 3 7 1 1 1 4 0 3-2-2-1-4 2-5 1h-5zm-65-1c2 1 4 2 6 1-1-2-4-1-5-1h-1zm-85 1c-2 2 1 2 3 3l10 3c2 0 5-1 6-3l-3-2-5-1-8-4c-2 0-2 3-3 4zm58-1c3 0 6 2 9 0 1-2-2-3-4-4s-5-1-7 2c-1 1 1 3 2 2zm63-7c3 1 5 4 6 6 3 1 5 0 6-2s-1-3-3-4l-6-2c-2-1-3 1-3 2zm-76 1c-5 0-10-3-14-5 0 2 3 3 4 4l9 3c2 2 3-3 0-2-1-1-2-3-4-2 1 2 4 1 5 2zm133-2-4-2 4 2zm-5-2c1 2 4 3 6 3 2-1 1-5-1-5s-4 0-5 2zm-44-10c4 3 9 3 13 5 3-1 7 1 10 2 3 2 7 3 11 1 1-1 1-4-1-4h-12c-3 0-5-3-8-4-1-2-3-2-4-1s-2 2-4 1c-1-1-4-2-5 0zm-311-2c-1 2 2 3 3 2 1-2-2-3-3-2zm231 0c-1 2 3 4 3 1l-3-1zm36 1h5c0-2-3-2-4-1l-1 1zm87-1c4 2 8 5 12 4 2 1 4-2 2-3l-4-3-5-1c-2-1-5 1-5 3zm-80-11h3c0-2-4-2-3 0zm41-2c3 3 6 5 10 5 2-2 0-4-2-4l-7-1h-1zm-80 2c5 3 11 6 17 7v-2l-13-7c-2-1-5-2-6 0-1 1 1 4 2 2zm-52 1 6 2c2-1 3 0 5 1 3 1 6 1 8 3s4 2 6 0c1 0 4-1 3-3-2-1-4 0-5-2-1-1-2-3-4-2h-3l-9-2c-2 1-4-1-6-1-2 1 0 3-1 4zm116-9c1 3 3 5 6 6h4c1 2 3 0 2-2l-5-3-7-1zm-35-1c1 1-3 3-1 3s3-3 1-3zm80-1 1 6c4 2 9 1 14 3h8l5 1 2-2c-1-1-3-3-5-2-2 0-4-2-5-3l-7-2-5-1h-8zm-115-7c1 2 4 1 5 2 3-1 1-4-1-3l-4 1zm151 2c-4-1-7-4-11-6h-5c-2-2-5 0-7-1l-9-3c-3 2-3 7 0 9s8 1 12 0c2-1 4 1 5 3 2 1 5 2 7 1l6-1 2-2zm-271-8 5 8c2-3 6-4 9-3 2-1 4 1 6 1l7 5c2 0 4-2 5-1 8 1 14 8 21 9 5 0 9 0 13-2 1-1-1-3-2-3-2 1-3 0-5-1l-6-2c-1 1-3 1-5-1s-5-3-8-3c-3-1-6-4-9-4s-7 0-10-2l-8-3c-2 1-3 0-5-1s-4 1-6 1l-2 2zm113 4c2-1-1-2-2-3-2-2-4-2-5-2-4 0-6-3-9-3-2 2 1 4 2 3 3 0 4 2 6 3l4 2h4zm167-10c-2 1 2 2 1 0h-1zm-24-1v4c3 0 5 1 7 3 2 0 3-2 2-3l-3-3-6-1zm-119 2c2 2 4-2 2-3s-5 1-3 3h1zm25-3c1 3 6 5 9 4 1-1 1-4-1-5h-6l-2 1zm-89-1c1 2 4 1 6 2 1-2-2-3-3-3l-3 1zm-101-5c-2 2 0 5 2 6 3 3 7 2 11 3 2 0 4 0 6 2 2 1 3-3 1-3l-4-4c-1 2-3 1-5 1-3-1-7-2-9-4l-2-1zm233 0 5 4c2 0 3 2 3 4 1 2 4 2 5 0s1-4-1-5-5 0-6-2c-2-1-4-2-6-1zm14-2c0 5 5 8 10 7 1-1 2-4 0-5-2-2-5-3-9-2h-1zm-108-1c1 2 2 4 1 6 1 2 4 2 5 1 2-2 4-1 5 0l5-1-3-2c-3 0-5-3-8-3-2 2-4 0-5-1zm180 2c1 2 4-1 2-2-1-1-3 1-2 2zm-117-2c1-3-4-1-2 1 1 2 3 1 5 1 3 1 3-3 0-3l-3 1zm-11-8-2 2-6-2c-1 2 2 3 4 4l8 4c0-3-2-6-4-8zm-193-1c-2 2 1 4 3 4l8 1 6 2c2-2 5 0 8 1l6 3c4 0 6 2 9 3l5 2c2 0 2-3 1-4l-5-3-9-2-6-2-6-2h-5l-7-2c-3 0-6 1-8-1zm234 4c3 1 4 5 7 5 2 0 4-2 2-4l-4-2c-1-1 0-3-2-3s-2 3-3 4zm-87-2c0 2 3 3 5 3 5 0 8 2 12 4l7 1h5c2-1-1-3-3-3l-5-2h-6l-5-1c-1-2 0-4-2-5l-6 2-2 1zm153-3 9 3c-2-3-6-4-9-3zm-51-2c1 2-2 4 1 5l9 3c3 2 6 4 7 7l5 3c2 2 4 1 6 1l4 2c2-2-2-2-3-3-1-2-4-4-7-5l-6-5c-1-2-4-3-6-4l-6-2c1-2-2-4-3-3l-1 1zm45-1c-1 2 4 1 1 0h-1zm-147-1s0 1 0 0zm68-3v3c2 0 4 2 5 3 2 1 2-2 1-2-2-2-4-4-6-4zm-184 1c1 1 2 4 4 4h3c2 0 4-3 1-4h-8zm-22-3c1 2 4 3 6 3 0-3-4-4-6-3zm55-5c1 2 4 1 6 2 3 3 7 5 11 6 1 2-1 3-2 3-4 1-8 3-12 2-2-1-4-3-7-2-2 0-3-2-5-1l-6 1c-1 2 1 3 2 5 1 3 5 4 7 3 2-2 3-4 5-3l7 2 8-1 10-2-3-5-2-5c-1-2-3-2-4-1l-4-2-5-2h-6zm178-6c4 2 5 6 8 8 2 1 4 1 5 3 3 3 7 3 9 7 1 2 3 5 6 5l9 3 15 7c2 0 2 4 4 4l7 5c2 1 2-3 0-3l-5-5-15-8-7-5-8-5c-2 0-5 0-7-2-1-2-4-2-5-3-2-2-2-5-5-7l-7-4h-4zm-300 9-7-4c2 0 0 2-1 1-3-1-6-4-10-4-2 1-4 3-7 2l-7-4c-2 2-4-1-6 0h-8c-1 0-3 1-3 3l4 5c2 0 3-3 4-4 2-1 3 1 5 2l4 3c0 2 2 4 4 3s4-3 7-3l11 3h6l9 3c2 1 4 3 7 3l14 6 9 1c2 0 3 2 5 1s4 1 5 2c2 2 5 2 7 2 1-1-2-3 0-4 1-1 0-4-2-3-1 2-3 2-4 0-3 0-5 0-7-2l-4-2-5-2c-2-1-4-2-5-1l-6-1c-2 0-4-2-6-1-3-1-5-3-8-3l-6-2h1zm201-11 5 4h-2l14 9 9 7c3 0 3-3 3-5s-3-2-4-3l-7-1v-3l-8-2c-3-2-6-6-10-6zm-87 4c-2-2-5-3-8-2l-8-1h-17l6 2c1-1 4 0 5 1 3 2 6 4 9 2l9 3 5 2c3 0 2-3 0-4-1 0-3-3-1-3zm251-7v2c3 1 5 3 6 6 2 2 3 6 6 8 2 0 3-3 2-5l-2-5-8-5c-2 1-2-2-4-1zm-23-4-2 2c2 2 4 3 6 1 1-1-1-2-2-3h-2zm-30-2c1 3 4 4 6 6s5 0 7 2l4 5c-1-3-4-6-7-7 0-2-3-3-4-4l-6-2zm-91-1c-2 1-1 4 0 5l4 4c2 2 4 4 4 7l9 5c1 2 3 5 5 3s0-5-2-6l-5-1h-5c-1-2 1-6 4-6 2 0 1-4-1-4-3 0-5-2-7-4l-6-3zm54-1c0 2 1 4 3 5 1 2 3 4 5 4 1-4-2-7-6-8l-2-1zm93 0c1 1 3 3 5 2 1-3-1-6-4-5l-1 3zm-315-4h-4 4zm214-1c-2 2 3 4 2 1l-2-1zm-224-1c1 1 5 2 3 0h-3zm-5-1 2 2c2-1-1-4-2-2zM4 531v2c-1-2-4 0-3 1 1 2 3 3 3 5 1 2 3 1 4 1 1-1 2-2 3-1l5 1c3-1 5 0 8 1 1 0 4 1 5-1s-2-3-3-4l-8-2c-2 0-5 0-6-2-2-1-4-2-7-1H4zm295 3c0 2 3 2 5 3l2 5c1 3 3 4 6 4 1 1 4 2 4 0 0-3-1-4-3-6-1-2-3-1-4-2l-6-3c-1-1-1-4-3-5-1 1-2 3-1 4zm96-1c2-1 4 2 6 1 1-1 0-4-2-4-2-1-4 1-4 3zm-133 10c-4-1-7-3-11-3v-2c-2-2-4-4-6-4h-8c-2-2-4-4-7-4l-11-5h-5c-1 2 0 5 2 5 5 3 11 3 16 6 2 1 5 3 8 3 4 0 7 2 9 4l5 4h9c2-1 5 0 6-2 0-1-1-3-3-3h-5l1 1zm-5-19v2h-2v4c2 2 5 0 7 2l17 8c2 0 4 1 5-1v-4c-2-3-5-4-8-6-1-1-3-3-4-1-3 1-7 0-9-2 0-2-3-2-5-2h-1zm-140-3c3 2 6 6 10 6 2 0 3-3 5-3 2 1 0-2-1-2l-5-1h-9zm245-2c-2 3-1 8 3 9 2-1 0-4-1-5l-2-4zm33 4c-2 0-1-2-2-3-2 0-2 2-1 3h3zm-279 36c-3 0-5-3-8-4-1 2-4 1-5-1-2-2-5-4-8-3s-6 0-8-2h-4c-1 0-3-3-1-4l7-1h5l7 1c3 1 6 1 8 3 3 1 5 2 8 1h7c3 0 5 3 7 4 3 1 7 2 10 0h6c1 0 3 0 3-2-1-2-4-1-6-1-3 1-5-1-7-2h-7l-6-1-3-1-6-1-9-3h-6l-6-2-9-1c-2 0-5-1-6-3 0-2 2-3 4-3 3 0 6 0 9 2l4-1c2 0 3-2 1-3l-7-4-9-2h-6l-8-2h-5c-2 1-4 3-6 1-1-1-3-2-5-1s-4 2-5 1l-6-2c-3 0-6 0-8-2l-6 1c-4 1-8-1-11-3-2 2-2 4-1 6h7l7 1c2-1 5-1 6 1s4-1 5 1c4 1 9 4 13 3 3 0 5-2 8 0l6 1 3 4c1 2 3 2 4 2 2 0 4 1 4 3s-2 3-4 3c-1 0-3-2-4-1h-5l-3-2H45c-2 0-4 0-5-2s-3-2-5 0c-1 0-4 0-3 2s4 3 7 3l5 1 5 1c3 1 5 3 8 3l6-1 6 1 11 5 14 5h6c1 2 3 3 5 3l6 1 4 1h5c3-1 6 2 10 3 1 0 3 1 4-1 1-1 0-3-2-3h-4l-5-1-6-1-2-1h1zm221-40c2 0 1 4 4 3 0 0 2 0 1 1 2 0 4 0 5 2 2 1 3-3 1-4l-6-5c-1-1-4-1-5 1v2zM0 515v4c1 1 4 1 2-1 0-1 0-4-2-3zm275 7 14 7c2 1 4 0 4-2s-2-2-3-3l-3-6c-1-3-4-3-7-2-2 0-4 2-4 4l-1 2zm102-7h-2c1 2 4-1 3-2s-4-4-4-1l3 3zm25-7c-1 2-1 5 1 6l2 5c1 2 4 2 5 2 2 1 4 4 5 1l-3-4c-2-3-6-5-8-9l-2-1zm-69-1c0 2 2 4 3 2l-3-2zm-186 4c-2 0-3 3-1 4 2 2 4 0 6 0l6 1h5c2 0 4 1 4 3l4 3 9-2c3-1 5 1 8 1h4c2-1 3-3 5-2 2 0 4-2 2-2l-6-1-5-2h-6c-2-1 0-4-1-6l-6-1-7 3-10 2-11-1zM33 501l-2 5h-3l5 3c5-2 11-1 16 2 1 1 3 3 5 3 4-2 8 1 12-1 2 0 5 2 8 0l6 1 7 2v4c0 2 2 3 3 3l4 1c2 1 3 0 5-1h5c2 1 3-3 1-4l-5-1-6-1c-2 0-4-2-3-4 1-3 5-4 8-4l6 3h12l5-1 4 2c2-1 0-2-1-3-2-2-4-2-6-1l-5-1-6-1-8-1-12 3-8-2h-6c-2-1-4 0-6 1l-5-1-18-4c-2 0-5 2-8 1-1 0-2-3-4-3zm-26 2c2 1 4 4 7 4 1 0 4-1 3-3l-5-2H7v1zm177-3c0 2 3 3 4 1 0-2-3-3-4-1zm-60-1c0 2 2 4 4 4 1 1 4 2 4-1l-5-2-3-1zm94 0v1l7 1c2 0 3 2 5 3l5 2c3-1 6 1 9 1 4 1 8 1 11 3 2 3 4 4 6 5h7c2-2 0-7-3-7l-6-2c-2-1-5 0-6-2-2-2-5-2-7-3h-7c-1-1-1-4-3-2h-4l-5-2c-3 0-6 0-9 2zm-76-1c-2 1-2 4 0 5s4 0 6-1c5-1 11 0 15-2h6c1 0 3-3 0-3l-6 1-7 2c-4 0-7-3-11-3l-3 1zm32-2c2 1 3 3 5 2h6c0-2-2-2-3-2h-8zm182-3c-2-1-4 3-1 4 1 0 2-3 1-4zm126-2c0 3 1 5-1 8 0 2 2 3 4 4s2 4 4 6c0 2 5 2 3 0-1-2-3-3-3-5s-1-4-3-5v-5c0-2-3-2-4-3zm23 0c-1 2 3 4 3 1l-3-1zm-142-2c-1 2 3 0 1 0h-1zm87-1-2 6c2 2 2 5 1 7 1 3 4 5 4 8v3c2 0 2 3 2 5 1 4 5 7 7 11 2 1 3 3 3 6l10 7 2 6c2 1 1 4 3 4 2-1 2-3 2-5l-5-7c-2-1-3-2-3-4l-4-6c0-2-2-2-4-2-1-1-3-3-2-5l-2-5c-1-1-3-3-3-5l-2-6c0-3-1-5-3-7-1-1-3-2-3-5v-6h-1zm-11-1c-1 1 1 4 2 3l-2-3zm-286 0c-2 0-4-2-6 0-4 2-9 1-12 3-1 3 3 3 4 1l6 1h10c2 0 4-2 2-4l-5-1h1zM6 485c-1 2 3 3 3 1l-3-1zm476-1c-2-1-1 3 0 1v-1zm-397-2c-2-2-5-2-7 0-4 1-7-1-10-2s-6 1-5 4c0 2 3 3 5 3 5 1 10-2 15-2l5-1c0-2-2-3-3-3v1zm394-3c-1 1 0 4 2 3 1-1-1-2-2-3zm-30 5c0-2 2-4 1-5-2-2-4 0-3 2 0 1 0 3 2 3zm-23 7-2-2 2 2zm-3-15c-1 4-1 8 1 12-2 2 1 4 3 4 2 1 1 3 2 5v5l4 7c1 3 4 4 6 7 0 2 0 4 2 6 1 2 1 5 4 7 2 1 4 1 5 4l2 6c1 2 0 5 2 6s5 2 5 4c1 3 3 4 5 6 1 2 5 0 3-2l-5-4-4-7-2-5-3-6c0-2-2-4-3-5-2-2-2-4-2-5l-5-7c-1-1-1-4-3-5l-1-5c0-2-2-4-4-4-3-3-5-7-6-11l-3-11c-1-2-2-2-3-2zm-76-4c-1 1-3 3-3 5 3 3 3 7 4 11 1 2 4 1 2-1l-2-6v-5c0-2 1-3-1-4zm-198-1c-1 1-2 4-5 3-3 0-5 3-8 2l-6 2h-12c-2 0-5-1-7 1-1 2-4 4-6 2-1 0-4-2-5 0s0 5 2 5l7-3c3 0 6 2 9 0 1 0 4 0 5-2h5l8-1c4 1 7 0 10-2l7-2c2-1 4-1 5-3 0-2-3-3-4-2h-5zm-77 2-1-3c-1 2-4 3-6 2-1 1 0 3 1 3l4-1c1 0 3-1 3-3-2-1 0 2-1 2zm-63-1c2 1 0-4-1-1l1 1zm13 1c2 1 5 3 8 2l7 3c2-3 6-3 8-2 2 2 4 2 6 0l5-1 4-2c-2-1-5-3-7-1-2 0-4 2-6 1h-5c-3 1-7 0-9-2l-5-2c-3 0-4 2-5 3l-1 1zm62-1c4 2 9 3 13 1 0-2-2-2-4-3s-5 0-7 1l-2 1zm77-1h4c0-2-3-3-4-1v1zm8-2h-2c0 2 1 0 2 0zm158-3c-1 2-1 5-3 7l4 4v6c3 1 3 5 6 7 0 2 1 4 4 5 1 2 5 1 4-2 0-2-3-4-2-7 0-3-3-3-4-5s-2-4-1-6c0-2-3-3-3-5 0-3-3-3-5-4zm80 0c-2 1 2 2 0 0zm-301 6s-1 0 0 0zm-3-3c0 2 2 4 4 3l7 1c2 0 3-2 4-3 1 0 3-1 3-3h-4l-4-1-4-1-6 4zm242-7s0 1 0 0zm169 1c-2 1-1 5 1 5 1 2 5 0 4-2l-3-6c0-2-4-3-3 0l1 3zm-476-8c-3 0-1 5 1 3 1-1 0-2-1-3zm406-2c-1 2-2 5-1 7 1 1 4 2 4 0s2-4 0-5l-3-2zm-422 4c1 2 3 2 5 3l6-2c0-3-4-5-6-4-2 0-4 1-5 3zm50 0 6 2c2-2 5-3 8-2 2 1 4-2 2-3h-6l-6 2c-1 0-4-1-4 1 0 1 2 1 0 0zm22 0c2-1 5 0 5-2 0-3-4-3-5-1v3zm-24-13c0 1-3 2-2 3 2 0 3-2 2-3zm-24-1c1 1 4 2 2 0h-2zm384-1c-3 1 2 3 1 1l-1-1zm-359 4c6 1 12 1 18-2 2-2-1-5-2-3l-10 1-5 2-1 2zm28-5c1 2 4 2 5 1s5-1 4-3c-2 0-4 2-6 1l-3 1zm340 1 5 5 1-7c0-2-3-2-4-1l-2 3zm-420-4c2 1 1 4 3 5 2 0 4 1 5-1l-4-4h-4zm437-1h3c0-1-3-2-3 0zm-63 79c0-4-2-8-5-12 1-2-1-4-3-4-2-2-1-4-2-6v-7c-1-2-4-3-4-6l-2-6-2-6c1-2 0-4-1-6s0-4-2-6c0-2 0-4-2-5-1-3-1-7-3-10l-2-5c-1-2-3 0-2 1v6c0 2-2 5 0 8 1 3 5 6 5 10l2 8c-1 2 1 4-1 6 0 2 2 4 3 5 2 1 1 4 3 6 3 1 4 5 5 9l3 4c-1 2-1 5 1 6 2 2 2 4 3 7 1 1 4 1 5 3h1zM40 433c0 2 3 2 4 3 2 1 5-1 3-3-1-1-1-3-3-3s-3 2-4 3zm49-6c1 1 1 4 2 2 1-1 0-5-2-4v2zm-68-6-1 3c1 2 5 2 6 0 2-1 1-4-1-4l-4 1zm383-2c-2 1-3 4-4 6 0 2-2 4-1 7s3 7 3 11c-1 1-2 4 0 5 2 3 2 6 3 10 0 1-1 3 1 4 1 1 3-1 3-2l-2-4 1-5v-6l-2-8v-5l-2-9v-4zm-368 1h-3l2 3 7 1c3-1 7-1 10-3 1-2-2-3-4-3l-5-2c-3-1-6 1-7 3v1zm238-1c1 2 4 3 6 4 2-1 3-3 5-2 2 0 0 3 2 5 2 1 2 4 4 6 2 4 3 9 7 13 1 1 4 2 5 1 2-2 1-5 0-6-1-2 1-4-1-6-1-1-4-1-4-4 0-2-1-4-3-5l-3-6-4-3h-5c-2 1-5 0-6 2l-3 1zm164-3 3 6v9l2 5c2 0 2-3 2-5s-2-3-1-5l-1-7c0-2 0-5-2-5s-3 1-3 2zm-99-3-1 6c1 2 3 4 3 7l2 5 1 6 4 10 4 7c0 3 3 4 3 7 0 4-1 8 1 11 1 2 3 3 3 5s3 3 3 5c0 3 5 2 3-1 0-2 1-6-1-8-2-1-2-3-1-5-1-3-4-4-4-6 1-3 1-5-1-7l-4-8c1-2-2-3-2-5l-1-7c0-3-3-4-3-7l-2-10-4-4-3-1zm15 0c-1 1 0 3 1 4l1 5c0 2-1 4 1 6 1 1 4 2 4-1 1-2-1-4-2-5-2-1-4-3-2-4s2-4 0-4l-3-1zm-213 2v2c1-2 3-4 5-3 2 2 6 1 8-1 0-2-2-3-4-3-1 1-2 2-4 1l-4-2c-4 1-5 5-8 5s-5-2-7 0c-2 1-3 3-5 3-2 1-4 3-5 2h-7c-2 0-3 2-5 3l-5 2c-2-1-3 3-1 3h8l6-2c2-1 3-4 6-5h6l6-1c1-2 3-4 5-3 1 1 4 3 5 0v-1zm-116-7c-2 0 1 3 1 1l-1-1zm334 2c-1-2-1-5-4-4-1 1 0 4 2 4h2zm36-7c4 2 5 7 3 11 0 1 2 3 4 2v-3l-1-4c1-3 0-6-1-8-2-1-3 0-4 1l-1 1zm-275-5c-2 0 1 3 1 1l-1-1zm116 1 6-2c-1-3-5-2-6 1v1zm300-17c-2 1-4 3-3 4 2 0 3 3 3 4 2-2 0-3 0-5v-3zm-508 8-1 4c2 1 4-1 6-2h5c2-1 0-4 2-5 2 0 4 0 5 2-1 2 2 4 3 2l6-2c2 1 4-2 2-3-2-2-5-4-8-4-2 1-3 3-5 3s-4-2-6 0l-7 5h-2zm500 23c0-1-2 0 0 0 1 1 4 2 3-1l-1-4-3-9c1-2 2-3 1-5-2-1-3-3-3-5s0-5-2-7c-1-2-3 1-2 2s2 2 1 4l1 5c2 3 0 5 0 8l3 7 2 5zm-115 25c2 1 3 3 2 5 1 2 2 4 1 6l1 5c1 2 4 2 3 0v-7c0-2-2-4-1-6 2-2 2-4 0-6-1-2-2-4-1-7l2-5c-2-2-4-3-3-5l-1-10-1-5c-2-1-1-4-2-6v-5l-1-6 1-4c-1-3-4-3-5-1s-3 3-3 5l3 6 1 8c1 2 0 5 2 7v7c0 3-2 6 0 9 1 3 3 5 3 8 1 2-2 3-2 5l1 2zm60-59-2 2c1 1 3-1 2-2zm-164 0c-2 0-2 3 0 2v-2zm-87 0zm-200-1c-2 2 3 2 1 0h-1zm186 2c-3 0-6 2-7 4 0 2 2 4 4 3l5-2 6-2c2 0 4 0 5-3 0-2-1-4-3-5-3 0-6 2-8 3l-2 2zm-14-3s0-1 0 0zm28-4v2h2l-2-2zm246 0c0 2 1 4 3 5 0-2 0-4-2-5h-1zm-437-1c0 2 3 0 1 0h-1zm511 1c0-1 0-4-2-4s-1 3 0 3l2 1zm-494-4c1 3 5 3 8 1 1 0 3 1 5-1 1-2-2-4-3-4-4 0-8 2-10 4zm18-6c-2-1-2 4 0 2v-2zm306 2c-1 2-1 4 1 5 0 3 0 5 2 7l4 3c0 3-3 5-3 7l2 6 2 8c-1 2 0 4 2 5l1 9c0 4 0 8 2 11 2 2 3 3 3 5 0 3 4 3 4 0 1-3 0-7-1-11v-5l-3-4-2-8-1-6v-6l-2-6-3-6 1-10c0-2 0-4-2-5-1-1-3 0-4 1h-3zm-86-3c2 2-1 4-3 4-1 0-4-2-5 0 1 3 4 3 5 2h8l7 3c2 0 4 0 5 2s2 4 4 2c1-2-1-3-2-4-1-2-1-4-3-5h-7l-6-3-3-1zm150-3 2 10c2 0 4 3 3 5s2 3 2 5c-1 2 0 4 1 5 1 2 0 5 2 7 1 1 3 2 2 4s-2 3-1 5c1 1 3 2 3 4 1 3 0 6-1 8l1 7 2 6c0 2 1 4 3 4 2 1 2-2 2-4l-1-8c-1-2-3-4-2-6 1-1 2-3 1-5-2-2-4-4-4-7l-1-6c1-2 0-4-1-6l-1-10-1-5c-2 0-5-2-5-4-1-2-1-4-3-5 0-2 1-5-1-5l-2 1zm94-2c-1 2 2 3 2 5 0 3 3 3 5 3 2 1 3-3 1-3-2-1-2-3-3-5s-3 0-5 0zm-494-1c0 2 4 1 3-1l-3 1zm478-2-1 6c3 4 2 10 6 14 2 0 1 4 3 4 1-1-1-3-1-4v-10l-2-5-4-5h-1zm-429-2-5 4-5 4c-2 0-4-1-5 1-1 1 1 3 3 3 4 1 8-3 13-3 2 0 4-2 4-4l-4-5h-1zm178 1h3-3zm283-1c-2 1 2 4 2 2l-2-2zm-110 2c3-1-3-3-1-1l1 1zm-162-3c-2 1 0 5 2 3 1-1-1-2-2-3zm5 2 6 2c-1 1 1 3 2 3h4l5 1c4-1 7 1 9 4 2 0 2 3 4 2 2 0 4-2 3-4l-4-8c0-2-3-2-4-2-2-1-4-3-7-2l-6 1-6 2c-2-1-4-2-5 0l-1 1zm-150 48-2 2c2 0 2-3 4-3l13-4 7-3c3 1 5 0 7-2s5-3 8-3l6-4c2 1 4-1 5-2 2-1 4 1 6-1 2-1 4-3 7-3 2 0 4-2 5-3 2-2 5-1 7-3 1-2 3-3 5-3l5-3 5-2c2 0 3-3 3-4 0-3 3-2 5-1 2 0 4-1 5-3l7-2c1-1 3-2 3-4s-3-2-4-2l-7 1c-1 0-3 0-4 2l-3 4-5 1-5 1-4 2-5 2-8 4c-2 1-5 2-7 0-1-1-4-1-4 1s0 4-2 5-4 1-5 3l-6 1-7 2-4 3c-1 1-3 0-5 2l-4 3c-4 1-9 1-12 4l-6 2c-1 1-2 4-4 4-3 1-5 0-7 2-1 2 1 4 3 4h4zm-66-53c2 2 4-2 2-3-2 0-3 2-2 3zm-20-6v2-2zm388 5c0 2 5 1 3-1l-4-5c-2 0-3 2-1 3l2 3zm-28-8v2-2zm138-1-2 2c1 2 5-1 2-2zm-494 3c-1-2-4 0-4 2v5c0 2-2 3-1 5 0 2 2 2 4 3h6c2-1 1-4 1-6 1-1 2-3 0-4-1-2-4-2-4-4 0-1 3-4 0-4-2 1-1 2-2 3zm215-2c-6 1-12 2-17 5-1 1-4 1-4 3 1 2 3 3 5 2 3-2 7-1 10-3l8-3c2-1 3-3 2-5 0-1-3-2-3 0l-1 1zm22-2c-2-1-4 1-6 1-2 1-1 4 1 4 2-2 5-2 8-1s6 3 10 3c-2-2-5-2-6-4 0-3-3-4-5-3-1 0-2-2-3-1l1 1zm236-2c-1 1-2 3-1 5 2 1 2 4 3 6l3 4c1 1 4 4 5 1 1-1-2-3-2-4 1-1-2-2-2-3l-4-7-2-2zm-370-2h1-1zm-58-3c-1 1-2 4-4 4-3 0-5-2-8-1-2-1-3 2-3 3-1 2-3 3-3 5-1 2 2 4 4 4l7-1 7-5c2 0 4-1 5-3s4-1 5-1c0-2-3-2-4-3l-6-2zm-33 6 2-3c2 1 4-2 2-3s-4 2-5 3-1 3 1 3zm12-11c-2-1-2 4 0 2v-2zm455-6h1-1zm-18-3c0 2 1 4 3 5s1 4 3 5c0 2 1 5 3 4s2-5-1-5c-2 0-3-2-3-4s-1-4-3-4l-2-1zm-378 18c0 2-3 2-5 3-2 0-4-1-6 1-1 2 0 4-2 5-2 0-4 0-5 2-4 1-7 0-10 2s-7 1-10 3c-2 2 1 4 2 4 2 1 3 2 4 1 1-2 3-2 5-1 2 0 4-3 7-2 2 0 4 0 6-2 1-1 3-3 5-2l6-2c2 1 5 3 6 0l2-4 3-4c1-1 2-3 4-2 2 0 4 0 6-2 1-1 0-4 2-5s4 0 6 1l5-2 4-2h6c0 2-1 4 2 5 2 0 4-1 5 2 1 2-2 4-4 4h-5l-10 2-5 5c0 2-2 4-4 2-2-1-4 2-5 3l-6 3h-7c-1 1-1 4-3 5l-11 3-6 2c-1 1-3 3-5 3-3-1-5-1-7 1-2 1-5 0-6 2s-4 2-6 4l-4 2c-3 0-5 3-7 2h-6l-7 2c-1-1-4-2-4 0-1 2-3 4-2 6s4 1 6 1c2 1 4 3 6 2s3-3 5-3l10-4 8-1c1-2 4-2 6-2h3c1-2 1-4 4-4 2 0 3-3 5-3 3 1 5 0 7-1 4-2 7-4 12-4 1 0 3-1 3-3 0-1-2-3 0-4s3 1 4 2 3 0 4-1c1-3 3-4 5-4 3 1 5-1 7-2l3-2c1-1 1-3 3-3 1-1 4 0 5-2 1-1 3-3 5-2l6-2c2 0 4 2 6 0l5-5c2-1 4 2 6 1 1-1 3-3 5-2l4-2 8-4c3-2 5-4 9-4 2 0 4 0 4-2 2-2 4-3 6-2l9-3 7-1 6-2-2-3-3-2h-6c-2 0-4-1-6 1l-9 4c-2 2-5-2-6 1-2 3-4 5-8 6-2 0-4-2-6 0l-6 3h-6c-2 1-4-3-2-4l5-4 2-2c0-2-2-4-4-3s-4 1-5 3c-1 1-4 1-5 3-2 2-4 1-6 2l-6 2c-2 0-3-2-5-4s-7-1-8 1c-2 2-3 4-6 5-2 1-4 3-7 3-2 0-4 1-5 3-2 1-4-1-6 1-1 1-2 3-4 2zm-36-21c-1-1-4-1-4 1l-4 5c-1 2 2 4 4 4s3-3 3-5c1-2 5-4 8-2l4 1c2 2 4 1 5-1 1-1 4-3 3-5l-5-4-7 2c-2 2-4 4-7 4zm215-6c2 1 4 1 5 3l8 4c3-1 2-4 1-5-4-3-10-3-14-2zm-161 2c-1-1-3-2-4-1 2 1 3 4 1 5-2 2-3-1-5-1s-3 2-4 3l-6 3c-2 1-4-1-6 1-1 2-3 2-5 2l-6 1c-2 1-4 1-3 3 1 1 4 4 5 2 0-2 1-4 3-4l7 3c2 0 4-2 4-4-1-2 2-4 3-2 1 1 3 2 4 0s3-2 5-2c3 0 6-1 7-4 0-2 2-3 3-5 2-1-1-4-2-2l-1 2zm262 10c3 2 5 6 8 7 2 2 5-2 3-2-3-2-3-4-4-6l-4-5-4-7c-1-2-4 0-3 1l5 10-1 2zM73 305c0 3-4 6-7 4l-3 3c-3 1-5 4-5 7 1 2 4 1 5 0 4-3 8-5 13-6 1-2 2-4 4-4 1-2 0-5-3-6l-4 2zm52-5 1 7c2 0 2-3 4-4l7-2c2-1-1-4-2-2h-7l-3 1zm172 1c2 2 5 4 8 4 1 0 5-1 3-2l-5-4c-2-1-3 2-5 1l-1 1zm-240-3c1 2 2 4 4 3h5c2 0 4-2 3-3-2-2-4-1-5-1l-7 1zm228 2c2-1 4 0 6 1 1 2 4-2 2-2-3-2-5-4-9-4-2 0-3 3-2 4l3 1zm-29-6v3c2 1 3 0 4-1 2-2-1-2-2-2h-2zm260-2c-2 0-4 2-2 3s2 4 2 6c1 2 3 4 2 6 0 2 3 3 4 5 2 1 1 5 4 4 2 0 3-4 1-6l-3-3-2-4-2-6c-2-1-4-3-4-5zm-50-1 2 5c1-2 0-5-2-5zm-130 9c3 3 8 3 10 7l7 5c1 1 4 0 4-2-1-3-4-4-7-5-2 0-4-1-4-3-1-2-1-5-3-6l-11-4c-1-1-3-2-4 0s1 5 4 4c2 0 3 3 4 4zM72 290c1 0 4 2 4-1h-3l-1 1zm477-3-2 2c-1-1-4-1-3 1 1 1 3 2 5 1v-4zm-323 12c0 2-2 4-4 3h-5l-3 3-7 1c-2 1-2 4-5 5-1 2 3 4 4 2h6c2-1 3 1 5 1l5-4 9-4 6-2c1-2 2-4 4-4l5-2c2 0 3-3 1-4-1-1-2-1-2-3 0-1 1-4-1-4h-13c-2-1-5-1-5 1-1 2-4 2-6 2-2-1-4 0-5 1-2 2-5 1-7 2-5 0-10 2-13 5-2 2-4 0-6 2 0 2-1 5-3 4l-6 2-5 4c-1 0-3 1-3 3-1 2 1 4 3 3s4-3 7-3c2 0 4-1 4-3 2-2 3-3 5-3 3-1 5-2 6-4 2-2 5-2 7-1 2 0 4-1 5-3l6-3c2 0 1-2 2-3 0-3 3-2 4-1 1 2 3 0 5-1l6-1 6-1 4 2c1 2 1 4-1 6l-6 1h-6c-1 0-2 4-3 1zm-124-11-4 5c0 1-4-1-3 1 2 2 1 4 0 5 1 1 3 0 5-1l2-3c0-2 1-3 3-3l4 2c3 0 4-2 6-4l5-5c-1-2-3-2-5-2s-4 1-5 3l-8 2zm187-4c7 5 15 6 21 11l12 5 4 5 9 6c2 1 5 1 7 3 1 1 3 3 5 3 1-1 0-3-1-4-1-3-4-6-7-6-2 0-4-1-5-3l-4-5-7-4-5-4c-4-1-7-3-10-6-2 0-5 2-7 1s-4-2-7-1l-4-2-1 1zm-25 4 7-3c3 0 6 3 10 2 1-1 5-1 3-3l-6-2h-7c-2-1-5-2-8-1l-6-2c-2 1-2 4 0 5l7 4zm-142-9c0 3 3 5 5 4 3 0 5-1 7-3l-7-4c-2 0-4 2-5 3zm346-4c0 2-3 3-3 5l5 4 4 5 4 10c-1 2 0 5 2 5l4 4c2-1 5 1 4 3 0 3 3 4 3 7 0 2-1 5 1 7s5 2 7 3 4-2 3-4l-4-3-4-6-2-5c-1-2-3-4-1-6 1-1 0-4-2-4l-4-3-5-5-7-10c-2-2-2-6-5-7zm-125-1v2c-2 0-1 4 1 2 1-1 0-3-1-4zm-121-1h-8c-2 3-6 4-9 3l-8 5-11 4-6 1c-1 2-1 4-3 4l-6 3c-1 1-2 3-5 2-2 0-4 3-6 4l-3 3c-2 1-1 4 1 5l6-3 7-4v-5h4l5-1h5c2 0 2-3 4-3l4-1c1-2 3-4 6-5h8c2-1 2-4 4-4l6-2h6c1 0 4 1 5-1 0-3 3-4 5-3h6c1-1 3-2 5-1h7l7-1 5-1 10 2c2 0 3-2 4-4 0-2-2-1-4-1h-6c-3 1-6 0-8-2l-6 2h-8l-7-2c-2 1-3 3-5 3-2 1-4 3-6 2-2 0-4-1-5 1zm102-6c1 2 4-1 2-1l-2 1zm-7-2-2 2c1 2 4-1 2-2zm-224-1c1 2 5 0 3-2-1-1-4 0-3 2zm176-4c2 2 5 1 8 2 0-2-3-3-4-3l-4 1zm76 2-6-3 6 3zm-65-2c2 1 4 3 6 2 1-2-2-3-4-3l-2 1zm-47-4c-1 2-4 0-5 0-5 2-10 2-15 2l-4 1-3 3c-2 1-4 1-5-1-2-1 0-3-2-5-1-1-3 0-3 2v7l-4 1-4 3c-3-1-5 1-7 3-1 1-2 2-4 1-1 0-3-1-4 1-2 0-4-2-6 0l-6 4c-2 1-5 1-6 3l-6 3-8 6-7-2c-2-1-4-2-6 0s0 6 3 5h6c3 1 4 4 5 6 2 1 3-1 4-3l4-3c1-1 3 0 5-2 0-2 1-4 3-5l6-1c2-1 5 0 7-2l5-6 6-1c4-1 8-4 13-4 2 0 4 0 5-2 2-2 5-1 7-3l7-1c2-1 4-2 6-1l11-2h13c1 1 4 0 5-2 3-2 6-1 9 0 2 0 5 0 5-2 1-2 0-3-2-3-5 0-9 3-14 2-1-1-3-2-4-1h-6l-4-1zm80-4c-2 2 1 4 3 4l5 2h5c2-1 0-3-2-4s-3-3-5-3l-6 1zm-14-4c0 2-4 2-2 3s4-2 2-3zm-88 3c2 1 4 3 6 1 1-1 2-4 4-3 1 1 3 1 4-1 0-2-4-1-5 0s-4 0-5-1h-4v4zm-119 2c2-2 3-4 2-7-2-1-3-3-6-3 1 2 2 4 1 6s1 5 3 4zm155-11c-2 2-3 4-5 4h-6c-2-2-5 1-4 3h6l7 2c1-2 4-2 6-1h26c1 1 3-2 3 0l1-4c0-2-2-3-4-2-1 1-2 3-3 2-2 0-4-2-5-1h-6c-2-1-4-1-6 1l-6-2c-1-1-2-3-4-2zm-144-4-4 5 2 6c3 0 2-3 4-4l6-3c1-1 0-3-1-5 0-2-3 0-4 1h-3zm111-1c2 2 4 3 7 3 2-2 0-5-2-5s-4 0-5 2zm-20-4c-1 2-4 3-7 3l-6 6c0 2 2 2 3 2l5-2 7-1 6-3c1-2-2-4-4-4l-4-1zm46 0-2 2h-6c-1-1-4-2-4 0 0 1 1 4 3 4l6-1 8-1 8 1h9l20 2c2 0 4-2 6-1l6-1c2-1 5 0 7 2 2 1 1-3 0-3-2-1-3-2-5-1-2 0-3 2-5 1l-6-3-7-2-6 2c-2-1-4-3-6-2l-9-1-8 2h-9zm198 8-6-8c-1-2-4-2-5-3-2 0-2 2-2 4l4 3 8 7c2 1 1 4 4 5 2 0 2 3 4 4l4 5 3 5c1 1 3 3 5 3s3 3 4 4c1 2 3 3 4 1l-2-4c-2-2-5-4-5-6l-7-7-8-8c0-2-3-2-4-4l-1-1zm15 5c2 1 3 3 3 5l5 4c3 4 7 7 12 9 1 2 1 4 3 5s2 4 3 5l4 5c2 4 5 7 8 9 0 2-2 4 0 6l2 6 5 4c2 1 2 3 3 5l4 4c2 1 3-1 3-3l-2-4-2-3-2-5c-2-5-7-8-9-14 0-2-3-3-4-6l-6-6-2-4-7-7-4-4-5-4-4-6-6-6-5-4c-2-4-6-5-9-7-1 0-3-2-3 0l9 8c1 1 1 4 3 4l5 4h-2zm-288-17c1 2 3 3 6 3 3 1 6-2 9-1 2 1 4-1 3-3s-4-4-6-4c-3 0-5 3-8 3l-4 2zm82-5h-3 3zm45 0c-1 2 2 3 3 4l12 4c1-1 4-1 4-3s-3-2-4-2l-12-3h-3zm-82-3-6 3c-2 0-4-2-6-1l-6-1c-2 1-4 2-4 4l5 3 14-1c3-2 7 0 10-1s6 0 9-2c2 0 4-3 1-4-3 0-5 0-7 2-1 1-3 1-4-1l-6-1zm-99-1c-2 1 3 3 1 1l-1-1zm164 2-6-3c-4 0-8 1-11-1l-13 1-6 1c-2 1-5 0-5 2 1 2 3 2 5 2l6-1 6 1h5c3 0 6 3 9 2h7l6-2 7 2c1-1 3-2 2-3 0-3-3-1-4 0-2 1-4 0-6-1h-2zm163-29v-1 1zm-290 2c0 2-3 2-2 3 2 0 2-3 4-3 2 1 4 3 6 2s3-4 5-4c0-2-2-2-4-3h-6l-5 1c-3 1-3 4-6 4l-5 5c1 2 4 3 4 5-1 3-4 4-6 5l-6 4c-2 1 1 4 3 3 2 0 3 2 5 1 3-1 5-4 8-4l6-3 5-2 5-1 8-2h11l5-5c-2-2-6-2-8-2-7 1-13 4-19 6l-7-1c-2-1-5-1-6-3-2-2 1-4 2-4l3-2zm293-19c-2 0-2 3-2 5 1 2 3 4 5 4 2 1 5 1 5 3 1 3 4 4 7 5 1 1 1 4 3 5l8 6c0 2 2 3 3 4l6 6c2 1 4 0 5 2 0 2 1 4 3 5 1 1 1 4 4 5 1 1 3 2 5 1s2-4 0-5c-1-2-4-2-6-3-2-2-2-5-5-6-2-1-3-3-6-3-2-1-2-4-3-6l-4-5c-1-2-4-2-6-4l-2-4-8-5-2-3-4-3c-2-1-3-3-5-3l-1-1zm-258-2c-1 1 1 3 2 3h6l6-3c1-2-3-4-4-2l-4 2h-6zm17-17-2 2c-2-1-4-2-6-1h-7l-14 1c-3 0-4 3-7 4-2 0-4 1-4 3 1 2 4 2 5 1h8c1-1 3-3 5-2l6-1 6-1h6c0-2 2-2 3-2 2 1 3 0 5-1 1 0 3 3 4 0l-3-2-5-1zm22 1c-2-2-5 0-4 2s3 1 5 0l6 1h12c2 1 3-1 5-1l5 1c2 0 4 2 6 1l7-1 13 2c1 2 4-1 5 1 2 1 4 0 5-1 3-1 6 1 9 2 2 1 5 0 7-1 2 1 5-2 2-2l-9-1h-6c-2-2-4-2-7-2l-8-1c-1-2-4-2-6-1l-7-2-5 2-6-2c-4 0-7 0-11 2h-13l-5 1zm291-6c-2 1 2 4 2 1l-2-1zm-268-9c0 2 4 0 1-1l-1 1zm176 70-5-4c-2-1 0-4-2-5l-7-1c0-2-2-2-4-2-2-1-5-2-6-5l-3-3-6-4-13-7c-2 2-3-1-5-1l-11-9-7-2-12-5c-5-2-10-3-14-7-2-1-4 2-6 0l-7-3c-4 0-7-3-11-3l-5-2-9-2-7-1-7-1-10-2-6-1c-2 1-4-1-6 1-1 2 1 3 3 1l6 1c2 1 3 3 5 3 5 0 10 2 15 4l15 1h5l9 4 9 3 7 4 7 2 8 4 8 5 9 3c2 2 4 3 7 3 4 1 7 3 9 6l6 2 5 4c2 1 2 4 4 4l5 3 14 7 5 5 6 4c0 3 2 3 4 4 3 2 6 4 10 4 2 1 2-3 0-2l-8-5-4-5zm-219-74-3 3c-2-1-4 0-5 1-4 2-8 1-12 1-2 2-4 2-7 2-2 0-5 0-8 2 1 2 4 3 6 3 1-1 4-2 5 0 2 1 4-1 4-3 1-1 3 1 5 1l7-2c2-2 5-1 8-1h13c3 0 4 3 7 3 2 0 3-3 5-3 1-2 3 1 5 0 2-2 1-4 0-6-1-1-3-4-5-2-2 0-2 3-5 3-2 0-3-3-5-2l-6 3-9-3zm339 140c-1 2 3 2 3 0-1-3-1-6-3-8-3-4-4-8-4-12-3-2-6-5-7-9 0-1-3-2-3-4l-4-2c-2 0-2-3-3-5-2-2-4-3-5-6-1-1-3-3-5-3-2-1-2-4-3-6l-2-5-7-7-6-7-4-4-1-2c-2-1-5-3-5-6-2-3-5-3-8-5l-9-7-4-5-6-4c-2-1-4-2-4-4-3-2-6-1-8-3-2-3-4-6-7-7-2-1-3-3-3-5l-4-5c-1-3-4-3-7-4l-6-2-6-5c0-3-5-1-3 1l4 4 6 6 5 2 9 8 4 5c4 2 6 7 10 9 3 2 6 4 10 4 2 0 3 2 4 3l5 5 4 3c1 0 3 1 3 3 1 2 4 3 4 6 0 2 3 2 4 3l10 9 4 5c2 1 2 4 4 6l2 4c1 2 1 5 3 6l5 5c1 1 3 2 3 4s2 3 3 5l4 5 4 5c2 1 3 4 4 6l7 7 3 6c1 3 3 6 6 7zM178 133c-2 2 4 2 2 1l-2-1zm151 3 11 4c1 2 4 0 6 1 5 1 9 5 14 7l6 2 7 1 9 6 5 1c3 1 6 1 8 4l10 8c2 0 4 0 5 2 2 3 6 4 9 5l5 6c2 1 4 2 4 4l5 5c1 3 4 4 6 6l6 6 7 5c2 3 5 6 9 8-1-1-4 0-1 1l6 2 4 4c4 3 5 8 9 10 5 4 11 6 15 11l4 4 4 4c2 2 4 4 4 7l5 5c3 4 6 9 10 12 1 1 1 5 3 5s3 2 3 4c0 3 3 5 3 8l2 6c1 2 4 2 4 4l4 5c1 1 3 3 3 5l1 4c2 1 4 1 5-1v-5c-2 0-4-1-5-3l-4-4-2-4c1-2 0-5-2-6l-4-4c-2-4-1-9-4-12l-2-6c-2-1-4-3-4-5l-5-4-7-9-2-5c-2-3-6-3-7-6l-3-6-17-10c-3 0-4-4-7-5-3-2-6-3-7-6l-10-10-5-4c-2-2-4-5-8-7l-6-1c-1-1 0-4 1-5 0-2-1-4-3-4-2-1-5-2-4-4l-5-4c-1-1-1-4-3-5l-8-3-11-7-6-3-4-4h-5c-2-1-2-4-4-4-3-1-6 0-8-2-1-2-2-4-4-4l-5-2-6-1-7-3-7-3c-1 2-3 1-4 0-1-2-3-3-6-4-2 0-5-1-6-3-3-2-6-2-9-2h-7c-1 0-2-2-3-1 1 2 1 4 3 5 2 0 4 0 5 2l6 3 1-1zm-80-18h3-3zm71-3 5 4c1 1 3 3 5 2 4 1 6 4 9 3 4 0 7 1 10 3l14 7c2-1 4 1 5 2 2 2 5 2 8 3 5 1 10 3 14 6l6 2 6 5 6 4 6 2c4 0 7 3 10 6l3 3c1 1 3 0 4-2s-1-3-3-3-5-1-7-3l-4-6c-1-1-3-2-5-1-3-1-3-3-4-4-1-3-4-4-6-6-2-1-5 1-8-1l-8-4-6-4c-2-1-5 0-6-2l-6-3-4-3-6-1c-1-2-4-1-6-2-3 0-5-2-7-3-1-2-3 0-5 0l-7-1c2 1 0-3-1-1-2 0-3-3-5-2-2 0-3 3-5 1l-2-1zm-53 2c-3-1-7-1-10-3-2-2-5 0-7 0l-6-1c-4-1-8-1-11-3-1 3-6 3-8 1-3-2-7-1-10 1h-6c-1-1-3-3-5-1h-5c-2 0-4 1-4 3s2 2 3 1l8-1c3-1 3 2 4 4h4l7 1c0-1 1-3 3-3 1 1 2 4 4 4 3 0 3-3 5-4s3 3 5 2l5-1 6 1 10 2 9 2 5 1h12c1-1 4 0 5 1 3 1 6 1 8 3 2 0 4 2 5 1 1-2-1-3-2-4l-6-1c-2-1-5 1-7-1s-4-5-7-6l-6 2-9-3 1 2zm215-13c0 2 3 4 4 3l-4-3zm-227-2c0 2 3 3 2 5 1 2 3 3 5 2l6-1c2 1 5 1 6-1l6 1c3 1 6-1 9 2 2 1 4-2 2-4-1-2-4-2-7-2l-13-2h-16zm201 40c0 2 2 3 4 4l8 4c3 1 4 4 5 6 2 2 4 2 7 3 2 1 2 3 3 5l7 6 14 12c3 2 5 4 6 7 2 2 3 5 6 6 2 1 3 4 4 6l5 4 3 5 8 11 4 5 4 5c1 1 1 4 3 4l4 6 8 5c2 1 2 3 0 4l-2 5c-1 3 2 3 4 3 2 1 4 4 7 4 3 1 0 4 2 5 2 0 2-3 2-4 0-3-1-6-3-8l-5-3-1-7-4-4-4-6-5-8c-4-2-5-6-6-10-2-3-7-4-8-8l-5-8-2-5-6-4c-1-1-1-4-4-4-2 0-4-2-5-4l-5-6c0-2-3-2-3-4l-4-4-13-9c-2-3-4-5-7-6l-15-13-7-4-3-4c-2-1-6-1-8-3l-5-4-4-5-11-6c-2 0-2-2-2-3l-9-5c-2 1-5 0-6-2 1-2-1-5-4-5-1-1-4 2-2 3 0 3 3 3 4 6 2 3 6 4 10 6 1 1 2 4 4 3l6 4 4 4 4 3 3 3 8 4c2 0 2 3 4 4l3 1zm-251-40c2 3 6 4 9 3l2-2c2 0 4 2 6 1s4 0 6 1c2-1 4-2 6-1s5 1 6-1c2 0 5 0 4-2l-9-3-5-1c-2-1-4-1-5 1h-14c-2-2-5-1-5 2l-1 2zm58-14c0 1-4 1-3 3 2 1 3-2 3-3zm4-2 3 1c0-1-2-2-3-1zm59-3c-1 1-1 4 1 5 1 0 5 1 4-2-1-1-4-1-5-3zm-100-2c-1 2-3 4-5 3 1 2 4 1 5 2l6 2c1-2 4-2 5 0 2 0 5-2 7 0 2 0 4 2 6 1 2-2 0-4-1-5-2-2-4-2-7-2s-7 0-10-2l-6 1zm58-1c0-2 3-1 4-3-1-2-3-2-5-2-1 1-2 3-1 4l2 1zm59-3h-2c1 2 4 2 6 3 4 0 7 2 10 4h7c1 1 3-2 4 0l4 5c5 2 11 3 16 6l5 2c1-1 4 1 5-1 0-2-2-3-4-3l-4-3c-1-2-4-2-6-3l-5-3c-2 1-4-1-6-2-1-2-3-4-5-3l-11-2c0-2-2-2-4-2h-8l-2 2zm-14-8c-1 2-4-1-4 2-1 2 0 4 2 4h4c1-2 0-4-1-5l-1-1zm207-2c0 2 2 3 4 3 2-2-1-3-3-3h-1zm-284 0c0 2-2 4-1 6l6 2h5c1-1 0-3-1-4-2-3-6-4-9-4zm-14-1c-1 2-3 3-5 2s-4 2-3 3l9 2c3 0 6 0 8-2 1-2-1-5-3-5h-6zm46-4c-2 1-2 4-1 6 3 0 3-4 5-2 1 1 4 3 5 1s3-1 5-1 0-3-1-2h-5l-5-2h-3zm-14 0c-1 1-4-1-4 1 1 2 4 2 4 0v-1zm66-3h2-2zm188-2c-1 2 4 1 1 0h-1zm-244-8c3 2 5 6 9 7s7-3 10-1 6 3 10 2h6c1 0 3 2 4 0s-2-3-4-3c-4-1-8-4-12-4l-6-1-10-1c-2 0-4-1-6 1h-1zm-10 5v-6c-1-1-3 0-4 1-2 2-4 1-6 1h-11c-2 1-1 5 1 4 3 0 7-1 9 1 2 1 5 2 7 0 1-1 3-2 4-1zm53-13c1 2 3 3 5 3 1-1 0-3-2-3h-3zm-40-4c0 1-1 1 0 0zm53-8 5 3c-1 2 1 3 3 4l9 3 3-2 14 8c2-1 3 1 4 2l6 3c2 1 4 0 4-2 1-2 0-5-2-5l-6-2c-5-4-11-2-16-6-1-1-3-3-5-3h-10l-5-2-4-1zm131 0 12 6 10 5 4 5c5 1 10 5 15 7l8 6c1 1 4 2 5 0 0-2-1-5-3-6l-5-1c-1 0-3-1-3-3l-7-6-10-6h2l-6-2-4-7-10-4c-2 0-4 0-5-2-2 0-3 2-5 4 2 1 2 3 2 5h2l-2-1zm-181-7zM439 8c1 2 1 4 4 4l6 2c1 1 4 0 3-2-1-1-4 0-5-2l-1-6c-1-2-4-3-5-1-2 1-1 3-2 5zm-29-6h4c0-2-4-3-4-1v1z"/>
</svg>