<svg xmlns="http://www.w3.org/2000/svg" xml:space="preserve" viewBox="0 0 613 460">
  <path fill="#005e5d" d="M0 0h613v460H0z"/>
  <g fill="#f2f2f2">
    <path d="m248.1 224.3-.9-.1h-.1l-14-4c-1.7-.5-2.7-2.3-2.2-4s2.3-2.7 4-2.2l5.7 1.6-7.9-8.2c-3.5-3.7-6.4-5.2-8.8-4.5-5.3 1.4-8.9 12.3-9.7 15.9a3.2 3.2 0 0 1-3.9 2.4 3.4 3.4 0 0 1-2.5-3.9c.4-1.8 4.3-18 14.3-20.8 4.9-1.3 10 .8 15.2 6.3 3.6 3.6 6.3 6.5 8.4 8.8l1-8.9a3.3 3.3 0 1 1 6.5.7l-1.8 15.9c.6 1.5.2 2.3-.3 3.2a3.3 3.3 0 0 1-3 1.8z"/>
    <path d="M211 271.4c-6 0-16.2-1-20.2-7.3-2.7-4.1-2.2-9.4 1.4-15.7 2.3-4.6 4.3-8.4 6-11.4l-9.4 2.1c-1.8.4-3.5-.7-3.9-2.5s.7-3.5 2.5-3.9l16.3-3.6c.9-.6 1.8-.9 3-.7 1.5.4 2.6 1.7 2.7 3.3l1 14.9a3.3 3.3 0 0 1-3 3.5 3.3 3.3 0 0 1-3.5-3l-.4-6.2-5.4 10.4-.1.2c-1.6 2.8-3.2 6.6-1.6 9 2.6 4 12.7 4.7 18.5 4.1 1.8-.2 3.4 1.1 3.5 2.9s-1.1 3.4-2.9 3.5c-.7.3-2.3.4-4.5.4z"/>
    <path d="M242 278.2c-1 0-1.9-.4-2.6-1.2l-9.8-12.4a3.6 3.6 0 0 1-.2-6.5l13-7c1.6-.9 3.6-.3 4.4 1.3.9 1.6.3 3.6-1.3 4.4l-5 2.7 11.5.2h.1c3.2.1 7.3-.2 8.7-2.7 2.4-4.1-1.6-13.4-4.6-18.3a3.3 3.3 0 1 1 5.5-3.5c1 1.6 9.9 16.2 4.7 25-2.5 4.2-7.4 6.2-14.6 6-5.2 0-9.5-.1-12.9-.3l5.5 7c1.1 1.4.9 3.5-.5 4.6-.5.5-1.2.7-1.9.7z"/>
    <path d="m567.1 234.3-.9-.1h-.1l-14-4c-1.7-.5-2.7-2.3-2.2-4s2.3-2.7 4-2.2l5.7 1.6-7.9-8.2-.1-.1c-2.1-2.4-5.2-5.1-7.9-4.4-4.7 1.2-8.4 11.3-9.5 16-.4 1.7-2.1 2.8-3.9 2.4s-2.8-2.1-2.5-3.9c.4-1.9 4.4-18.3 14.2-20.8 4.7-1.2 9.5.9 14.4 6.3 3.6 3.6 6.3 6.5 8.4 8.8l1-8.9a3.3 3.3 0 1 1 6.5.7l-1.8 15.9c.6 1.5.2 2.3-.3 3.2-.6 1-1.8 1.7-3.1 1.7z"/>
    <path d="M530.1 281.4c-5.8 0-15.7-1-19.8-7.1-2.8-4.1-2.5-9.4.9-15.8l5.9-11.3-8.3 1.9c-1.7.4-3.5-.7-3.9-2.4s.7-3.5 2.4-3.9l15.3-3.6c.9-.6 1.9-1 3-.7 1.5.4 2.6 1.7 2.7 3.3l1 14.9a3.3 3.3 0 0 1-3 3.5 3.3 3.3 0 0 1-3.5-3l-.4-6.2-5.4 10.4c-2.2 4.1-2.6 7.2-1.3 9.2 3 4.5 14.3 4.5 18 4.1a3.1 3.1 0 0 1 3.5 2.9 3.1 3.1 0 0 1-2.9 3.5c-.5.2-2.1.3-4.2.3z"/>
    <path d="M562 288.2c-1 0-1.9-.4-2.6-1.2l-9.7-12.4c-1-.5-1.8-1.3-2.1-2.5-.4-1.6.4-3.2 1.8-3.9l11.9-7c1.6-.9 3.5-.4 4.4 1.2s.4 3.5-1.2 4.4l-4.7 2.7 11.1.2h.1c3.2.1 7.3-.2 8.7-2.7 2.4-4.1-1.6-13.4-4.6-18.3a3.3 3.3 0 1 1 5.5-3.5c1 1.6 9.9 16.2 4.7 25-2.5 4.2-7.4 6.2-14.6 6l-11.9-.2 5.5 7c1.1 1.4.9 3.5-.5 4.6-.4.4-1.1.6-1.8.6z"/>
    <path d="M102.2 363.3a5 5 0 0 1-1.2-.2l-13.8-2.9c-1.8-.4-2.9-2.1-2.5-3.9s2.1-2.9 3.9-2.5l6.1 1.3-8.2-8.9c-3.3-3.3-6.1-4.6-8.3-3.9-4.6 1.4-8 10.7-9.1 16.3-.3 1.8-2 2.9-3.8 2.6s-2.9-2-2.6-3.8c.4-1.9 3.8-18.3 13.6-21.3 4.7-1.4 9.8.4 14.9 5.6l8.5 9.3 1-8.3a3.1 3.1 0 0 1 3.6-2.8c1.8.2 3.1 1.8 2.8 3.6l-1.8 15.2c.4 1.1.4 2.2-.4 3.3-.6.8-1.6 1.3-2.7 1.3z"/>
    <path d="M65 411.4c-6 0-16.2-1-20.2-7.3-2.7-4.1-2.2-9.4 1.4-15.7a257 257 0 0 1 5.9-11.3l-8.3 1.9c-1.7.4-3.5-.7-3.9-2.4s.7-3.5 2.4-3.9l15.3-3.6c.9-.6 1.9-1 3-.7 1.5.4 2.6 1.7 2.7 3.3l1 14.9a3.3 3.3 0 0 1-3 3.5 3.3 3.3 0 0 1-3.5-3l-.4-6.2-5.4 10.4-.1.2c-1.6 2.8-3.2 6.6-1.6 9 2.6 4 12.7 4.7 18.5 4.1a3.1 3.1 0 0 1 3.5 2.9 3.1 3.1 0 0 1-2.9 3.5c-.6.3-2.2.4-4.4.4z"/>
    <path d="M96 418.2c-1 0-1.9-.4-2.6-1.2l-10-12.7a4 4 0 0 1-1.7-2.1c-.4-1.4.1-2.9 1.3-3.8l.3-.2.1-.1 13-7c1.6-.8 3.6-.3 4.4 1.3.9 1.6.3 3.6-1.3 4.4l-5 2.7 11.4.2h.1c3.2.1 7.3-.2 8.7-2.7 2.4-4.1-1.6-13.4-4.6-18.3a3.3 3.3 0 1 1 5.5-3.5c1 1.6 9.9 16.2 4.7 25-2.5 4.2-7.4 6.2-14.6 6-5.2 0-9.5-.1-12.9-.3l5.5 7c1.1 1.4.9 3.5-.5 4.6-.4.5-1.1.7-1.8.7z"/>
    <path d="m397 191-3 2c-.6 1.1-1.2 2.1-2 3v1h-2a3 3 0 0 0-2 3c0 .5 0 1 .2 1.3 0 .4.2.7.4 1l.7.5a1.6 1.6 0 0 0 .7.2h1l1 1v1a15 15 0 0 1 2 4l4 1c1 0 2-1 2-3v-1l1-1v-1h1l1-1c2-1 2-4 0-5h-1l-1-2h-1v-1l-1-1c0-2-1-3-2-3zm-20.4 2h-.6a59.7 59.7 0 0 0-26 5l-4 2c-.7.7-1.1 1.7-1.3 2.9a3 3 0 0 0-.7 2.1l1 5 1 2v1h1v1l-1 1c-.1 1.4.2 2.8 1 4v2l1 3h1v1l1 4 2 5v8c.2 2.9 1.2 5.7 3 8l5 1h14c5.6-1 10.3-3.6 13.4-7.2 1-.4 1.6-1.3 1.6-2.8a48 48 0 0 0-2.9-13.6c.2-.8.1-1.6-.1-2.4l-1-2v-3a8 8 0 0 0-1-4l-1-1v-1l1-4v-5l1-3-1-2-.6-1.9c-.1-1-.4-2-1-2.8l-.4-1.3c-.7-.4-1.3-.5-1.8-.4a8.7 8.7 0 0 0-3.6-.6zm-4.1 4.8 4.5.2h1v1h-1l-3 2h-1c-1.9.9-3.9 1.6-6 2l-4 1h-2l-2 1h-8l-1-1 2-1 1-1a49 49 0 0 1 13-3l1-1h1l4.5-.2zm23.7 1.9.7.7-.7.9-.2-.3-.4-.6.6-.7zm-17.2 5v2c-.4.2-.7.7-1 1.3h-1l-2 1-2 1c-3 .9-6 1.5-9 2h-5l-7 .9-.4-2 3.4.1c3.7-.5 7.4-1.1 11-2l10-3c1-.3 2-.8 3-1.3zm-1.8 9.8.2.8-1.4.7-1 1h-1c-3.3 1-6.6 1.7-10 2h-1l-3 1h-4l-3-1-1 .5v-1.6l16-.9c3-.6 6.2-1.2 9.2-2.5zm34.9 0c-2 0-4 .2-6.1.5a5 5 0 0 0-5.1 4.9l.1 1.1.3.7-.3.3h.5l.2.3-1.7 1.7v1a10 10 0 0 0-2 4c-2.2 7.8-3.6 15.9-4 24v9l1 1h-1l1 1v1l1 3c1 2 5 3 7 3 6.5 1.9 13.2 3.3 20 4 .8 0 1.5-.6 1.8-1.7l.2-.3 1-2 1-1 2-1 1-2 2-10 2-11v-5h1v-5l1-4-1-2v-5l-.2-.3c.4-.8.5-1.7.2-2.7l-5-4a46.7 46.7 0 0 0-17.9-3.4zm1.4 5.3 3.5.2h-4l-1.7 1.1-.3-.1h-1l-1-1h1l3.5-.2zm5 .5c3.3.6 6.5 1.5 9.5 2.7v.4c-.7.2-1.3.5-2 .6h-2v-1h-1l-3-2-1.4-.7zm-38.9.3.4.4-8 4-1 1h-3l-1 1c-3.7.5-7.3.5-11 0h-.5l-.5-2-.2-.6 5.2.6 9-1c3.7-.7 7.3-1.5 10.6-3.4zm26.5 4.1 5.4 1.8.5.5 3.3.8 2.2.7c.4.3.9.5 1.5.5 3.6 1 7.3 1 11-.5v.5l-4 1h-1c-3 .5-6 .5-9 0l-10.6-3.8.7-1.5zm-26.3 2.5-.8.8a24 24 0 0 1-6 3l-1 1h-1a43 43 0 0 1-13.5 3l-.5-2-.2-1H369c4.1-.8 7.5-3 10.8-4.8zm22.9 3.5a47 47 0 0 0 27.2 4.8l-.9 4.5-1 9v3a80 80 0 0 1-3 11 76 76 0 0 1-8-1h-1c-4.1-.5-8.1-1.5-12-3h-2l-2.8-1.9.8-15.1a72 72 0 0 1 2-8l.7-3.3zm-20.4 1.5.2.8h-.5l-1 1c-.9.8-1.9 1.4-3 2h-1a49 49 0 0 1-13 4h-6.7c8.5-.2 17.7-2.6 25-7.8zm.7 7v1.3l-1 1.5c-1.3.8-2.6 1.5-4 2-1.6.8-3.3 1.5-5 2h-1c-3.3.4-6.7.4-10 0h-3l-1-1a53.4 53.4 0 0 0 25-5.8zm-6 19.8-3 2v2l-1 1v1l-1 1h-1l-2 3a6.6 6.6 0 0 0 .8 1.2l.7.5c.5.3 1 .3 1.5.3 1.1.9 2.1 1.9 3 3l2 2c0 1 2 2 3 1l2-2v-3l1-1 1-1c1.2-1.1 1.3-3 .1-4.2l-1.1-.8-3-3v-1c-1-2-2-2-3-2zm24 5.2a57 57 0 0 0 20.8 4l-.6.6A144 144 0 0 1 402 265h-1v-.8zm-23.5 3.5.7.5-.6 1-.8-.8.7-.7z" class="st1"/>
    <path d="m77.5 68.3-3 2c-.6 1-1.2 2-2 3v1h-2a3 3 0 0 0-2 3l.1 1.3.5.9.6.6a1.6 1.6 0 0 0 .8.2h1l1 1v1a15 15 0 0 1 2 4l4 1c1 0 2-1 2-3v-1l1-1v-1h1l1-1c2-1 2-4 0-5h-1l-1-2h-1v-1l-1-1c0-2-1-3-2-3zM57 70.2h-.6a59.7 59.7 0 0 0-26 5l-4 2c-.7.7-1.2 1.8-1.4 3a3 3 0 0 0-.6 2l1 5 1 2v1h1v1l-1 1c-.1 1.4.2 2.8 1 4v2l1 3h1v1l1 4 2 5v8c.2 3 1.2 5.7 3 8l5 1h14c5.6-.9 10.3-3.6 13.3-7.2 1.1-.3 1.7-1.3 1.7-2.8a48 48 0 0 0-3-13.6c.2-.8.2-1.6 0-2.3l-1-2v-3a8 8 0 0 0-1-4l-1-1v-1l1-4v-5l1-3-1-2-.7-2c0-1-.4-2-1-2.8l-.3-1.2c-.8-.4-1.4-.5-1.9-.4a8.7 8.7 0 0 0-3.5-.7zm-4 4.9 4.5.1h1v1h-1l-3 2h-1c-2 1-4 1.6-6 2l-4 1h-2l-2 1h-8l-1-1 2-1 1-1a49 49 0 0 1 13-3l1-1h1l4.5-.1zm23.7 1.8.6.8-.7.8-.1-.3-.4-.6.6-.7zm-17.2 5v2c-.4.3-.7.7-1 1.4h-1l-2 1-2 1c-3 .9-6 1.5-9 2h-5l-7 .8-.5-2 3.5.2c3.7-.5 7.4-1.1 11-2l10-3 3-1.4zm-1.9 9.8.3.9-1.4.6-1 1h-1c-3.3 1-6.6 1.7-10 2h-1l-3 1h-4l-3-1-1 .5v-1.5l16-1c2.9-.5 6.1-1.1 9.1-2.5zm35 .1c-2 0-4.1.2-6.1.4a5 5 0 0 0-5.1 5v1l.4.7-.3.3h.5c0 .2 0 .3.2.4l-1.7 1.6v1a10 10 0 0 0-2 4c-2.2 7.8-3.6 16-4 24v9l1 1h-1l1 1v1l1 3c1 2 5 3 7 3 6.5 2 13.2 3.3 20 4 .7 0 1.5-.5 1.8-1.7l.2-.2 1-2 1-1 2-1 1-2 2-10 2-11v-5h1v-5l1-4-1-2v-5l-.2-.3c.4-.8.5-1.7.2-2.7l-5-4a46.7 46.7 0 0 0-18-3.5zm1.4 5.3 3.5.1h-4c-.6.3-1.2.7-1.7 1.2l-.3-.2h-1l-1-1h1l3.5-.1zm5 .4c3.3.7 6.4 1.5 9.5 2.7v.4l-2 .6h-2v-1h-1l-3-2zM60 98l.5.3-8 4-1 1h-3l-1 1c-3.7.5-7.3.5-11 0H36l-.5-2-.2-.5 5.2.5 9-1c3.6-.7 7.3-1.4 10.6-3.3zm26.6 4 5.4 1.8.5.5c1 .4 2.1.6 3.3.8l2.1.7c.4.3 1 .5 1.6.5 3.6 1 7.2 1 10.9-.5v.5l-4 1h-1c-3 .5-6 .5-9 0l-10.6-3.7.8-1.5zm-26.3 2.5-.8.8a24 24 0 0 1-6 3l-1 1h-1a43 43 0 0 1-13.6 3l-.4-2-.3-1h12.3c4-.8 7.5-3 10.8-4.8zM83 108a47 47 0 0 0 27.3 4.7l-1 4.5-1 9v3a80 80 0 0 1-2.9 11c-2.7-.1-5.3-.4-8-1h-1c-4.1-.5-8.1-1.5-12-3h-2l-2.8-1.8.8-15.2a72 72 0 0 1 2-8zm-20.4 1.4.3.8h-.5l-1 1c-1 .8-2 1.4-3 2h-1a49 49 0 0 1-13 4h-6.8c8.6-.2 17.7-2.6 25-7.8zm.8 7.1v1.2l-1 1.5c-1.3.8-2.6 1.5-4 2-1.6.8-3.3 1.5-5 2h-1c-3.3.4-6.7.4-10 0h-3l-1-.9a53.4 53.4 0 0 0 25-5.8zm-6 19.7-3 2v2l-1 1v1l-1 1h-1l-2 3a6.6 6.6 0 0 0 .7 1.2c.3.3.5.5.8.6.5.2 1 .2 1.5.2l3 3 2 2c0 1 2 2 3 1l2-2v-3l1-1 1-1c1.2-1 1.3-3 0-4.1-.2-.3-.6-.6-1-.8l-3-3v-1c-1-2-2-2-3-2zm24 5.3c6.6 2.6 13.6 4 20.8 4l-.7.6a144 144 0 0 1-19.2-3.8h-1zm-23.6 3.4.7.6-.6.9-.7-.7.6-.8z" class="st1"/>
    <path d="M516 400.2c-1 0-2-.4-2.8-1.1a113.4 113.4 0 0 1-16.6-18.7c-6.2-9-21.2-35.8-16.6-52.3 1.4-5.1 4.6-8.8 9.3-10.9 5-2.1 9.8-1.9 14.1.5 7.9 4.4 12.3 15.4 14.6 23.5 6.7-8.5 18-20.4 27.8-19.2 3.5.4 8.2 2.6 11.1 10.5 10.9 27.6-36.3 65.1-38.3 66.7-.8.7-1.7 1-2.6 1zM496.1 324c-1.1 0-2.2.3-3.5.8-2.4 1-3.8 2.8-4.6 5.5-3.1 11.2 7.3 33.6 15.4 45.3 3.8 5.3 8.1 10.3 12.8 14.9 13.6-11.4 39.7-38.1 33-54.9l-.1-.1c-1.2-3.2-2.6-5-4.3-5.2-6.3-.8-18.9 13.3-25.4 23.1a4.3 4.3 0 0 1-4.3 1.8 4.2 4.2 0 0 1-3.2-3.4c-1-6-5.1-22.6-12.6-26.7a5 5 0 0 0-3.2-1.1z" class="st1"/>
    <path d="m380.7 407-1.4-.2c-3.2-1.1-4.5-5.3-4.5-14.7 0-13.3-7.7-19.4-7.7-19.4l-5-1c-8.1-2-13.7-5.3-16.7-9.7l-10.1-16.1c-.9-1.5-.5-3.4.9-4.4.3-.2 8.6-6 23.1-.4h.1c4.9 2.1 8.8 6.2 11.7 10.5a33.2 33.2 0 0 1 9.9-20c15.2-13 26.6-9.8 27-9.6 1.6.5 2.6 2.1 2.3 3.8l-5 25c-1.5 6.4-6.8 12.1-15.7 17.1a78.3 78.3 0 0 1-8 3.8l3.8 31.1a3 3 0 0 1-.7 2.4c-1 .9-2.5 1.8-4 1.8zm-37.9-61.5 8 12.8c3.3 4.9 12.5 7.2 18.6 8.1l-.5-4.6c-1.9-5.4-6.4-12.3-12-14.7a23 23 0 0 0-14.1-1.6zm34.4 14 1.2 6.2c7.1-2.8 18.6-8.7 20.4-16.4l4.3-21.4c-3.5.2-9.9 1.6-18 8.6-6 5.1-8.7 15.9-7.9 23z" class="st1"/>
    <path d="M84 204.5c-3.4 0-7.1 1.5-9.3 4.7a12.7 12.7 0 0 0-11.9-.7 13.6 13.6 0 0 0-5 4.5c-2-1.1-4.3-1.8-6.6-1.8a11 11 0 0 0-10.5 7.5c-4.4.2-7.6 1.7-9.4 4.5-2.3 3.6-1.4 8.2-.4 11.2-3.5 2.2-6 6.3-4.8 11.6.8 3.7 3.2 6.5 6.2 7.7-.2 2.7.1 6.4 2.6 9 2 2.3 5 3.2 8.9 2.9 1.5 3.9 3.9 6.4 6.9 7.4.9.3 1.9.4 2.9.4 2 0 4.2-.6 6.4-1.7 1.8 20-1.2 24.1-1.9 24.8-.2.3-.4.3-.7.3a3.3 3.3 0 1 0-.7 6.5h.8a8 8 0 0 0 5.2-2.1c4.2-4.2 5.4-14.5 3.7-31.5l-.1-.8-.1-.6a27.1 27.1 0 0 0-7.2-15.2l-.9-1.1c.7-.4 1.3-.9 1.8-1.5l6.8 6.8c.7.7 1.7 1 2.7.9 1-.2 1.9-.7 2.4-1.6l8-13.3 2.7 1.1a130.2 130.2 0 0 0-9.7 21.3c0 .3-.6 7-.4 14.4.4 14.4 3.2 18.5 5.3 20.4a7 7 0 0 0 6 1.6c1.7-.3 2.9-2 2.5-3.8-.3-1.7-2-2.9-3.8-2.5-.2.1-.2 0-.4-.1-2.6-2.3-3.5-13.4-3.1-24.2 6 1.2 10.7-2 13.5-5.5a14 14 0 0 0 12.1-3.6c5.2-5 4-11.9 2.5-16.2a11.6 11.6 0 0 0-2.9-19.3 14.4 14.4 0 0 0-4.6-13.6 9.4 9.4 0 0 0-6.7-2.5 9 9 0 0 0-7.4-6.1l-1.4-.2zm-.3 6.5.8.1c1.1.2 2.8.9 2.5 3.6-.2 1.2.4 2.4 1.5 3.1 1.1.6 2.4.6 3.5-.1 1.3-.9 2.6-.2 3.5.5a8.3 8.3 0 0 1 1.7 9.5 3 3 0 0 0 .1 2.9c.5.9 1.4 1.5 2.4 1.6 2.4.3 4.2 1.9 4.7 4.1.5 2.3-.7 4.5-3.1 6a3.2 3.2 0 0 0-1.2 4.1c2.3 4.9 2.3 8.9-.1 11.2-2.1 2.1-5.6 2.5-7.5 1.5a3.3 3.3 0 0 0-4.4 1.5c-.3.6-3 5.5-8.2 4.3a75 75 0 0 1 9.6-19.1c.3-.1.6-.3.8-.6a3.3 3.3 0 1 0-.7-6.5c-7.7.8-11.7-5.2-11.9-5.5-1-1.5-3-1.9-4.5-1-1.5 1-2 3-1 4.5.1.2.9 1.4 2.3 2.8l-6.2 10.3-5.5-5.5.3-1.8c.2-1.8-1-3.4-2.8-3.7-1.8-.2-3.4 1-3.7 2.8-.2 2-.9 4.5-2.5 5.2-1.8.8-5.1-.7-6.4-1.5-1.5-1-3.5-.6-4.5.9s-.6 3.5.9 4.5c.5.3 3.4 2.2 6.9 2.7l.4.6 2.5 3.1c3 4 4 5 4.8 7.9-2.2 1.7-4.4 2.5-5.8 2-1.5-.5-2.7-2.5-3.6-5.7a3.2 3.2 0 0 0-3.8-2.3c-2.8.6-4.8.4-5.7-.5-1.3-1.4-.9-4.9-.5-6.4.3-1 0-2.2-.7-3a3.2 3.2 0 0 0-2.9-1.1c-1.6.3-2.8-1.4-3.2-3.1-.2-1.2-.5-4.3 3.6-5.5 1-.3 1.7-1 2.1-1.9a3 3 0 0 0-.1-2.8c-1-1.9-2.3-6-1.2-7.8.7-1.2 2.9-1.7 6.1-1.5 1.6 0 3-1 3.4-2.5.8-3.1 2.3-4.8 4.5-5 2.5-.3 4.9 1.3 5.2 2 .3 1.6 1.9 2.6 3.5 2.4a3.2 3.2 0 0 0 2.9-3.2c0-1.2 1.2-3.6 3.3-4.6 2.9-1.4 6.2.4 8.4 2.2.9.7 2 .9 3.1.5s1.9-1.3 2.1-2.4a4.6 4.6 0 0 1 4.3-3.8z" class="st1"/>
    <path d="M261.5 63.6c-.5 0-1 .1-1.5.4l-2 1h-1c-2.6 1-5.3 1.7-8 2h-3l-15 2-7.5 3.4c-1 0-1.9.4-2.5 1.6l-13 24c-5.8 10-12.1 19.7-19 29l-5 5v1.7c-.5.6-.6 1.7 0 2.3 1 2 2 2 3 1l.4-.2-.4 1.2-1 1 .2.6-.2.4a5 5 0 0 0 1 5l1 .2v.8c3.1 3.1 7.8 4.3 12 3l12-6 11-5 3-1 1-1h1c4.2-1.8 8.5-3.1 13-4h2c1.2-.3 2.2-1 3-2l3-6c4.6-9 10.3-17.4 17-25l10-11 2-3 2-4-2-3-3-3h-.8c-.3-1-1-2-2.2-2l-3 .4c-.2-1.8-1.2-3.4-3-3.4l-3.6.5L264 67c0-2.3-1.1-3.4-2.5-3.4zm-4.9 7.1-.3.7c-.8.4-1.2 1.1-1.3 2.1-.9 1.6-2 3-3 4.5l-1 2h-1l-1 1-12 16c-3.7 6.3-6.7 13-9 20h-2l-6 2c-9.2 3.2-18.4 6.7-27.3 10.6L204 114c8-12 15.2-24.5 21.7-37.4l1.3-.6h1a28 28 0 0 1 7-2l2-1h1l16-2c.9 0 1.8-.1 2.6-.3zm9.5 8.3h1l-5 7 4-7zm6.2.9L274 81l.5.5L271 85l-6.4 7.2L267 89l5.3-9.1zM242 82c-2 0-3 0-3 2l-1 1v1h-1l-1-1a3 3 0 0 0-4 0l-.8 2.4L230 85c-1-2-3-2-5 0l-5 5a50.9 50.9 0 0 0-3 5c-1 1-1 3 1 3 1 1 2 1 3-1l1-1 1-2h1v-1l2-2 .8-.4.2.4 1 3 2 2 3-1 2-3v-1.5l1 .5h4c2-1 3-4 4-6l-2-3zm-14 6h1l-1 .5V88zm23 13.8-1 1.5v-.3l1-1.2zm-2.4 3.6-8.3 12.1c2-3.6 4.3-7.2 6.7-10.5l1.6-1.6zm2.1 5.6a119 119 0 0 0-6.7 13l-1 1.5c-.2-.5-.5-1-1-1.5l1 1v-2h1v-1l1-2 5.7-9zm-11.9 9.2-.8 1.8c-.4.9-.7 1.9-.6 2.9L216 132c-2 .6-4 1.2-6 2l-4 3h-2v1h-1l-3 1-5 2h-.6l19.6-9h1l1-1c2.6-.8 5.3-1.4 8-2l9-3 3-2 2-2v-1l.8-.8z" class="st1"/>
    <path d="M190 319.7c-1.3 0-2.5 0-3.7.3l-.4.1c-6.7 2.2-8.2 7.1-8.2 10.9-.4 5.6 1.7 8.6 3.5 10.2a13 13 0 0 0 9.7 2.4l3.8 3.8.4.3a21 21 0 0 0-4.3 8.8c-.2 1.3.4 2.6 1.5 3.3l.8.5c-2.3 2.6-6 7.7-4.9 12.6.5 2.3 2.3 5.4 7.8 7.1 2.7.9 7 .6 11.9-5.9a39 39 0 0 0 3.2-5 41.6 41.6 0 0 0 30.7 0c.2 3.4 1.2 8.4 5 10.8 1.2.7 2.6 1.1 4.1 1.1 2 0 4.1-.7 6.4-2.1a7 7 0 0 0 3.8-3.6c1.5-3.2 1.1-7.8.3-11.4 2 .9 4.1 1.4 5.7.9a4.3 4.3 0 0 0 2.7-2.4c2.3-4-1.2-8.5-5.5-11.7a43.7 43.7 0 0 0-38.4-18.8h-.3c-5.6.5-10.9 2-15.8 4.3l-6.2-9.8-.1-.2a18 18 0 0 0-13.6-6.5zm-.7 6.2c3.4 0 7 1.5 9 3.9l6 9.4c-1.5 1-3 2.1-4.4 3.3l-.4.4-.2-.2-5-5c-.6-.6-1.4-.9-2.3-.9l-.8-.1c-1 .3-4.2.7-5.8-.7-1-.8-1.4-2.4-1.2-4.8v-.3c0-2.6 1-3.9 3.6-4.8l1.5-.2zm35.3 12.6-.7 7.5-7.1 4.3-10.2-4.7a38.7 38.7 0 0 1 18-7.1zm6.5 0c5.6.4 10.4 1.7 14.7 3.9l-8 8-7.2-4.3-.2-.1.7-7.5zm20.3 7.5c2.3 1.9 4.4 4.1 6.6 6.7l-.7.8-2 1.2-6.3-6.3 2.4-2.4zm-49.8 4c.3.4.7.7 1.1.9l1.4.7-3 5.9-3.2-1.9c.6-1.4 1.7-3.4 3.7-5.6zm42.9 3 5 5c-1.6 1-3.2 1.8-4.7 2.6l-2.3-5.6 2-2zm-20.4.7 1.8 11.7c-2.1 0-4.3-.3-6.5-.8v-.2l.8-8.4 3.9-2.3zm6.5.1 5.8 3.5 2.4 6c-2.1.7-4.3 1.3-6.5 1.6v-.3l-1.7-10.8zm-20.5.6 3.6 1.6-.7 6.9-6-2.4 3.1-6.1zm44.4 8.3c1 3.3 1.7 8 .8 9.8l-.3.4-.6.3c-1.9 1.1-3.5 1.5-4.2 1.1-1.5-.9-2.1-5.4-2-8.1l6.3-3.5zm-55.5 1 6 3c-2.3 4.3-5.5 7.7-7 7.2-1.1-.4-3.1-1.2-3.4-2.4-.5-2 2.2-5.6 4.4-7.8z" class="st1"/>
    <path d="M351.7 73.6a16 16 0 0 0-3.4.3l-.4.1c-6.7 2.2-8.2 7.1-8.2 10.9-.4 5.6 1.7 8.6 3.5 10.2 3 2.5 7 2.6 9.4 2.4l2.8 3.5.9.8c-3.1 4.5-4.3 8-4.4 8.2-.5 1.4.1 3 1.4 3.8l.8.5c-2.2 2.6-5.7 7.8-4.5 12.7.5 2.3 2.2 5.3 7.3 7 .8.3 1.5.4 2.3.4 6 0 11.3-7.5 13.6-11.2 5.8 1.9 11 2.7 15.7 2.7 5.6 0 10.6-1.1 15.2-2.9.3 3.5 1.2 8.5 5.1 10.9 1.2.7 2.6 1.1 4.1 1.1 2 0 4.1-.7 6.4-1.9a6.9 6.9 0 0 0 3.7-3.6c1.5-3.4.6-8.2-.4-11.8 2.3 1.2 4.6 1.9 6.5 1.3a4.3 4.3 0 0 0 2.7-2.4c2.2-3.8-1-8.3-5.1-11.4a43.8 43.8 0 0 0-38.8-19.3h-.2c-5.5.3-11 1.7-16.1 4l-6.9-9.5c-2.4-4.5-8-6.8-13-6.8zm-.5 6.3c3.4-.1 6.8 1.3 7.9 3.5l.3.5 6.5 9a45.4 45.4 0 0 0-5 3.6l-.2.2-.2.2-4-4.9a3 3 0 0 0-2.5-1.2h-.8c-1 .3-4.2.7-5.8-.7-1-.8-1.4-2.4-1.2-4.8V85c0-2.7 1-4 3.6-4.9l1.4-.2zm41 12.6c6 .4 11.1 1.7 15.7 4l-7.6 7.6-7.9-4-.2-.1v-7.5zm-6.4.1v7.4l-7 4.2-11-4.7a40 40 0 0 1 18-6.9zm27.6 7.6c2.3 1.8 4.5 4 6.6 6.7l-.5.6-2.3 1.3-6.2-6.2 2.4-2.4zm-50.7 4 1 .7 2.1.9-3.2 5.8-3.5-1.9c.8-1.5 2-3.4 3.6-5.5zm43.9 2.9 5 5-4.6 2.4-2.1-5.7 1.7-1.7zm-14.2.4 5.9 2.9 2.5 6.8a39 39 0 0 1-6.7 1.8v-.4l-1.7-11.1zm-6.5.2 1.8 11.7a30 30 0 0 1-7.6-1l1.7-8.3 4.1-2.4zm-14 .6 3.5 1.5-1.4 7c-1.8-.7-3.7-1.4-5.6-2.3l3.5-6.2zm43.9 8.8c1.1 3.5 2.2 8 1.4 9.6l-.2.2-.6.3c-1.9 1.1-3.5 1.5-4.2 1.1-1.5-.9-2.1-5.4-2-8.1l5.6-3zm-55.9.5a94 94 0 0 0 6.8 3.2c-2.8 4.3-6.2 7.5-7.6 7-1.9-.6-2.9-1.4-3.1-2.3-.5-2 1.9-5.7 4-8z" class="st1"/>
    <path d="M530.2 70.6c-.8 0-1.5.1-2.2.5a5.4 5.4 0 0 0-2.9 3.2c-.5 1.5-.5 3 .2 4.4l.5.9-1 2a27.6 27.6 0 0 0-36.1 21 4.6 4.6 0 0 0-2.8 5.5 4.6 4.6 0 0 0 2.5 3.1 27 27 0 0 0 4 11.3c-4.8 5-5.5 13-1.3 18.8 2.8 4 7.3 6.1 11.9 6.1a15 15 0 0 0 14.1-9.7 14.4 14.4 0 0 0 13.9 8.2 14.7 14.7 0 0 0 8.8-25.8 27.2 27.2 0 0 0 2.9-17 17.7 17.7 0 1 0 15.5-24.9c-2.3 0-4.6.4-6.8 1.2a15.7 15.7 0 0 0-16.5-6.8 5.3 5.3 0 0 0-2.5-1.7c-.8-.2-1.5-.4-2.2-.3zm0 5.4h.1l.1.6-.2-.1-.1-.1c-.1-.1 0-.3.1-.4zm8 1.8c4 0 7.8 2.3 9.4 6.2-.9.3-1.8.8-2.8 1.3l-3.1 1.7c.9-1.2 1.1-2.2 1-3.3s-.7-2-1.6-2.6c-2-1.2-4.8-.4-11.2 2.6l1.7-3.4c.3-.6.4-1.3.2-1.9.7.5 1.6.5 2.4.2 1.3-.6 2.7-.8 4-.8zm19 6h1.1c1.1 0 2.2 0 3.3.3-2.5 1-5.2 3-7.7 6.2a11.3 11.3 0 0 1-5.1 3.6c.1-.7.6-2.1 2.2-4.1 1-1 2.8-3 1.7-5 1.4-.6 3-1 4.5-1zM512.7 86l-11.4 9.9-2.6 2-2.3 1.8c-.7.5-2.6 2.1-1.3 4.2 1.3 2.2 3.2 1.3 6-.1l7-3.3a222 222 0 0 0 14.9-7.3l3.9-2-10.3 6c-15.3 8.7-20.6 12-21.3 15.3l-.1.5c0 1.7.8 3.1 2.1 3.8.7.4 1.5.6 2.4.6 1 0 2.2-.3 3.5-.7-1.6 1.8-2.6 3.5-2.7 5.2-.2 1.1.1 1.8.4 2.4-5.2 3.2-7.3 5.8-6.3 8.7.3 1 1 1.8 1.9 2.2l.3.1c-.4.5-.5 1.1-.4 2 .4 2.5 2.5 2.5 6.7 2.5 2.8 0 5.3-.7 7.6-1.8a9.3 9.3 0 0 1-15.2.2c-3-4.2-2.1-10 2.1-13 .6-.4 1-1.1 1.1-1.8s-.1-1.4-.5-2a21 21 0 0 1-4.5-12.4c0-.8-.3-1.5-.9-2 .5-.4.8-1 1.1-1.6A22.3 22.3 0 0 1 512.7 86zm7.7.1 3 .8-2.9 1.5-5.7 2.9 4.9-4.3.7-.9zm43.8 2.6-.2.2a79.7 79.7 0 0 0-8.6 8.8c-3 3.7-4.4 6-4.3 7.8a12 12 0 0 1-4.1-6.4c3 .8 7.2-1.2 10.9-5.4l.1-.1c2.3-3.1 4.7-4.4 6.2-4.9zm5.6 1.7a12.4 12.4 0 0 1-8.5 17.7 10 10 0 0 1-4.2 0c.8-.2 1.5-.6 2-.8 8.6-4.3 11-8.7 11.2-9.2.7-1.3.1-2.9-1.2-3.6s-2.9-.1-3.6 1.2c0 0-1.3 2.2-5.4 4.9 2.1-2.5 4.9-5.3 7.5-7.6l.2-.1c1-.9 1.5-1.7 2-2.5zm-26.2 1.5c-.6 2-.4 3.5 0 4.5l-5 1c-.8.2-1.4.6-1.8 1.3-.4.7-.4 1.5-.2 2.2a21 21 0 0 1-.4 14c-1.4-1.1-3.7-.7-5.3-.4 2.4-1.5 3.9-2.7 4.6-3.9l.2-.4c.6-1.7 0-3-.8-3.7-2.1-1.8-4.4-.6-14.7 5.7-3.2 2-8.4 5.2-12.1 7 4.3-3.8 14.3-9.7 25.2-14.6 1.4-.6 2-2.2 1.4-3.6-.6-1.4-2.1-2-3.5-1.4a286 286 0 0 1 12.4-7.7zm-19 25.8a59.8 59.8 0 0 0-5.4 5.7l-2 2.2c-.1-.8-.4-1.5-1.1-2.1-.4-.4-.9-.7-1.4-.8l3.2-1.6 6.7-3.4zm9.4 4.8.8.8c1 .6 1.9 1.4 2.6 2.3-2.6-1.8-6.7.9-9.9 3.5l-.4.4a9 9 0 0 1-2.2 1.9l1.2-1.3.2-.2c1.6-1.8 3.8-3.8 5.7-5.6l2-1.8zm4.8 5.7.6 2.7a9.3 9.3 0 0 1-6.6 9.4c1.9-2.4 3.5-5.1 4.8-7.9.4-.9 1.3-2.6 1.2-4.2zM531 133c-.9 1.5-2 3-3.1 4.4-.7 1-.8 2.2-.2 3-1.4-.3-2.7-1-3.8-2l-1-1c2.6 0 5.6-1.6 8-4.3l.1-.1z" class="st1"/>
  </g>
</svg>
