<?xml version="1.0" encoding="utf-8"?>
<!-- Generator: Adobe Illustrator 27.4.1, SVG Export Plug-In . SVG Version: 6.00 Build 0)  -->
<svg version="1.1" id="Layer_1" xmlns="http://www.w3.org/2000/svg" xmlns:xlink="http://www.w3.org/1999/xlink" x="0px" y="0px"
	 viewBox="0 0 613 460" style="enable-background:new 0 0 613 460;" xml:space="preserve">
<style type="text/css">
	.st0{fill:#005E5D;}
	.st1{fill:#F2F2F2;}
</style>
<rect class="st0" width="613" height="460"/>
<g>
	<path class="st1" d="M96,418.2c-1,0-1.9-0.4-2.6-1.2l-10-12.7c-0.8-0.5-1.4-1.2-1.7-2.1c-0.4-1.4,0.1-2.9,1.3-3.8
		c0.1-0.1,0.2-0.1,0.3-0.2c0,0,0.1-0.1,0.1-0.1l13-7c1.6-0.8,3.6-0.3,4.4,1.3c0.9,1.6,0.3,3.6-1.3,4.4l-5,2.7
		c2.8,0.1,6.5,0.2,11.4,0.2c0,0,0.1,0,0.1,0c3.2,0.1,7.3-0.2,8.7-2.7c2.4-4.1-1.6-13.4-4.6-18.3c-1-1.5-0.5-3.5,1-4.5
		c1.5-1,3.5-0.5,4.5,1c1,1.6,9.9,16.2,4.7,25c-2.5,4.2-7.4,6.2-14.6,6c-5.2,0-9.5-0.1-12.9-0.3l5.5,7c1.1,1.4,0.9,3.5-0.5,4.6
		C97.4,418,96.7,418.2,96,418.2z M65,411.4c-6,0-16.2-1-20.2-7.3c-2.7-4.1-2.2-9.4,1.4-15.7c2.3-4.6,4.2-8.3,5.9-11.3l-8.3,1.9
		c-1.7,0.4-3.5-0.7-3.9-2.4c-0.4-1.7,0.7-3.5,2.4-3.9l15.3-3.6c0.9-0.6,1.9-1,3-0.7c1.5,0.4,2.6,1.7,2.7,3.3l1,14.9
		c0.1,1.8-1.2,3.3-3,3.5c-1.8,0.1-3.3-1.2-3.5-3l-0.4-6.2c-1.4,2.5-3.1,5.8-5.4,10.4c0,0.1-0.1,0.1-0.1,0.2c-1.6,2.8-3.2,6.6-1.6,9
		c2.6,4,12.7,4.7,18.5,4.1c1.8-0.2,3.4,1.1,3.5,2.9c0.2,1.8-1.1,3.4-2.9,3.5C68.8,411.3,67.2,411.4,65,411.4z M102.2,363.3
		c-0.4,0-0.8-0.1-1.2-0.2l-13.8-2.9c-1.8-0.4-2.9-2.1-2.5-3.9c0.4-1.8,2.1-2.9,3.9-2.5l6.1,1.3c-1.9-2.1-4.5-5-8.2-8.9
		c-3.3-3.3-6.1-4.6-8.3-3.9c-4.6,1.4-8,10.7-9.1,16.3c-0.3,1.8-2,2.9-3.8,2.6c-1.8-0.3-2.9-2-2.6-3.8c0.4-1.9,3.8-18.3,13.6-21.3
		c4.7-1.4,9.8,0.4,14.9,5.6c3.5,3.7,6.3,6.8,8.5,9.3l1-8.3c0.2-1.8,1.8-3.1,3.6-2.8c1.8,0.2,3.1,1.8,2.8,3.6l-1.8,15.2
		c0.4,1.1,0.4,2.2-0.4,3.3C104.3,362.8,103.3,363.3,102.2,363.3z M562,288.2c-1,0-1.9-0.4-2.6-1.2l-9.7-12.4c-1-0.5-1.8-1.3-2.1-2.5
		c-0.4-1.6,0.4-3.2,1.8-3.9l11.9-7c1.6-0.9,3.5-0.4,4.4,1.2c0.9,1.6,0.4,3.5-1.2,4.4l-4.7,2.7c2.7,0.1,6.2,0.2,11.1,0.2
		c0,0,0.1,0,0.1,0c3.2,0.1,7.3-0.2,8.7-2.7c2.4-4.1-1.6-13.4-4.6-18.3c-1-1.5-0.5-3.5,1-4.5c1.5-1,3.5-0.5,4.5,1
		c1,1.6,9.9,16.2,4.7,25c-2.5,4.2-7.4,6.2-14.6,6c-4.7,0-8.7-0.1-11.9-0.2l5.5,7c1.1,1.4,0.9,3.5-0.5,4.6
		C563.4,288,562.7,288.2,562,288.2z M530.1,281.4c-5.8,0-15.7-1-19.8-7.1c-2.8-4.1-2.5-9.4,0.9-15.8c2.3-4.6,4.3-8.3,5.9-11.3
		l-8.3,1.9c-1.7,0.4-3.5-0.7-3.9-2.4c-0.4-1.7,0.7-3.5,2.4-3.9l15.3-3.6c0.9-0.6,1.9-1,3-0.7c1.5,0.4,2.6,1.7,2.7,3.3l1,14.9
		c0.1,1.8-1.2,3.3-3,3.5c-1.8,0.1-3.3-1.2-3.5-3l-0.4-6.2c-1.4,2.5-3.1,5.8-5.4,10.4c-2.2,4.1-2.6,7.2-1.3,9.2
		c3,4.5,14.3,4.5,18,4.1c1.8-0.2,3.4,1.1,3.5,2.9c0.2,1.8-1.1,3.4-2.9,3.5C533.8,281.3,532.2,281.4,530.1,281.4z M242,278.2
		c-1,0-1.9-0.4-2.6-1.2l-9.8-12.4c-1-0.5-1.8-1.3-2.1-2.5c-0.4-1.6,0.4-3.2,1.9-4l13-7c1.6-0.9,3.6-0.3,4.4,1.3
		c0.9,1.6,0.3,3.6-1.3,4.4l-5,2.7c2.8,0.1,6.5,0.2,11.5,0.2c0,0,0.1,0,0.1,0c3.2,0.1,7.3-0.2,8.7-2.7c2.4-4.1-1.6-13.4-4.6-18.3
		c-1-1.5-0.5-3.5,1-4.5c1.5-1,3.5-0.5,4.5,1c1,1.6,9.9,16.2,4.7,25c-2.5,4.2-7.4,6.2-14.6,6c-5.2,0-9.5-0.1-12.9-0.3l5.5,7
		c1.1,1.4,0.9,3.5-0.5,4.6C243.4,278,242.7,278.2,242,278.2z M211,271.4c-6,0-16.2-1-20.2-7.3c-2.7-4.1-2.2-9.4,1.4-15.7
		c2.3-4.6,4.3-8.4,6-11.4l-9.4,2.1c-1.8,0.4-3.5-0.7-3.9-2.5c-0.4-1.8,0.7-3.5,2.5-3.9l16.3-3.6c0.9-0.6,1.8-0.9,3-0.7
		c1.5,0.4,2.6,1.7,2.7,3.3l1,14.9c0.1,1.8-1.2,3.3-3,3.5c-1.8,0.1-3.3-1.2-3.5-3l-0.4-6.2c-1.4,2.5-3.1,5.8-5.4,10.4
		c0,0.1-0.1,0.1-0.1,0.2c-1.6,2.8-3.2,6.6-1.6,9c2.6,4,12.7,4.7,18.5,4.1c1.8-0.2,3.4,1.1,3.5,2.9s-1.1,3.4-2.9,3.5
		C214.8,271.3,213.2,271.4,211,271.4z M567.1,234.3c-0.3,0-0.6,0-0.9-0.1c0,0-0.1,0-0.1,0l-14-4c-1.7-0.5-2.7-2.3-2.2-4
		c0.5-1.7,2.3-2.7,4-2.2l5.7,1.6c-1.8-2-4.4-4.7-7.9-8.2c0,0-0.1-0.1-0.1-0.1c-2.1-2.4-5.2-5.1-7.9-4.4c-4.7,1.2-8.4,11.3-9.5,16
		c-0.4,1.7-2.1,2.8-3.9,2.4c-1.8-0.4-2.8-2.1-2.5-3.9c0.4-1.9,4.4-18.3,14.2-20.8c4.7-1.2,9.5,0.9,14.4,6.3c3.6,3.6,6.3,6.5,8.4,8.8
		l1-8.9c0.2-1.8,1.8-3.1,3.6-2.9c1.8,0.2,3.1,1.8,2.9,3.6l-1.8,15.9c0.6,1.5,0.2,2.3-0.3,3.2C569.6,233.6,568.4,234.3,567.1,234.3z
		 M248.1,224.3c-0.3,0-0.6,0-0.9-0.1c0,0-0.1,0-0.1,0l-14-4c-1.7-0.5-2.7-2.3-2.2-4c0.5-1.7,2.3-2.7,4-2.2l5.7,1.6
		c-1.8-2-4.4-4.7-7.9-8.2c-3.5-3.7-6.4-5.2-8.8-4.5c-5.3,1.4-8.9,12.3-9.7,15.9c-0.4,1.7-2.1,2.8-3.9,2.4c-1.7-0.4-2.8-2.1-2.5-3.9
		c0.4-1.8,4.3-18,14.3-20.8c4.9-1.3,10,0.8,15.2,6.3c3.6,3.6,6.3,6.5,8.4,8.8l1-8.9c0.2-1.8,1.8-3.1,3.6-2.9
		c1.8,0.2,3.1,1.8,2.9,3.6l-1.8,15.9c0.6,1.5,0.2,2.3-0.3,3.2C250.6,223.6,249.4,224.3,248.1,224.3z"/>
</g>
<g>
	<path class="st1" d="M378,199v-1V199h-1l-3,2h-1c-1.9,0.9-3.9,1.6-6,2l-4,1h-2l-2,1c-2,0.1-4,0.1-6,0h-2c-1,0,0,0,0,0h-1h1l-1-1
		c0,1,0,0,0,0s0-1,0,0v-1v1c0-1,0,0,0,0c0-1-1,0,0,0l2-1l1-1c4.2-1.6,8.6-2.6,13-3l1-1h1c3-0.2,6-0.2,9,0h1h-1h1c-1,0,0,0,0,0
		c0,1,0,0,0,0c0,1,0-1,0,0V199c-1,2,0,3,2,4l3-2c1-3,0-6-2-7c-1.5-0.8-3.3-1.2-5-1c-8.9-0.3-17.8,1.4-26,5l-4,2c-2,2-2,7,1,9
		c2,2,5,2,8,2c3.7-0.5,7.4-1.1,11-2l10-3c3-1,6-3,7-5l-2-4C379,197,378,198,378,199z"/>
</g>
<g>
	<path class="st1" d="M344,205l1,5l1,2v1h1c0,0,0,1,0,0v1l-1,1c-0.1,1.4,0.2,2.8,1,4v2l1,3h1v1l1,4l2,5v8c0.2,2.9,1.2,5.7,3,8l5,1
		h14c6-1,11-4,14-8v-4h-4l-2,3c-1,0,0,0,0,0c-1.3,0.8-2.6,1.5-4,2c-1.6,0.8-3.3,1.5-5,2h-1c0,0-1,0,0,0c-3.3,0.4-6.7,0.4-10,0h-4h1
		l-1-1v-1c0-0.3,0-0.7,0-1l-1-1v-1l1-4l-1-4l-1-4l-1-4l-1-3l-1-1l-1-1v1v-5c0,0,0,1,0,0v-3l-1-5l-1-4c-1-2-2-3-4-2
		C344.7,202.4,343.9,203.7,344,205z"/>
</g>
<g>
	<path class="st1" d="M389,241c-0.3-4.8-1.3-9.5-3-14v-1v2c0.3-1,0.3-2,0-3l-1-2v-1c0-1,0,0,0,0v-2c0-1.4-0.3-2.8-1-4l-1-1v-1
		c0.3-1.3,0.6-2.7,1-4v-5l1-3l-1-2l-2-6c-2-1-3,0-4,1s0,3,1,4l-1-1c0,0,0,1,0,0c0.5,1.3,0.8,2.6,1,4v1v-1v6l-2,6l1,3l1,2v1l1,1
		c-0.1,1.7,0.3,3.4,1,5c0,1,0,1,0,0v-1v3c0,1,0,1,0,0v1c0.9,1.9,1.6,3.9,2,6v1c0-1,0,0,0,0v5c0,2,2,3,3,3C388,244,389,243,389,241z"
		/>
</g>
<g>
	<path class="st1" d="M351,218l17-1c5-1,11-2,15-7c1-1,0-3-1-3c-2-1-3-1-4,1c0-1,0,0,0,0h-1c-0.6,0.4-1.3,0.7-2,1l-2,1
		c-3,0.9-6,1.5-9,2c-1.7,0-3.3,0-5,0l-8,1c-1.3-0.1-2.6,0.7-3,2L351,218z"/>
</g>
<g>
	<path class="st1" d="M351,224l9,1l9-1c5-1,10-2,14-6v-4h-4l-1,1c-0.6,0.4-1.3,0.7-2,1l-1,1h-1c-3.3,1-6.6,1.7-10,2h-1
		c-1,0.4-2,0.7-3,1h-4l-3-1l-4,2L351,224z"/>
</g>
<g>
	<path class="st1" d="M353,232h16c5-1,9-4,13-6c1-1,2-3,1-4c0-1-2-2-3-1l-6,3l-2,1c0,0,1,0,0,0l-1,1h-3l-1,1c-1,0,1,0,0,0
		c-3.7,0.5-7.3,0.5-11,0h-1v-1l-4,2L353,232z"/>
</g>
<g>
	<path class="st1" d="M356,240c10,0,21-3,29-10v-4h-4l-2,2c-1.9,1.3-3.9,2.3-6,3l-1,1c0,0,1,0,0,0h-1c-4.8,1.9-9.9,2.9-15,3
		c-2,0-3,1-3,2C353,239,354,240,356,240z"/>
</g>
<g>
	<path class="st1" d="M356,245c7.9,0.4,15.7-1,23-4c2.6-0.8,5-2.1,7-4v-4h-4l-1,1c-0.9,0.8-1.9,1.4-3,2h-1c-4.1,1.9-8.5,3.3-13,4h-8
		c-1,0-2,1-2,3L356,245z M419,229c4,1,8,1,12-1c2-1,5-3,4-6l-5-4c-7.6-3.1-15.9-4.1-24-3c-2.8-0.1-5,2.1-5.1,4.9
		c0,0.4,0,0.7,0.1,1.1c1,2,2,4,5,3h-2L419,229l3-2l-2-3c-3.1-0.7-6.1-1.7-9-3h-1c-1-1,0,0,0,0l-1-1l-2-1h-1c-0.3-0.1-0.7-0.1-1,0h1
		l1,1c0,1,0,0,0,0c-1,1,0,0,0,0s-1,0,0,0h3c2.3-0.2,4.7-0.2,7,0c0,0-1,0,0,0c3.8,0.6,7.5,1.6,11,3v1c0.7,0,1.3,0,2,0c1,1,0,0,0,0v-2
		v1c0-1,0-1,0,0c0,0-1,0,0,0h-1c-1,0.4-2,0.8-3,1h-1c-1.3,0.1-2.7,0.1-4,0h-1c-1-1-3,0-3,2C416,227,417,229,419,229z"/>
</g>
<g>
	<path class="st1" d="M402,220v1l-1,1h1l-1,1l-1,1v1c-1,1.2-1.6,2.5-2,4c-2.2,7.8-3.6,15.9-4,24v9l1,1h-1l1,1v1l1,3c1,2,5,3,7,3
		c6.5,1.9,13.2,3.3,20,4c1,0,2-1,2-3l-2-3c-2.7-0.2-5.4-0.5-8-1c-4.4-0.8-8.7-1.8-13-3h-1v-1l-1-1l-2-4l1,2l1-19
		c0.5-2.7,1.2-5.4,2-8l1-5v-1c0,1,0,0,0,0h1c2-2,3-5,3-8c0-2-1-3-3-3C403,217,402,218,402,220z"/>
</g>
<g>
	<path class="st1" d="M425,273l1-2l1-1c0,0,1,0,0,0h1h-1l2-1l1-2l2-10l2-11v-5h1v-5l1-4l-1-2v-2c0,0,0-1,0,0v-3l-2-3c-1-1-3,0-3,2
		c-0.3,1.7-0.3,3.3,0,5v4c0,0,0,1,0,0v2l-1,5l-1,9v3c-0.9,4.8-2.3,9.5-4,14l2-1l-3,2l-3,3l1,4C423,275,424,275,425,273z"/>
</g>
<g>
	<path class="st1" d="M401,230c9,4,20,8,31,5l2-4l-4-2l-4,1h-1c-3,0.5-6,0.5-9,0l-14-5c-1-1-3,1-3,2c-1,2,0,3,1,3H401z M396,262
		c9.3,4.7,19.6,6.8,30,6c1,0,3-1,3-3l-3-2c-3-0.1-6-0.4-9-1h-1c-4.1-0.5-8.1-1.5-12-3h-2l-3-2c-1-1-3-1-4,1l1,3V262z"/>
</g>
<g>
	<path class="st1" d="M420,227l-1-1v-1l1-1v-1h1h-3h1c-1.4-0.2-2.7-0.6-4-1h-1h1h-1l1,1v2c0,0-1,1,0,0c-1,0-1,0,0,0h-1h1
		c1.4,0.2,2.7,0.5,4,1c0,0,1,1,0,0L420,227h3l1-1v-2l-1-1l-3-2l-2-1h-5c-2,1-4,3-3,5l2,2c1.9,0.6,4,1,6,1l3,1l3-2v-4h-4V227z
		 M390,203C391,203,390,203,390,203C391,203,390,202,390,203h1l1,1v1c0.9,1.2,1.5,2.6,2,4l4,1c1,0,2-1,2-3c0,0,0,1,0,0v-1l1-1
		c0-1,0,0,0,0v-1h1c0-1,0,0,0,0c0.3-0.4,0.6-0.7,1-1c2-1,2-4,0-5c-0.3,0-0.7,0-1,0v-1v1c-0.4-0.6-0.7-1.3-1-2c-1,0,0,1,0,0h-1v-1
		c-1,0,0,1,0,0l-1-1c1,0,0,0,0,0c0-2-1-3-2-3l-3,2v1v-1c-0.6,1.1-1.2,2.1-2,3c0,0.3,0,0.7,0,1h-1c-1,1,0,0,0,0h-1
		c-1.3,0.4-2.1,1.7-2,3C388,202,389,203,390,203c5,0,8-5,9-9h-5c0,4,3,7,6,9v-5c-3.4,1.7-5.7,5.2-6,9l5-1l-3-5c-1-2-3-4-6-4l-2,3
		C388,202,389,203,390,203z M372,271C372,271,373,272,372,271c1.1,0.9,2.1,1.9,3,3c0,0,1,1,0,0l2,2c0,1,2,2,3,1l2-2v-1c0-1,0,0,0,0
		v-1c0-0.3,0-0.7,0-1c0.3-0.4,0.6-0.7,1-1l1-1c1.2-1.1,1.3-3,0.1-4.2c-0.3-0.3-0.7-0.6-1.1-0.8l-1-1c-1,0,0,0,0,0l-1-1c-1,0,0,0,0,0
		l-1-1v-1c-1-2-2-2-3-2l-3,2c0.1,0.7,0.1,1.3,0,2c0,0-1,1,0,0l-1,1v1l-1,1c0,0,0-1,0,0h-1l-2,3C370,271,371,271,372,271c5-1,7-5,8-9
		h-6c1,4,4,7,8,8v-5c-3.7,1.9-6.1,5.8-6,10l5-2c-1.6-2.3-3.7-4.4-6-6c-1.2-0.8-2.6-1.1-4-1l-2,3C370,271,371,271,372,271z M59,76v-1
		V76C58,76,59,76,59,76h-1l-3,2h-1c-1.9,0.9-3.9,1.6-6,2l-4,1h-2l-2,1c-2.3,0.2-4.7,0.2-7,0h-1c-1,0,0,0,0,0h-1h1l-1-1v-1
		c0,1,0,0,0,0v1c0-1-1,0,0,0l2-1l1-1c4.1-1.9,8.5-3.2,13-4h1c1,0,0,0,0,0h1c3-0.2,6-0.2,9,0h1h-1h1c-1,0,0,0,0,0s0-1,0,0
		c0,0,0-1,0,0V76c-1,1,0,3,2,3c1,1,2,0,3-2s0-5-2-7c-1.5-0.8-3.3-1.2-5-1c-8.9-0.3-17.8,1.4-26,5l-4,3c-2,2-2,6,1,8c2,2,5,2,8,2
		l11-1l10-4c3-1,6-2,7-5l-2-3C60,74,59,75,59,76z"/>
</g>
<g>
	<path class="st1" d="M26,82l1,5v3h1c0,0,0,1,0,0v1l-1,1c-0.1,1.4,0.2,2.8,1,4v2c0.1,1.1,0.5,2.1,1,3h1v1l1,4l2,5v8
		c0.2,2.9,1.2,5.7,3,8l5,1h14c5.4-1,10.4-3.8,14-8v-3c-1-1-3-2-4,0l-2,2c-1.3,0.8-2.6,1.5-4,2c-1.6,0.8-3.3,1.5-5,2h-1c0,0-1,0,0,0
		c-3.3,0.4-6.7,0.4-10,0h-4h1l-1-1v-2l-1-1v-1l1-4l-1-4l-1-4l-2-4v-3l-1-1l-1-1v1v-5h-1h1c0,0,0,1,0,0c0,0,0,1,0,0v-2l-1-5l-1-5
		c-1-2-2-3-4-2c-1.3,0.4-2.1,1.7-2,3H26z"/>
</g>
<g>
	<path class="st1" d="M70,118c0.1-4.7-0.6-9.5-2-14h-1v-1v2v-3l-1-2v-1c0,1,0,0,0,0c0-1,0,0,0,0v-2c0-1.4-0.3-2.8-1-4l-1-1v-1v1v-2
		c0,1,0,0,0,0c0.3-1,0.6-2,1-3l1-5v-3l-1-3l-2-5c-2-1-3,0-4,1s0,3,1,4l-1-1c0.5,1.3,0.8,2.6,1,4v1v-1v5l-2,7l1,3l1,1v3
		c0.2,1.8,0.9,3.5,2,5c0,1,0,1,0,0v-1v4c0.9,1.9,1.6,3.9,2,6v1c0-1,0,0,0,0v5c0,1.7,1.3,3,3,3C69,121,70,120,70,118z"/>
</g>
<g>
	<path class="st1" d="M32,95l17-1c5-1,11-2,15-7c1-1,0-3-1-4l-4,1v1c-0.9,0.5-2,0.8-3,1l-2,1c-3,0.9-6,1.5-9,2c-1.7,0-3.3,0-5,0
		l-8,1c-1,0-3,1-2,2C30,94,31,95,32,95z"/>
</g>
<g>
	<path class="st1" d="M32,101l9,1l9-1c5-1,10-3,14-6v-4h-4v1h-1c-0.6,0.4-1.3,0.7-2,1h-1v1h-1c-3.3,1-6.6,1.7-10,2h-1
		c-1,0.4-2,0.7-3,1l-4-1h-3c-2,0-3,0-4,2L32,101z"/>
</g>
<g>
	<path class="st1" d="M35,109h15c5-1,9-4,13-6c2-1,2-3,1-4c0-1-2-2-3-1l-6,3l-1,1h-1v1h-5v1c-3.7,0.5-7.3,0.5-11,0l-1-1l-3,2
		C32,107,33,108,35,109z"/>
</g>
<g>
	<path class="st1" d="M37,117c10,0,22-3,29-10v-4h-3l-3,2c-1.9,1.3-3.9,2.3-6,3l-1,1c0,0,1,0,0,0h-1c-4.8,1.9-9.9,2.9-15,3
		c-2,0-3,1-3,2C34,116,35,117,37,117z"/>
</g>
<g>
	<path class="st1" d="M37,122c7.9,0.4,15.7-1,23-4l7-4v-4h-4l-1,1c-0.9,0.8-1.9,1.4-3,2h-1c-4.2,1.6-8.6,2.6-13,3l-8,1
		c-1.3,0.4-2.1,1.7-2,3C35.3,121,36,121.7,37,122z M100,106l12-1c2-1,5-3,4-6l-5-4c-7.6-3.1-15.9-4.1-24-3c-2.7,0.5-4.5,3.1-4,5.8
		c0,0.1,0,0.1,0,0.2c0,2,1,4,4,3h-2C89.7,103.4,94.8,105.1,100,106l3-2l-2-3c-3.1-0.7-6.1-1.7-9-3h-1c-1-1,0,0,0,0l-1-1l-2-1h-1
		c-0.3-0.1-0.7-0.1-1,0h1l1,1c-1,1,0,0,0,0s-1,0,0,0h4c2-0.1,4-0.1,6,0c0,0-1,0,0,0c3.8,0.6,7.5,1.6,11,3l1,1c0.3,0,0.7,0,1,0
		c1,1,0,0,0,0v-2v1c0-1,0-1,0,0c-1.3,0.5-2.6,0.8-4,1h-1c-1.3,0.1-2.7,0.1-4,0h-1c-1-1-3,0-3,2C97,104,98,106,100,106z"/>
</g>
<g>
	<path class="st1" d="M83,97v2c-1,0,0,0,0,0l-1,1l-1,1c-1.1,1.5-1.8,3.2-2,5c-2.2,7.8-3.6,15.9-4,24v9l1,1c0,1,0,0,0,0v2l1,3
		c2,2,5,3,7,3c6.5,1.9,13.2,3.3,20,4c1,0,3-2,2-3c0-2-1-3-2-3c-2.7-0.2-5.4-0.5-8-1c-4.4-0.8-8.7-1.8-13-3h-1v-1l-1-1
		c-0.4-1.5-1-2.8-2-4l1,2l1-19c0,0,1,0,0,0h1c0.2-2.7,0.5-5.4,1-8l1-5v-1c0,1,0,0,0,0c1,0,0,0,0,0h1c2-2,3-5,3-8c0-2-1-3-3-3
		C84,94,83,95,83,97z"/>
</g>
<g>
	<path class="st1" d="M106,150l1-2h1v-1c0,0,1,0,0,0h1h-1l2-1l1-2l2-10l2-11v-5l1-5l1-4l-1-3v-4l-2-4l-3,2c-0.3,1.7-0.3,3.3,0,5v7
		l-1,5l-1,9v2c-0.9,5.1-2.2,10.1-4,15l2-1l-3,2l-3,3l1,4C104,152,105,151,106,150z"/>
</g>
<g>
	<path class="st1" d="M82,107c9,4,20,8,31,4l2-3l-4-2l-4,1h-1c-2.7,0.4-5.3,0.4-8,0l-15-5c-1-1-3,1-3,2C79,105,80,107,82,107z
		 M77,138c9.2,5,19.5,7.5,30,7c1,0,3-1,3-3c0-1-1-3-3-2c-3-0.1-6-0.4-9-1h-1c-4.1-0.5-8.1-1.5-12-3h-1l-1-1l-3-1c-1-1-3-1-4,1
		L77,138z"/>
</g>
<g>
	<path class="st1" d="M101,104v-1l-1-1v-1h1v-1h1h-2c-1.4-0.2-2.7-0.6-4-1h-1h1h-1h1v3c0,0-1,0,0,0c-1,0,0,0,0,0h-1h2h-1
		c1.4,0.2,2.7,0.5,4,1c0,0,1,0,0,0h1l1,1c1.1,0.3,2.3-0.1,3-1l1-2l-2-2l-3-1l-2-1h-5c-2,1-4,2-3,4l2,3c1.9,0.6,4,1,6,1h3l3-1v-4h-4
		V104z M72,80C72,80,71,80,72,80C72,80,71,79,72,80l1,1v1l3,4l3,1c1.3-0.4,2.1-1.7,2-3c0,0,0,1,0,0v-1c0-1,0,0,0,0l1-1c0-1,0,0,0,0
		v-1h1c0-1,0,0,0,0c0.3-0.4,0.6-0.7,1-1c2-1,2-4,0-5c-0.3,0-0.7,0-1,0v-1c-1,0,0,0,0,0c-0.4-0.3-0.7-0.6-1-1c-1,0,0,1,0,0h-1v-2
		c-1-2-1-3-3-3l-3,2v1v-1c-0.2,1-0.6,2-1,3h-1h1c-0.3,0.4-0.6,0.7-1,1h-1c-1,0,0,0,0,0c-2,0-3,2-3,3C69,79,70,80,72,80c4,0,7-5,8-9
		h-5c0,4,3,7,6,9v-5c-3.4,1.7-5.7,5.2-6,9l5-1l-3-5c-1-2-3-4-5-4s-3,2-3,3C69,79,70,80,72,80z M54,148h-1H54C54,148,54,149,54,148
		c0.7,0.6,1.4,1.3,2,2v1c0,0,1,0,0,0l2,2c0,1,2,2,3,1l2-2v-1c0-1,0,0,0,0v-1c0-0.3,0-0.7,0-1c0.3-0.4,0.6-0.7,1-1l1-1
		c1.4-0.9,1.8-2.8,0.8-4.2c-0.2-0.3-0.5-0.6-0.8-0.8l-1-1h-1c-1,0,0,0,0,0l-1-1l-1-1v-1c0,1,0,1,0,0v-1l-3-2l-2,2
		c-0.3,0.7-0.6,1.4-1,2v1l-1,1v1h-1c0,1,0,0,0,0v1h-1l-2,3C51,148,52,148,54,148c4-1,6-5,7-9h-5c0,4,4,7,7,8v-5
		c-3.7,1.9-6.1,5.8-6,10l5-2c-1.5-2.7-3.6-5.1-6-7h-4l-2,3C51,148,52,148,54,148z"/>
</g>
<g>
	<path class="st1" d="M516,400.2c-1,0-2-0.4-2.8-1.1c-6.2-5.6-11.8-11.9-16.6-18.7c-6.2-9-21.2-35.8-16.6-52.3
		c1.4-5.1,4.6-8.8,9.3-10.9c5-2.1,9.8-1.9,14.1,0.5c7.9,4.4,12.3,15.4,14.6,23.5c6.7-8.5,18-20.4,27.8-19.2
		c3.5,0.4,8.2,2.6,11.1,10.5c10.9,27.6-36.3,65.1-38.3,66.7C517.8,399.9,516.9,400.2,516,400.2z M496.1,324c-1.1,0-2.2,0.3-3.5,0.8
		c-2.4,1-3.8,2.8-4.6,5.5c-3.1,11.2,7.3,33.6,15.4,45.3c3.8,5.3,8.1,10.3,12.8,14.9c13.6-11.4,39.7-38.1,33-54.9c0,0,0-0.1-0.1-0.1
		c-1.2-3.2-2.6-5-4.3-5.2c-6.3-0.8-18.9,13.3-25.4,23.1c-0.9,1.4-2.7,2.1-4.3,1.8c-1.7-0.4-2.9-1.7-3.2-3.4c-1-6-5.1-22.6-12.6-26.7
		C498.3,324.3,497.2,324,496.1,324z"/>
</g>
<g>
	<path class="st1" d="M380.7,407c-0.5,0-0.9-0.1-1.4-0.2c-3.2-1.1-4.5-5.3-4.5-14.7c0-13.3-7.7-19.4-7.7-19.4c0,0,0,0,0,0
		c-1.5-0.2-3.2-0.6-5-1c-8.1-2-13.7-5.3-16.7-9.7l-10.1-16.1c-0.9-1.5-0.5-3.4,0.9-4.4c0.3-0.2,8.6-6,23.1-0.4c0,0,0.1,0,0.1,0
		c4.9,2.1,8.8,6.2,11.7,10.5c1.1-7.3,4.3-15.2,9.9-20c15.2-13,26.6-9.8,27-9.6c1.6,0.5,2.6,2.1,2.3,3.8l-5,25
		c-1.5,6.4-6.8,12.1-15.7,17.1c-2.9,1.6-5.8,2.9-8,3.8l3.8,31.1c0.1,0.9-0.1,1.7-0.7,2.4C383.7,406.1,382.2,407,380.7,407z
		 M342.8,345.5l8,12.8c3.3,4.9,12.5,7.2,18.6,8.1l-0.5-4.6c-1.9-5.4-6.4-12.3-12-14.7C350.2,344.5,345.5,344.8,342.8,345.5z
		 M377.2,359.5l1.2,6.2c7.1-2.8,18.6-8.7,20.4-16.4l4.3-21.4c-3.5,0.2-9.9,1.6-18,8.6C379.1,341.6,376.4,352.4,377.2,359.5z"/>
</g>
<g>
	<g>
		<path class="st1" d="M53.6,273.4c-1,0-2-0.1-2.9-0.4c-3-1-5.4-3.5-6.9-7.4c-3.9,0.3-6.9-0.6-8.9-2.9c-2.5-2.6-2.8-6.3-2.6-9
			c-3-1.2-5.4-4-6.2-7.7c-1.2-5.3,1.3-9.4,4.8-11.6c-1-3-1.9-7.6,0.4-11.2c1.8-2.8,5-4.3,9.4-4.5c2.7-6.7,8.1-7.5,10.5-7.5
			c2.3,0,4.6,0.7,6.6,1.8c1.2-1.8,2.9-3.4,5-4.5c2.3-1.1,6.5-2.2,11.9,0.7c2.5-3.7,7-5.2,10.7-4.5c3.7,0.6,6.4,2.9,7.4,6.1
			c2.3-0.1,4.7,0.7,6.7,2.5c3.2,2.7,5.7,7.8,4.6,13.6c3.3,1.5,5.8,4.4,6.6,8.1c0.9,4.1-0.5,8.2-3.7,11.2c1.5,4.3,2.7,11.2-2.5,16.2
			c-3.2,3.1-8,4.4-12.1,3.6c-3.4,4.4-9.8,8.1-17.8,4c-1.6-0.8-2.3-2.8-1.5-4.4s2.8-2.3,4.4-1.5c6.9,3.4,10.3-2.8,10.6-3.5
			c0.8-1.6,2.8-2.3,4.4-1.5c1.9,1,5.4,0.6,7.5-1.5c2.4-2.3,2.4-6.3,0.1-11.2c-0.7-1.5-0.2-3.3,1.2-4.1c2.4-1.5,3.6-3.7,3.1-6
			c-0.5-2.2-2.3-3.8-4.7-4.1c-1-0.1-1.9-0.7-2.4-1.6c-0.5-0.9-0.6-2-0.1-2.9c1.7-3.8,0.4-7.7-1.7-9.5c-0.9-0.7-2.2-1.4-3.5-0.5
			c-1.1,0.7-2.4,0.7-3.5,0.1c-1.1-0.7-1.7-1.9-1.5-3.1c0.3-2.7-1.4-3.4-2.5-3.6c-2-0.3-4.4,0.7-5.1,3.7c-0.2,1.1-1,2-2.1,2.4
			c-1.1,0.4-2.2,0.2-3.1-0.5c-2.2-1.8-5.5-3.6-8.4-2.2c-2.1,1-3.3,3.4-3.3,4.6c0,1.6-1.2,3-2.9,3.2c-1.6,0.2-3.2-0.8-3.5-2.4
			c-0.3-0.7-2.7-2.3-5.2-2c-2.2,0.2-3.7,1.9-4.5,5c-0.4,1.5-1.8,2.5-3.4,2.5c-3.2-0.2-5.4,0.3-6.1,1.5c-1.1,1.8,0.2,5.9,1.2,7.8
			c0.5,0.9,0.5,1.9,0.1,2.8c-0.4,0.9-1.1,1.6-2.1,1.9c-4.1,1.2-3.8,4.3-3.6,5.5c0.4,1.7,1.6,3.4,3.2,3.1c1.1-0.2,2.2,0.3,2.9,1.1
			c0.7,0.8,1,2,0.7,3c-0.4,1.5-0.8,5,0.5,6.4c0.9,0.9,2.9,1.1,5.7,0.5c1.7-0.4,3.4,0.7,3.8,2.3c0.9,3.2,2.1,5.2,3.6,5.7
			c1.5,0.5,3.8-0.4,6.2-2.3c1.4-1.1,3.4-0.9,4.6,0.5c1.1,1.4,0.9,3.4-0.5,4.6C59.8,272.1,56.6,273.4,53.6,273.4z"/>
	</g>
	<g>
		<path class="st1" d="M57.5,303.3c-0.3,0-0.5,0-0.8,0c-1.8-0.2-3.1-1.8-2.9-3.6s1.8-3.1,3.6-2.9c0.3,0,0.5,0,0.7-0.3
			c0.7-0.7,3.9-5,1.8-26.2c0-0.3-0.1-0.6-0.1-0.8c-1.5-6.9-1.6-6.9-5.9-12.4c-0.7-0.9-1.5-1.9-2.5-3.1c-0.1-0.2-0.3-0.4-0.4-0.6
			c-3.5-0.5-6.4-2.4-6.9-2.7c-1.5-1-1.9-3-0.9-4.5c1-1.5,3-1.9,4.5-0.9c1.3,0.8,4.6,2.3,6.4,1.5c1.6-0.7,2.3-3.2,2.5-5.2
			c0.3-1.8,1.9-3,3.7-2.8c1.8,0.3,3,1.9,2.8,3.7c-0.1,0.6-0.2,1.2-0.3,1.8l5.5,5.5l6.2-10.3c-1.4-1.4-2.2-2.6-2.3-2.8
			c-1-1.5-0.5-3.5,1-4.5c1.5-0.9,3.5-0.5,4.5,1c0.2,0.3,4.2,6.3,11.9,5.5c1.8-0.2,3.4,1.1,3.6,2.9c0.2,1.8-1.1,3.4-2.9,3.6
			c-0.2,0.3-0.5,0.5-0.8,0.6c-2,1.5-6.9,11.8-10.3,20.9c-1,12-0.2,26.3,2.8,29c0.2,0.1,0.2,0.2,0.4,0.1c1.8-0.4,3.5,0.8,3.8,2.5
			c0.4,1.8-0.8,3.5-2.5,3.8c-2.2,0.4-4.3-0.1-6-1.6c-2.1-1.9-4.9-6-5.3-20.4c-0.2-7.4,0.4-14.1,0.4-14.4c0-0.3,0.1-0.6,0.2-0.9
			c2.3-5.9,6-15,9.5-20.4c-1-0.3-1.9-0.7-2.7-1.1l-8,13.3c-0.5,0.9-1.4,1.4-2.4,1.6c-1,0.1-2-0.2-2.7-0.9l-6.8-6.8
			c-0.5,0.6-1.1,1.1-1.8,1.5c0.3,0.4,0.6,0.7,0.9,1.1c4.8,6.1,5.3,6.9,7.2,15.2c0,0.2,0.1,0.4,0.1,0.6c0,0.1,0,0.4,0.1,0.8
			c1.7,17,0.5,27.3-3.7,31.5C61.2,302.5,59.4,303.3,57.5,303.3z M89.5,245.9C89.5,245.9,89.5,245.9,89.5,245.9
			C89.5,245.9,89.5,245.9,89.5,245.9z"/>
	</g>
</g>
<g>
	<g>
		<path class="st1" d="M188,136l16-22c8.1-12.2,15.4-24.9,22-38c1-1,0-3-1-3c-1-1-3-1-4,1l-13,24c-5.8,10-12.1,19.7-19,29l-1,1l-1,1
			l-3,3v4H188z"/>
	</g>
	<g>
		<path class="st1" d="M187,137c12.7-5.4,25.7-10.1,39-14l2-1c0.7-0.2,1.4-0.5,2-1l2-2l1-2v-2h1c3.1-7.5,7.1-14.5,12-21v-1
			c1-1,0,0,0,0l1-1l2-2l3-4c5-6,9-12,12-19c0-3-2-4-4-3c-0.7,0.4-1.3,0.7-2,1c-1,0,0,0,0,0h-1c-2.6,1-5.3,1.7-8,2h-3l-15,2l-9,4
			l-1,3c1,2,3,2,4,1c0.7-0.4,1.3-0.7,2-1h1c2.2-1,4.6-1.6,7-2l2-1h1l16-2c3,0,6-1,8-3l-4-3c-0.3,1.4-0.6,2.7-1,4c0-1,0,0,0,0v1
			c-1.4,2.8-3.1,5.5-5,8l-1,2h-1l-1,1l-12,16c-3.7,6.3-6.7,13-9,20c0,1,0,0,0,0c0-1,0,0,0,0c-1,0,0,0,0,0h-2l-6,2
			c-11.9,4.1-23.6,8.7-35,14c-1,0-2,2-1,3C185,138,186,138,187,137z"/>
	</g>
	<g>
		<path class="st1" d="M190,131l-2,4c-0.3,1-0.7,2-1,3c0,1,0,1,0,0l-1,1l1,3l3,1l24-11h1l1-1c2.6-0.8,5.3-1.4,8-2l9-3l3-2l2-2v-1
			l1-1c2.3-4.5,5-8.9,8-13l2-2l1-1c-1,0,0,0,0,0v-1l7-8l12-21c0-2-1-4-3-4l-8,1c-2,0-3,1-3,3c0,1,1,3,3,2l8-1l-2-3l-1,3h-1
			c-0.9,2.1-1.9,4.1-3,6c-2.3,4.5-5,8.9-8,13l-2,2v1l-1,1l-7,8l-5,9l-3,5v1c0-1,0,0,0,0v-1c0,1,1,0,0,0l-1,1l-8,2
			c-3.4,1.2-6.7,2.5-10,4l-27,11l4,4l2-5c0.3-1,0.7-2,1-3v-1c1-1,1-3-1-3C192,129,190,129,190,131z"/>
	</g>
	<g>
		<path class="st1" d="M186,140c-0.6,1.7-0.2,3.6,1,5l5,1c5,0,9-1,12-3l7-3c1.3-0.7,2.6-1.4,4-2h1v-1h2c3.3-1.4,6.6-2.8,10-4l13-4
			c2-1,3-3,1-5l1,1v-2c1-1,0,0,0,0h1v-1l1-2l7-11l15-20l7-12c1-1,0-4-2-4l-8,1l-2,3l3,2h7l-2-4l-15,21l-15,22c-0.8,1.3-1.4,2.6-2,4
			c-1,2-1,5,1,6l1-4l-24,8c-2,0.6-4,1.2-6,2l-4,3h-2v1h-1l-3,1l-5,2h-2c-0.7,0-1.3,0-2,0h1h-1c0,0,0,1,0,0c0,0,0,1,0,0v1v-1v1v-1
			c1-1,0-3-1-3C188,138,187,138,186,140z"/>
	</g>
	<g>
		<path class="st1" d="M194,138l13-7c3.6-1.8,7.3-3.4,11-5h1v-1c3.3-1.2,6.6-2.2,10-3c2,0,3-2,2-3c0-2-2-2-3-2l-14,5
			c-1.3,0.9-1.8,2.6-1,4c0.7,0.9,1.9,1.3,3,1l14-4c1-1,2-2,1-3c0-2-1-3-3-2l-14,4l2,5c4-2.4,8.4-4.1,13-5l-1-5c-10,2-20,8-29,13
			c-2.6,1.1-5.3,2.1-8,3c-1,1-2,3-1,4S192,139,194,138z"/>
	</g>
	<g>
		<path class="st1" d="M230,123l4-2l-3-5c-5.6,2.9-11.2,5.5-17,8l-1,1h-1l2,5l9-5l4-2c1-0.7,2-1.3,3-2h1h-2v-1v2l3,1l4-2l3-5
			c3-3,4-7,6-10l2-3c0.6-0.7,1.3-1.4,2-2v-3h-4c-6.8,5.9-12,13.5-15,22l5,1v-1l2-3c2.6-4.4,5.3-8.7,8-13c3.5-5.5,7.1-10.8,11-16l8-9
			l-5-3c-2,4.2-4.3,8.2-7,12v1h-1c-1,1.4-2,2.7-3,4l-5,6l1,4l4-1l1-2l1-1l2-2c4.8-5.4,8.8-11.5,12-18c1-2,0-3-1-4h-3
			c-10,10-18,22-25,34l-3,5l-2,6c-1,1,0,3,1,3c2,0,3,0,4-2v-1l1-2c1.4-2.8,3.1-5.5,5-8v-1c2.3-3,5-5.7,8-8l-4-3c-4,4-6,9-9,14
			c-0.6,1-1.3,2-2,3c-0.6,0.7-1.3,1.4-2,2l-1,1c0,0,1-1,0,0c0.9-0.6,2.2-0.4,2.8,0.5c0.1,0.1,0.2,0.3,0.2,0.5l-1-1l-1-2l-4,1l-5,2
			l-11,6c-1.6,0.4-2.5,2.1-2.1,3.7c0,0.1,0.1,0.2,0.1,0.3c1,1,2,2,4,1l20-9c1-1,2-3,1-4c-0.9-1.3-2.6-1.8-4-1l-3,2c-1,1-2,2-1,4
			C227.7,122.9,228.9,123.3,230,123z"/>
	</g>
	<g>
		<path class="st1" d="M262,73l-1,1c-0.4,0.2-0.8,0.6-1,1c-0.1,0.3-0.1,0.7,0,1c-0.1,0.3-0.1,0.7,0,1v1l2,1c0.3,0.1,0.7,0.1,1,0l2-1
			v-1l1-1c0.1-0.3,0.1-0.7,0-1c0.1-0.3,0.1-0.7,0-1h-1l-1-1H262z"/>
	</g>
	<g>
		<path class="st1" d="M262,78c1,0,3-1,3-3c0-1-1-2-3-2l-3,2C259,76.7,260.3,78,262,78z M188,146c3.1,3.1,7.8,4.3,12,3l6-3l6-3l11-5
			l3-1l1-1h1c4.2-1.8,8.5-3.1,13-4h2c1.2-0.3,2.2-1,3-2l3-6c4.6-9,10.3-17.4,17-25l10-11l2-3l2-4l-2-3l-3-3h-4v4l3,2l1,1v1v-2l-1,1
			c-1,1-2,2-3,3l-8,9c-7.8,9-14.2,19.1-19,30l-2,3c1-1,0,0,0,0c1,0,0,0,0,0h-1c1,0,0,0,0,0h-1c-1.7,0.2-3.4,0.6-5,1
			c-7.7,2.1-15.1,5.1-22,9l-12,6h-1c-0.6,0.4-1.3,0.7-2,1h-4c0,0-1-1,0,0l-2-1c0-1,1,0,0,0v-1h-4V146z M221,97l1-1l1-2c0,0,0,1,0,0
			h1v-1l2-2l2-1v-2h1l-2,1c-1-2-2-2-2-1h1v1l1,2l1,3l2,2l3-1l2-3v-2l1-1l-2,1c0,0-1-1,0,0l2,1h4c2-1,3-4,4-6l-2-3c-2,0-3,0-3,2l-1,1
			v1c0,0,0-1,0,0h-1c1,0,1,0,0,0c0,0,1,0,0,0c0,0,1,0,0,0h1c-1,0,0,1,0,0h-1l-1-1c-1.1-1-2.9-1-4,0l-1,3l-3,4l5,1l-1-4l-2-4
			c-1-2-3-2-5,0l-2,2l-3,3c-1.1,1.6-2.1,3.3-3,5c-1,1-1,3,1,3C219,99,220,99,221,97z"/>
	</g>
</g>
<g>
	<g>
		<path class="st1" d="M226.8,371.9c-9.3,0-20.3-3.2-34.5-12.1c-1.1-0.7-1.7-2-1.5-3.3c0-0.2,0.7-4.1,4.3-8.8
			c-0.1-0.1-0.3-0.2-0.4-0.3l-3.8-3.8c-2.4,0.3-6.6,0.2-9.7-2.4c-1.8-1.6-3.9-4.6-3.5-10.2c0-3.8,1.5-8.7,8.2-10.9
			c0.1,0,0.3-0.1,0.4-0.1c6.3-1.3,13.6,1.4,17.2,6.2c0,0.1,0.1,0.1,0.1,0.2l6.2,9.8c4.9-2.3,10.2-3.8,15.8-4.3c0.1,0,0.2,0,0.3,0
			c17.6,0,29.5,6.1,39.6,20.4c0.5,0.8,0.7,1.7,0.5,2.6s-0.8,1.7-1.6,2.1c-2.3,1.3-4.6,2.6-6.8,3.9
			C248.2,366.4,238.9,371.9,226.8,371.9z M197.9,355.6c27.7,16.6,40.5,9.1,56.5-0.4c1.2-0.7,2.5-1.5,3.8-2.2
			c-8.4-10.5-17.7-14.7-32-14.7c-8.2,0.7-15.8,3.9-22,9.2C200.5,350.6,198.7,353.7,197.9,355.6z M192,336.8c0.9,0,1.7,0.3,2.3,0.9
			l5,5c0.1,0.1,0.1,0.1,0.2,0.2c0.1-0.1,0.3-0.2,0.4-0.4c1.4-1.2,2.9-2.3,4.4-3.3l-6-9.4c-2.2-2.8-6.7-4.4-10.5-3.7
			c-2.6,0.9-3.6,2.2-3.6,4.8c0,0.1,0,0.2,0,0.3c-0.2,2.4,0.2,4,1.2,4.8c1.6,1.4,4.8,1,5.8,0.7C191.5,336.8,191.7,336.8,192,336.8z"
			/>
	</g>
	<g>
		<path class="st1" d="M250.9,381c-1.5,0-2.9-0.4-4.1-1.1c-4.2-2.6-5-8.4-5.1-11.8c-0.8-0.3-1.4-0.9-1.7-1.8l-3.6-9l-5.8-3.5
			l1.7,10.8c0.3,1.8-0.9,3.4-2.7,3.7c-1.8,0.3-3.4-0.9-3.7-2.7l-1.8-11.9l-3.9,2.3l-0.8,8.4c-0.2,1.8-1.8,3.1-3.6,2.9
			c-1.8-0.2-3.1-1.8-2.9-3.6l0.8-7.7l-3.6-1.6l-4.1,8.1c-0.8,1.6-2.8,2.3-4.4,1.5c-0.7-0.4-1.3-1-1.5-1.7c-0.2,0.4-0.4,0.8-0.8,1.1
			c-2.3,2.1-5.2,6.1-4.7,8.1c0.3,1.2,2.3,2,3.4,2.4c1.7,0.6,5.7-4,8.1-9.3c0.8-1.6,2.7-2.3,4.3-1.6c1.6,0.8,2.3,2.7,1.6,4.3
			c-0.1,0.1-1.7,3.6-4.1,6.8c-4.9,6.5-9.2,6.8-11.9,5.9c-5.5-1.7-7.3-4.8-7.8-7.1c-1.5-6.6,5.8-13.6,6.6-14.4
			c1.3-1.2,3.4-1.1,4.6,0.2c0.3,0.3,0.5,0.6,0.6,1c0-0.1,0.1-0.1,0.1-0.2l4-7.9l-1.4-0.7c-1.6-0.8-2.3-2.7-1.6-4.3
			c0.8-1.6,2.7-2.3,4.3-1.6l11.4,5.3l7.1-4.3l0.9-9.4c0.2-1.8,1.7-3.1,3.5-2.9c1.8,0.2,3.1,1.7,2.9,3.5l-0.8,8.8
			c0.1,0,0.2,0.1,0.2,0.1l7.2,4.3l9.8-9.8c1.3-1.3,3.3-1.3,4.6,0c1.3,1.3,1.3,3.3,0,4.6l-3.2,3.2l6.9,6.9l3.5-4.4
			c1.1-1.3,3-1.6,4.4-0.6c4.5,3.2,8.4,8,6,12.1c-0.5,1.2-1.5,2-2.7,2.4c-1.6,0.5-3.7,0-5.7-0.9c0.8,3.6,1.2,8.2-0.3,11.4
			c-0.8,1.7-2.1,2.9-3.8,3.6C255,380.3,252.9,381,250.9,381z M248.2,366.2c-0.1,2.7,0.5,7.2,2,8.1c0.7,0.4,2.3,0,4.2-1.1
			c0.2-0.1,0.4-0.2,0.6-0.3c0.1,0,0.2-0.1,0.3-0.4c1.1-2.2-0.1-8-1.3-11.3c-0.8,0-1.7-0.3-2.3-1l-7.2-7.2l-2,2l3.1,7.7
			C247.2,363.1,248.3,364.5,248.2,366.2z"/>
	</g>
</g>
<g>
	<g>
		<path class="st1" d="M388.5,125.9c-9.5,0-20.7-3.2-35.2-12.1c-1.3-0.8-1.9-2.4-1.4-3.8c0.1-0.2,1.3-3.7,4.4-8.2
			c-0.3-0.2-0.6-0.5-0.9-0.8l-2.8-3.5c-2.4,0.2-6.4,0.1-9.4-2.4c-1.8-1.6-3.9-4.6-3.5-10.2c0-3.8,1.5-8.7,8.2-10.9
			c0.1,0,0.3-0.1,0.4-0.1c5.8-1.2,13.4,1,16.4,6.5l6.9,9.5c5.1-2.3,10.6-3.7,16.1-4c0.1,0,0.1,0,0.2,0c17.6,0,29.5,6.1,39.6,20.4
			c0.5,0.8,0.7,1.7,0.5,2.6c-0.2,0.9-0.8,1.7-1.6,2.1c-2.3,1.3-4.6,2.6-6.8,3.9C410.2,120.4,400.9,125.9,388.5,125.9z M359.1,109.7
			c28.4,16.5,41.2,9,57.4-0.5c1.2-0.7,2.4-1.4,3.7-2.1c-8.4-10.5-17.7-14.7-32.1-14.7c-8.4,0.5-16.5,3.8-22.9,9.1
			C362.1,104.5,360.2,107.6,359.1,109.7z M354,90.8c1,0,1.9,0.4,2.5,1.2l4,4.9c0.1-0.1,0.1-0.1,0.2-0.2c0.1-0.1,0.1-0.1,0.2-0.2
			c1.6-1.3,3.2-2.5,5-3.6l-6.5-9c-0.1-0.1-0.2-0.3-0.3-0.5c-1.2-2.5-5.5-4-9.3-3.3c-2.6,0.9-3.6,2.2-3.6,4.9c0,0.1,0,0.2,0,0.3
			c-0.2,2.4,0.2,4,1.2,4.8c1.6,1.4,4.8,1,5.8,0.7C353.5,90.8,353.7,90.8,354,90.8z"/>
	</g>
	<g>
		<path class="st1" d="M412.9,135c-1.5,0-2.9-0.4-4.1-1.1c-4.2-2.6-5-8.4-5.1-11.8c-0.8-0.3-1.5-1-1.8-1.9l-3.6-9.8l-5.9-2.9
			l1.7,11.1c0.3,1.8-0.9,3.4-2.7,3.7c-1.8,0.3-3.4-0.9-3.7-2.7l-1.8-11.9l-4.1,2.4l-1.7,8.6c-0.4,1.8-2.1,2.9-3.8,2.5
			c-0.9-0.2-1.7-0.7-2.1-1.5c0.1,0.6-0.1,1.2-0.4,1.8c-1.3,2.3-7.4,12.9-14.6,12.9c-0.8,0-1.5-0.1-2.3-0.4c-5.1-1.7-6.8-4.7-7.3-7
			c-1.6-6.6,5.3-13.6,6.1-14.4c1.3-1.3,3.3-1.3,4.6,0c1.3,1.3,1.3,3.3,0,4.6l0,0c-2.1,2.1-4.8,6.1-4.3,8.3c0.2,0.9,1.2,1.7,3.1,2.3
			c1.7,0.6,6.2-4.1,9.1-9.5c0.9-1.6,2.8-2.2,4.4-1.3c0.5,0.3,0.9,0.7,1.2,1.1c0-0.3,0-0.6,0.1-0.9l1.5-7.4l-3.5-1.5l-4,7.1
			c-0.9,1.6-2.9,2.1-4.4,1.3c-1.6-0.9-2.1-2.9-1.3-4.4l3.6-6.5l-2.1-0.9c-1.6-0.7-2.4-2.6-1.7-4.3c0.7-1.6,2.6-2.4,4.3-1.7l12.5,5.3
			l7-4.2V90c0-1.8,1.5-3.2,3.2-3.2s3.2,1.5,3.2,3.2v10c0.1,0,0.1,0.1,0.2,0.1l7.9,4l9.3-9.3c1.3-1.3,3.3-1.3,4.6,0
			c1.3,1.3,1.3,3.3,0,4.6l-3.2,3.2l6.9,6.9l3.5-4.4c1.1-1.3,3-1.6,4.4-0.6c4.5,3.2,8.4,8,6,12.1c-0.5,1.2-1.5,2-2.7,2.4
			c-1.9,0.6-4.2-0.1-6.5-1.3c1,3.6,1.9,8.4,0.4,11.8c-0.8,1.7-2,2.9-3.7,3.6C417,134.3,414.9,135,412.9,135z M410.2,120.2
			c-0.1,2.7,0.5,7.2,2,8.1c0.7,0.4,2.3,0,4.2-1.1c0.2-0.1,0.4-0.2,0.6-0.3c0.1,0,0.1,0,0.2-0.2c0.9-2-0.7-7.9-2.1-11.4
			c0-0.1-0.1-0.1-0.1-0.2c-0.4-0.2-0.9-0.4-1.2-0.8l-7.2-7.2l-1.7,1.7l2.9,8C409.2,117.1,410.3,118.6,410.2,120.2z"/>
	</g>
</g>
<g>
	<g>
		<path class="st1" d="M503,147.4c-4.6,0-9.1-2.1-11.9-6.1c-4.2-5.8-3.5-13.8,1.3-18.8c-2.2-3.6-3.6-7.4-4-11.3
			c-1.2-0.6-2.2-1.7-2.5-3.1c-0.6-2.3,0.6-4.6,2.8-5.5c0.4-2.1,1-4.1,1.9-6c3-6.8,8.5-11.9,15.4-14.6c6.1-2.3,12.7-2.5,18.8-0.4l1-2
			c-0.2-0.3-0.4-0.6-0.5-0.9c-0.7-1.4-0.7-2.9-0.2-4.4c0.5-1.4,1.5-2.6,2.9-3.2c1.4-0.7,2.9-0.7,4.4-0.2c1,0.3,1.8,0.9,2.5,1.7
			c6.3-1.4,13,1.3,16.5,6.8c2.2-0.8,4.5-1.2,6.8-1.2c8.7-0.3,16.3,5.6,18,14.1c2,9.6-4.2,18.9-13.8,20.9
			c-8.3,1.7-16.4-2.7-19.7-10.1c0.9,5.8-0.1,11.8-2.9,17c3,2.6,4.8,6.3,5.1,10.4c0.4,8.1-5.8,15-13.9,15.4
			c-3.9,0.2-7.7-1.1-10.6-3.8c-1.4-1.3-2.5-2.8-3.3-4.4c-1,2.7-2.8,5-5.2,6.8C509,146.5,506,147.4,503,147.4z M492.8,107
			c0.6,0.5,0.9,1.2,0.9,2c0,4.1,1.6,8.6,4.5,12.4c0.4,0.6,0.6,1.3,0.5,2c-0.1,0.7-0.5,1.4-1.1,1.8c-4.2,3-5.1,8.8-2.1,13
			c3,4.2,8.8,5.1,13,2.1c2.6-1.9,4-4.9,3.8-8.1c0-0.8,0.2-1.5,0.8-2.1c0.5-0.5,1.3-0.8,2.1-0.8c0.9,0.1,1.8,0.1,2.7,0
			c0.7,0,1.4,0.2,2,0.7c0.5,0.5,0.9,1.2,0.9,1.9c0.1,2.5,1.2,4.8,3.1,6.4c1.8,1.7,4.2,2.5,6.7,2.4c5.1-0.3,9.1-4.6,8.8-9.8
			c-0.2-3.2-1.9-6-4.6-7.6c-0.6-0.4-1.1-1-1.3-1.7s0-1.5,0.4-2.1c3.7-5.4,4.7-12.4,2.7-18.6c-0.2-0.7-0.2-1.5,0.2-2.2
			c0.4-0.7,1-1.1,1.8-1.3l5-1c1.5-0.3,2.9,0.6,3.2,2.1c1.4,6.6,7.9,10.9,14.5,9.6s10.9-7.9,9.6-14.5c-1.2-6-6.6-10.1-12.6-9.8
			c-0.1,0-0.1,0-0.2,0c-2.3-0.1-4.6,0.5-6.6,1.6c-0.7,0.4-1.5,0.5-2.2,0.2c-0.7-0.2-1.3-0.8-1.6-1.5c-2.2-5.2-8.2-7.7-13.5-5.5
			c-0.8,0.3-1.7,0.3-2.4-0.2c0.2,0.6,0.1,1.3-0.2,1.9l-3,6c-0.6,1.3-2.2,1.8-3.5,1.3c-11.2-5-24.4,0.1-29.4,11.3
			c-0.9,2.1-1.5,4.3-1.8,6.5C493.6,106,493.3,106.6,492.8,107z M530.3,76c0,0-0.1,0-0.1,0c-0.1,0.1-0.2,0.3-0.1,0.4
			c0,0.1,0.1,0.1,0.1,0.1c0.1,0,0.2,0.1,0.2,0.1C530.3,76.5,530.3,76.2,530.3,76L530.3,76C530.3,76,530.3,76,530.3,76z"/>
	</g>
	<g>
		<path class="st1" d="M499.7,117.4c-0.9,0-1.7-0.2-2.4-0.6c-1.3-0.7-2.1-2.1-2.1-3.8c0-0.2,0-0.4,0.1-0.5c0.7-3.3,6-6.6,21.3-15.3
			c3.1-1.8,6.8-3.9,10.3-6c-1.4,0.7-2.7,1.4-3.9,2c-5.2,2.7-10.6,5.5-14.9,7.3c-3,1.4-5.4,2.5-7,3.3c-2.8,1.4-4.7,2.3-6,0.1
			c-1.3-2.1,0.6-3.7,1.3-4.2c0.5-0.4,1.3-1,2.3-1.8c0.7-0.6,1.6-1.2,2.6-2l14.9-13c1.1-1,2.8-0.9,3.8,0.3c1,1.1,0.9,2.8-0.3,3.8
			l-4.9,4.3c1.9-0.9,3.8-1.9,5.7-2.9c13.4-6.9,17.9-9,20.6-7.3c0.9,0.6,1.5,1.5,1.6,2.6c0.1,1.1-0.1,2.1-1,3.3
			c1.2-0.7,2.2-1.2,3.1-1.7c3-1.5,5.8-3,7.5-1c1.9,2.1-0.3,4.4-1.3,5.5c-1.6,2-2.1,3.4-2.2,4.1c0.9-0.2,2.8-1.1,5.1-3.6
			c4.4-5.7,9.7-7.6,12.9-7c1.8,0.3,3.1,1.4,3.6,3c0.4,1.4,0.4,3.7-2.6,6.6c0,0-0.1,0.1-0.2,0.1c-2.6,2.3-5.4,5.1-7.5,7.6
			c4.1-2.7,5.4-4.9,5.4-4.9c0.7-1.3,2.3-1.9,3.6-1.2c1.3,0.7,1.9,2.3,1.2,3.6c-0.2,0.5-2.6,4.9-11.2,9.2c-1.6,0.8-5.5,2.7-7.4-0.1
			c-1.4-2.1-0.4-4.6,3.7-9.5c2.5-3,5.8-6.4,8.6-8.8c0.1-0.1,0.1-0.2,0.2-0.2c-1.5,0.5-3.9,1.8-6.2,4.9c0,0-0.1,0.1-0.1,0.1
			c-4.5,5.2-9.8,7-12.9,4.4c-0.8-0.6-2.5-2.5-1.4-6.2c-7.1,4.1-17.8,11-23.1,15.1c-0.1,0.1-0.2,0.1-0.3,0.2l-2.1,1.2
			C508.6,114.4,503.2,117.4,499.7,117.4z M500.5,113.9L500.5,113.9L500.5,113.9z"/>
	</g>
	<g>
		<path class="st1" d="M530,141.7c-0.6,0-1.2-0.2-1.7-0.6c-1.2-0.9-1.3-2.6-0.4-3.8c1.1-1.4,2.2-2.9,3.1-4.4c0,0-0.1,0.1-0.1,0.1
			c-2.7,3.1-6.2,4.8-9,4.2c-1.6-0.3-2.9-1.4-3.3-2.9c-0.2-0.7-0.2-1.4-0.1-2.1c-4.2,4.1-9.1,7.6-15.4,7.6c-4.2,0-6.3,0-6.7-2.5
			c-0.1-0.9,0-1.5,0.4-2c-0.1,0-0.2-0.1-0.3-0.1c-0.9-0.4-1.6-1.2-1.9-2.2c-1-2.9,1.1-5.5,6.3-8.7c-0.3-0.6-0.6-1.3-0.4-2.4
			c0.4-7.9,21.5-18.2,30.6-22.3c1.4-0.6,3,0,3.6,1.4c0.6,1.4,0,3-1.4,3.6c-10.9,4.9-20.9,10.8-25.2,14.6c3.7-1.8,8.9-5,12.1-7
			c10.3-6.3,12.6-7.5,14.7-5.7c0.8,0.7,1.4,2,0.8,3.7c-0.1,0.1-0.1,0.3-0.2,0.4c-0.7,1.2-2.2,2.4-4.6,3.9c1.9-0.4,4.8-0.9,6.1,1.4
			c1.3,2.6-0.9,4.7-5,8.4c-1.9,1.8-4.1,3.8-5.7,5.6c-0.1,0.1-0.1,0.1-0.2,0.2c-0.5,0.5-0.9,0.9-1.2,1.3c0.7-0.4,1.4-1,2.2-1.9
			c0.1-0.1,0.2-0.3,0.4-0.4c3.3-2.7,7.5-5.5,10.1-3.4c2.4,1.9,0.7,5.3,0,6.7c-1.4,3-3.2,5.9-5.3,8.5
			C531.6,141.4,530.8,141.7,530,141.7z M514.7,122.7c0.5,0.1,1,0.4,1.4,0.8c0.7,0.6,1,1.3,1.1,2.1c0.7-0.7,1.3-1.5,2-2.2
			c1.8-2.1,3.6-4.1,5.4-5.7c-2,1-4.2,2.2-6.7,3.4C516.9,121.6,515.8,122.2,514.7,122.7z"/>
	</g>
</g>
</svg>
