<svg xmlns="http://www.w3.org/2000/svg" viewBox="0 0 613 460">
  <rect width="100%" height="100%" fill="#19243b"/>
  <path fill="none" stroke="#005e5d" stroke-linecap="round" stroke-linejoin="round" stroke-miterlimit="10" stroke-width="6.5" d="M211.4 218s6.7-31 23.5-13.4c16.8 17.7 12.8 16 12.8 16l2.1-17.6m-16.1 14 14 3.7m11 16.7s17.2 26.7-7.1 26c-24.3-.5-20.4-2.2-20.4-2.2l11 14m1.5-21.4-12.5 7.4m-16.5 6.5s-31.6 3.4-20.2-18c11.4-21.6 11.2-17.3 11.2-17.3l-17.5 3.6m18.5 10.9-1-14.5m325.1-4.4s6.7-31 23.5-13.4c16.8 17.7 12.8 16 12.8 16l2-17.6M553 227l14 3.7m11.1 16.7s17.2 26.7-7.1 26c-24.4-.5-20.4-2.2-20.4-2.2l11 14m1.5-21.4-12.5 7.4m-16.6 6.5s-31.5 3.4-20.1-18c11.4-21.6 11.2-17.3 11.2-17.3l-17.5 3.6m18.4 10.9-1-14.5M65.6 357.9s6.8-31.1 23.6-13.5c16.7 17.7 12.8 16 12.8 16l2-17.6m-16 14 14 3.7m11 16.7s17.2 26.7-7.2 26c-24.3-.5-20.4-2.2-20.4-2.2l11 14m1.6-21.4L85.4 401M69 407.5s-31.7 3.4-20.3-18C60.1 367.8 60 372.1 60 372.1l-17.4 3.6m18.4 11-1-14.5"/>
  <path fill="#005e5d" d="m377.6 199.2.2-.4.2-.3-.4.4.1-.1-.2.2-.8.5-2.7 1.4-.9.4-.5.2s-.5.2-.1 0a26 26 0 0 1-5.5 1.8l-4.3.8-2.2.3-1.2.2h-.3l-.5.1a52 52 0 0 1-6 .4h-.9.2l-.5-.1-.7-.2c-.4-.1.6.3 0 0l-.3-.2c-.3-.1.2.2.2.2l-.4-.4c-.3-.4.1 0 0 0-.2-.2-.1-.5-.1-.2 0 .4 0 .1 0 0-.2-.6 0 0 0 .2v-.7c0-.1.1-.4 0-.1-.2.4 0 0 0-.2v.3c.2-.5-.4.3-.2 0 .4-.3-.5.3 0 0l1.9-.9 1-.4.5-.2c-.4.1 0 0 0 0a52.3 52.3 0 0 1 13.2-3.7l.5-.1h.1l1.4-.2a55.3 55.3 0 0 1 8.8-.2h.4-.4.5l.4.2-.2-.1c-.6-.3 0 0 0 0l.2.1-.3-.2c.5.6-.1-.3 0 0 .3.5 0-.6 0-.1.2.7 0-.4 0 0v.3c0 .6 0 0 0 0 .2 0-.1.9-.2 1-.4 1.3.5 3 2 3.3 1.4.3 2.8-.5 3.2-1.9.9-2.6.4-5.7-2.1-7.1a9 9 0 0 0-4.3-1 59 59 0 0 0-26.2 5.1c-1.4.6-3 1.2-4.2 2.3-2.4 2.4-1.6 6.6.7 8.7 2.3 2 5.5 2 8.3 1.9a95 95 0 0 0 10.7-1.5c3.7-.6 7.2-1.7 10.6-3.3 2.5-1.1 5.5-2.4 6.5-5 .5-1.4-.5-3.1-1.8-3.4-1.6-.4-2.8.5-3.4 1.9z"/>
  <path fill="#005e5d" d="m344.4 205.2 1.1 4.4.6 2c0 .5.2.8.3 1.2l.1.5c0 .2 0 .4 0 0v.6c0 .5 0 .2 0 0l-.1 1a5.7 5.7 0 0 0 .6 4.2c.2.3 0-.4 0 0v.3c0-.4 0 0 0 0v.6l.1 1c.1 1 .4 1.9 1 2.7l.5.7.3.5s.2.6 0 .2c.6 1.4 1 2.8 1.3 4.2.5 1.5 1 3 1.3 4.4l.6 2.1.1.5v1.3c0 1.4-.3 2.8-.2 4.2a15.3 15.3 0 0 0 3.3 8.2c1.2 1.2 3 1.2 4.6 1.3 4.8.4 9.7.4 14.5-.5 5.2-1 10.2-3.4 13.7-7.5 1-1 1.1-2.8 0-3.8-1-1-2.8-1.1-3.8 0l-2.3 2.3-.3.2c-.3.2.4-.3 0 0a20.7 20.7 0 0 1-3.4 2s-.3 0-.5.2a25.6 25.6 0 0 1-4.9 1.4l-.8.1c-.2 0-1 .1-.4 0a41.1 41.1 0 0 1-9.9.3l-3.4-.2c-.2 0-.3-.2 0 0l.4.2s.4.5.3.2l-.2-.3-.5-.8-.2-.4c-.2-.4.2.5 0-.2a5 5 0 0 1-.6-1.7l-.2-.9v.1-.6l.2-4c.1-1.5-.3-3-.7-4.5l-1.3-4.3-1.1-4c-.3-.8-.5-1.5-.9-2.2l-1-1.7s-.3-.3-.2-.4v.3-1c0-1-.2-2-.6-3l-.2-.3-.1-.3v.2c0 .2.2.4 0 0 .1.2 0 .3 0 0 .3-1 .5-1.8.4-2.7-.1-1.7-.6-3.3-1-5-.5-1.5-1-3.1-1.3-4.7-.4-1.4-2-2.4-3.3-2a2.8 2.8 0 0 0-2 3.4z"/>
  <path fill="#005e5d" d="M388.6 241.1a45.8 45.8 0 0 0-2.2-14.1v-.3l-.4-.6.2.5-.3 1.3a5 5 0 0 0 .5-3c-.2-.7-.7-1.3-1-2l-.2-.4c.1.5 0 0 0 0l-.2-.8c-.2-.4 0 .3 0 0v-.4l-.1-1a8 8 0 0 0-1-4.3l-.8-1-.3-.4c.3.5 0 0 0 0s.2.6 0 0v-1a43.5 43.5 0 0 1 .9-3.4c.4-1.5.6-3.1.8-4.7.1-1 .3-2.2.1-3.3 0-.8-.2-1.7-.4-2.5-.4-2-.9-4.3-2.6-5.6-1.2-.8-3-.2-3.7 1-.7 1.4-.3 2.8 1 3.7l-.5-.4c-.3-.4-.4-.6-.3-.3l.1.2c.2.2 0 .3 0-.3v.4a19.8 19.8 0 0 1 1 3.4v.7l.1.3v-.3l-.1 2.5-.5 2.6c-.4 2.1-1.1 4.1-1.3 6.3 0 1 .2 2.2.6 3.2.3.6.7 1 1.1 1.5l.3.4c-.2-.3-.2-.3 0 0-.1-.3-.1-.3 0 0v.6l.1 1.2a10.7 10.7 0 0 0 1.2 5l.4.5c.2.3 0 .3 0 0l.2-1.2-.4.8v1.3c0 .3 0 .5.2.8.3.8.3.9 0 .3l.2.3a27.6 27.6 0 0 1 1.5 6.3l.2 1.2c0-.6 0-.1 0 0v.7c.2 1.5.3 3 .2 4.4 0 1.4 1.3 2.7 2.7 2.7 1.6-.1 2.6-1.3 2.7-2.8z"/>
  <path fill="#005e5d" d="M351.2 218c5.7.2 11.3-.3 16.9-1.3 5-.9 11.4-1.8 14.6-6.3.9-1.2.3-3.1-1-3.7-1.3-.8-2.7-.3-3.6 1 .3-.5-.3.2-.4.3l-.2.2a10.4 10.4 0 0 1-2.5 1.3l-1.8.6a66.8 66.8 0 0 1-9 1.8h-.6a332.4 332.4 0 0 0-4.6.5l-7.8.3a2.8 2.8 0 0 0-2.7 2.7c.1 1.5 1.2 2.7 2.7 2.7z"/>
  <path fill="#005e5d" d="M351.2 224.3c2.9.4 5.8.9 8.8.8 3-.1 5.8-.6 8.7-1.2 5-1 10-2.4 14-5.8 1-1 1-2.9 0-3.8-1.2-1-2.7-1-3.8 0l-.5.3-.6.4a15.8 15.8 0 0 1-2 1.2l-.6.3-.6.2-.7.3a52.6 52.6 0 0 1-10.3 2.4h-.8a19.7 19.7 0 0 1-2.8.3l-3.8-.1-3.6-.5c-1.4-.2-3 .4-3.3 1.9-.3 1.3.4 3 1.9 3.3z"/>
  <path fill="#005e5d" d="M353.4 231.6c5.3.9 10.6 1 15.9 0 4.9-.8 9-3.3 13-6 1.2-.8 1.9-2.4 1-3.7-.7-1.2-2.4-1.8-3.7-1-1.8 1.2-3.6 2.5-5.5 3.5l-1.6.8c-.5.2.3-.1-.3 0l-.8.4-3.3.8-.8.2c-1 .1.5 0-.4 0a40.5 40.5 0 0 1-10.6 0h-.9l-.6-.2c-1.4-.2-3 .4-3.3 2-.3 1.2.4 3 2 3.2z"/>
  <path fill="#005e5d" d="M355.6 240.1c10.7 0 21.8-2.8 29.6-10.5 1-1 1-2.9 0-3.8-1-1-2.7-1.1-3.8 0l-2.6 2.3-.3.2a25.3 25.3 0 0 1-5.2 3l-.9.4c-.5.3.3 0-.3.1l-1.6.7a43 43 0 0 1-14.8 2.2c-1.5 0-2.8 1.3-2.7 2.7 0 1.5 1.1 2.7 2.6 2.7z"/>
  <path fill="#005e5d" d="M356.3 245.4a54 54 0 0 0 23-4.5 17 17 0 0 0 6.4-4c1-1 1.1-2.8 0-3.8-1-1-2.8-1-3.8 0l-.7.7c-.4.4.3-.1-.2.2a18 18 0 0 1-2.9 1.6l-.7.3-.6.3a48.5 48.5 0 0 1-12.4 3.4h-.8c-2.4.4-4.9.5-7.3.4-1.4 0-2.8 1.3-2.7 2.7 0 1.5 1.2 2.6 2.7 2.7zm62.2-16.5c4.2.7 8.6.7 12.6-.9 2.3-.9 4.8-2.8 4-5.6-.7-2.4-3.6-3.2-5.6-4a47 47 0 0 0-23.8-3.3 5.3 5.3 0 0 0-4.2 5.5c0 2.1 1.7 4 4 3.7-.5 0-1-.2-1.4-.3 4.5 2.3 9.5 4 14.4 4.9 1.4.2 3-.4 3.4-1.9.3-1.3-.4-3-2-3.3a45.2 45.2 0 0 1-9-2.6l-1.1-.4c-.5-.2.4.2 0 0l-.6-.3-2.2-1-.8-.4a3 3 0 0 0-.9 0h.3l1 .7.1.2.2.6c.1.5 0 0 0-.2v.2l.1-.5s-.2.4 0 .2c.1-.3-.2.1-.2.2-.4.4-.1-.1 0 0 .1 0-.4.1-.1 0h.3l.3-.1c.3-.1-.6 0-.1 0l3.3-.1a47.8 47.8 0 0 1 6.3.3c.4 0-.4 0 0 0a48.5 48.5 0 0 1 11.4 3l.3.2a36.8 36.8 0 0 1 1.7.8c.5.3 0 0-.1-.3-.1-.2-.2-1.2-.1-1.4 0-.1.3-.5.1-.3l-.2.2c.2-.2.2-.2 0 0 0 0-.4.2-.1 0l-.3.1a15.6 15.6 0 0 1-3.7 1h-.5a21.9 21.9 0 0 1-4.7 0h-.2l-.4-.1c-1.4-.2-3 .3-3.4 1.9-.2 1.3.4 3 2 3.3z"/>
  <path fill="#005e5d" d="M401.7 219.8v1.3-.1l-.2.7v.3c-.2.5.1-.3 0 0l-.7 1-.1.2.2-.2-.4.5-1 1a9.9 9.9 0 0 0-2 4.3 109.4 109.4 0 0 0-3.5 24.4l-.3 4.2-.1 2c0 1-.3 2 .1 3 .2.4.5.8.9 1 .2.3 0 0-.1 0l.2.3.2.4c-.1-.3 0 0 0 0l.2.5c.3 1 .5 2 1 3 1.3 2.7 4.7 3.1 7.2 3.8a117 117 0 0 0 19.4 3.4c1.4.1 2.7-1.3 2.7-2.7 0-1.6-1.2-2.6-2.7-2.7a66 66 0 0 1-8-1 147.7 147.7 0 0 1-12.6-3l-1-.2c-.5-.2.3 0-.2-.1-.3-.2-.3-.2 0 0-.2-.2-.2 0 .1.3 0 0-.3-.4-.2-.5.1.4.2.5 0 .2v-.3l-.2-.6-.4-1.3c-.5-1.3-1-2.5-2-3.5l.7 2c.4-6.4.7-12.7 1.5-19v-.7a59.6 59.6 0 0 1 1.5-8l1.2-4.9.2-.4c-.1.4 0 0 0 0l.1-.2.6-.6c2-2 3.3-4.8 3-7.8 0-1.4-1-2.7-2.6-2.7-1.4 0-2.8 1.2-2.7 2.7z"/>
  <path fill="#005e5d" d="m425 273.2 1.2-2 .3-.4.7-.7c.1 0 .5-.3.1 0l.2-.2c.3-.2-.5.1-.4.2.4.3 1.6-1.1 1.7-1.4l.8-1.7c1.3-3.3 2.2-6.8 2.8-10.3.7-3.6 1-7.2 1.5-10.8l.3-2.7.2-1.3v-.5c0 .5 0-.3.1-.4l.9-5.3c.2-1.1.5-2.3.4-3.5 0-.9-.3-1.8-.5-2.7l-.3-1.3v-.4c-.1-.2-.2-.7-.1-.2l-.1-1.5V225c.3-1.4-.3-3-1.8-3.4-1.3-.3-3 .4-3.4 2a15 15 0 0 0 0 5l.8 3.5v.4c0-.1 0-.6 0 0v.6s0 .5 0 0l-.4 2.2-.7 4.4-1.2 9.2-.2 2-.1.7a81.7 81.7 0 0 1-3.5 14.2l-.2.3 1.6-1.2c-1 .2-2 1-2.7 1.8-1 1-2 2.4-2.6 3.8-.5 1.3-.4 3 1 3.7 1.2.6 3 .4 3.7-1z"/>
  <path fill="#005e5d" d="M400.6 230.3c9.7 3.8 20.5 7.7 31 4.2 1.4-.4 2.4-1.9 1.9-3.3-.4-1.3-1.9-2.4-3.3-1.9l-3.7 1H425a29.1 29.1 0 0 1-8.6-.5c-5-1-9.7-2.9-14.5-4.7-1.3-.6-3 .5-3.3 1.8-.4 1.6.5 2.8 1.9 3.4zm-4.4 31.2a57 57 0 0 0 29.7 6.5c1.4 0 2.8-1.2 2.7-2.7 0-1.4-1.2-2.7-2.7-2.7a54.5 54.5 0 0 1-9-.2l-.8-.1h-.5a51 51 0 0 1-12-3.3c-.3 0-.6-.2-1-.4l-.3-.1-3.3-1.6c-1.3-.7-3-.4-3.7 1-.7 1.2-.4 3 1 3.6z"/>
  <path fill="#005e5d" d="M420 226.7c-.5-1-.7-1.3-.6-.8v-1.3c0 .3 0 .1.3-.4.1-.3.3-.5.6-.7l.5-.2h-.3.7l-2.7-.2h.8a26.8 26.8 0 0 1-4.7-1l-.3-.1c-.5-.2.6.3.2 0l-.4-.2.3.3c.3.3.5.7.6 1l.1.7v.7l-.2.3s-.5.5-.2.3c.4-.4-.5.4 0 0 0 0 .3-.1-.1 0-.5.3-.2.1 0 .1h.4-.7 1.1-.7a19.8 19.8 0 0 1 4.5 1.2c.1 0 .4.2 0 0-.5-.2-.1 0 0 0l.4.2.9.5c.5.4 1.5.5 2 .3.7-.2 1.4-.7 1.7-1.2.3-.7.5-1.4.2-2.1-.2-.7-.6-1.2-1.2-1.6-.8-.7-1.9-1-2.9-1.4-.8-.4-1.6-.6-2.5-.8-1.6-.4-3.4-.8-5-.2-1.8.7-3.5 2.4-3 4.5.3 1 1.2 1.8 2.1 2.2a21 21 0 0 0 5.6 1.5c1.1.2 2.3.4 3.5.3 1.3 0 2.6-.5 3.3-1.6.7-1.3.5-3-.5-4.1-1-1-2.9-1-3.9 0s-1 2.7 0 3.8zm-29.6-23.8c.7 0-.3-.2 0 0 .3 0-.3-.4.1 0 0 0 .5.3.3.1l.2.2.8.9.2.3.2.3a16 16 0 0 1 2.3 4c.5 1.1 2 1.6 3 1.3 1.3-.4 2-1.4 2-2.6 0-.6 0 .4 0 0l.1-.5.3-.9c.2-.5-.2.3 0 0l.2-.4.5-.9c.3-.3 0 .1 0 .1l.4-.4.6-.7c.4-.4 0 0 0 0a6.7 6.7 0 0 1 1.4-.8c1.7-.8 1.8-3.9 0-4.6a8 8 0 0 1-1-.5l-.4-.3c-.4-.2 0 0 0 .1a10.5 10.5 0 0 1-1.1-1.1c-.3-.4.2.3 0 0l-.5-.8-.3-.5c-.2-.4.1.4 0 0l-.2-.9c0-.1-.2-.4-.1-.5v.3-.4c-.1-1.3-1-2.4-2.4-2.6-1.3-.2-2.5.6-3 2v.2l-.1.3-.1.1.1-.3a17.7 17.7 0 0 1-1.4 2.5l-.2.3.1-.1a12.1 12.1 0 0 1-.8.8l-.3.2-.6.4s.6-.2.3-.2l-.4.1c-.4.2.1 0 .3 0h-.5a2.8 2.8 0 0 0-2.7 2.7c.1 1.5 1.2 2.8 2.7 2.8 4.6-.1 7.6-4.5 8.9-8.4l-5.3-.8c.3 4 2.6 7.7 6.2 9.2v-4.6a11.1 11.1 0 0 0-6 9.1l5-1.4c-.9-1.8-2-3.6-3.2-5.2-1.4-1.7-3.1-3.4-5.6-3.3-1.4 0-2.7 1.2-2.6 2.7 0 1.4 1.1 2.7 2.6 2.7zm-18 68.1c-.3 0-.4.1-.1.1.1 0 0 0 0 0-.3 0-.3 0 0 0h-.3l.5.2s.5.4 0 0a19.2 19.2 0 0 1 2.4 2.3l.4.5c.1.1.3.4 0 0l1.4 2c.6 1 1.9 1.6 3 1.3 1.1-.4 2-1.4 2-2.6v-1c0-.6 0 .3 0 0l.1-.5a7.6 7.6 0 0 1 .3-.9l.2-.5a9.2 9.2 0 0 1 .6-1l.1-.2.8-.7c.2-.2 0 0-.1 0l.5-.3a2.7 2.7 0 0 0-.7-4.9l-.9-.3c.3.1.4.2.2 0h-.2l-.5-.3-.4-.3c-.5-.3.3.3 0 0l-.7-.7-.4-.3c-.2-.3.3.4 0 0l-.5-.8-.2-.5c.1 0 .2.5 0 0l-.3-1c-.2-1.2-1.5-2-2.6-2s-2.4.8-2.6 2a11.2 11.2 0 0 1-.5 2l-.2.5c-.1.2-.3.5 0-.2v.3l-.7 1.2-.4.6c0-.1.4-.5.1-.2l-.2.3-.5.4c-.3.4.4-.2.2 0h-.3l-.4.3.2-.1-.7.2c-1.4.2-2.3 2-1.9 3.3.5 1.5 1.8 2 3.3 1.9 4.2-.7 6.5-5.4 7.2-9.1h-5.2c.9 3.8 4 7 7.7 8l-.6-5a11.2 11.2 0 0 0-5.2 9.8l5-1.4a24.8 24.8 0 0 0-6.3-6.9 5.5 5.5 0 0 0-4-.6c-1.4.2-2.3 2-1.9 3.3.5 1.5 1.9 2.1 3.3 1.9zM58.7 76l.1-.3c.5-.8.4-.4.2-.3l-.4.4c-.3.3.1-.1.2-.1l-.3.2-.7.5-2.7 1.4-1 .4-.4.2s-.5.2-.1 0a26 26 0 0 1-5.5 1.8l-4.4.8-2.1.3-1.2.2h-.8a52 52 0 0 1-6.1.5h-.8.2l-.6-.1-.6-.2c-.4-.1.5.3 0 0-.2 0-.2-.2-.3-.2-.4-.2.2.2.2.2l-.4-.4c-.4-.4.1 0 0-.1-.2-.1-.2-.4-.2 0V81v.2-.7c0-.1.2-.4 0-.1-.1.3 0 0 0-.2.2-.4 0 .2 0 .2.2-.4-.4.4-.1.2.4-.4-.5.2 0 0l1.8-1 1-.4.5-.3c-.4.2 0 0 .1 0a52.3 52.3 0 0 1 13.2-3.6l.5-.1c.5-.1-.4 0 0 0l1.4-.2a55.3 55.3 0 0 1 8.9-.2h.3-.3.4l.4.1c.1 0 .4.2 0 0-.8-.3-.1 0-.2 0h.2c.3.2-.4-.3-.2 0 .5.4-.2-.4 0-.2.3.6-.1-.5 0 0 .1.7 0-.4 0 0v.3c0 .6 0 0 0 0l-.2 1c-.4 1.3.5 3 1.9 3.3 1.4.3 2.8-.5 3.3-2 .8-2.5.4-5.6-2.2-7a9 9 0 0 0-4.3-1 59 59 0 0 0-26.2 5.1c-1.4.6-3 1.2-4 2.3-2.5 2.4-1.8 6.6.6 8.7 2.2 2 5.4 2 8.3 1.9 3.5-.3 7.1-.8 10.7-1.5 3.7-.6 7.1-1.7 10.5-3.3 2.5-1.1 5.5-2.4 6.6-5.1.5-1.3-.6-3-1.9-3.3-1.5-.4-2.8.4-3.3 1.8z"/>
  <path fill="#005e5d" d="m25.5 82 1 4.5.6 2 .3 1.2.2.5c0 .2 0 .4 0 0v.6c0 .5 0 .2 0 0l-.2 1a5.7 5.7 0 0 0 .6 4.1c.2.4 0-.3 0 0l.1.4c0-.4 0 0 0 0V98a8 8 0 0 0 1 2.7l.6.7.2.5.1.2 1.3 4.2 1.3 4.4.6 2.1.1.5v1.3c-.1 1.4-.3 2.7-.2 4.2a15.3 15.3 0 0 0 3.2 8.2c1.3 1.2 3 1.2 4.7 1.3 4.8.3 9.7.4 14.4-.5a24 24 0 0 0 13.8-7.5c.9-1 1-2.8 0-3.8s-2.9-1.2-3.9 0c-.7.8-1.4 1.6-2.3 2.3l-.2.2c-.3.2.3-.3 0 0a20.7 20.7 0 0 1-3.4 2c-.1 0-.3 0-.5.2a25.6 25.6 0 0 1-4.9 1.4h-1c-.2.1-1 .2-.3.2a41.1 41.1 0 0 1-10 .2l-3.3-.2c-.2 0-.3-.2 0 0l.4.2.2.2-.2-.3-.4-.8-.2-.4-.1-.2-.5-1.7-.2-.9v.1-.6c-.1-1.4.1-2.7.2-4 .1-1.5-.3-3-.8-4.5l-1.2-4.3-1.2-4.1-.8-2.1-1-1.7-.3-.4c.1 0 .1.7.1.3v-1c0-1-.2-2-.7-3l-.1-.3-.2-.3.1.2c0 .2.2.4 0 0 0 .2 0 .3 0 0 .2-1 .4-1.8.4-2.7-.1-1.7-.7-3.3-1.1-5l-1.3-4.8c-.3-1.3-2-2.3-3.3-1.8a2.8 2.8 0 0 0-1.8 3.3z"/>
  <path fill="#005e5d" d="M69.7 118a45.8 45.8 0 0 0-2.2-14.1l-.1-.3-.3-.6.2.5-.4 1.3c.5-1 .8-1.9.5-3-.2-.7-.6-1.3-1-2l-.2-.4c.2.5 0 0 0 0l-.2-.9c-.1-.3 0 .4 0 0v-1.4a8 8 0 0 0-1-4.3l-.9-1-.3-.3c.4.5 0 0 0 0s.2.6 0 0V91l.1-.6c0 .5 0-.2.1-.4a43.5 43.5 0 0 1 .8-3l.8-4.7c0-1 .2-2.2.1-3.3 0-.8-.2-1.7-.4-2.6-.5-2-1-4.2-2.7-5.5-1.1-.8-3-.2-3.6 1-.8 1.4-.3 2.8 1 3.7l-.5-.4-.3-.3.1.2c.1.2-.1.3-.1-.3l.1.4a19.8 19.8 0 0 1 .9 3.4l.1.7v.3-.3 2.4l-.5 2.7c-.4 2.1-1.2 4.1-1.3 6.3-.1 1 .1 2.2.6 3.2l1 1.5.4.4c-.2-.3-.2-.3 0 0-.2-.3-.2-.3 0 0v1.9a10.7 10.7 0 0 0 1.3 5l.4.5c.1.3 0 .3 0 0l.1-1.3-.3.9v1.3l.1.8.1.3.1.3a27.6 27.6 0 0 1 1.6 6.2l.2 1.3c-.1-.6 0-.1 0 0v.7c.2 1.5.3 3 .2 4.3a2.6 2.6 0 0 0 2.7 2.7c1.5 0 2.5-1.2 2.7-2.7z"/>
  <path fill="#005e5d" d="M32.3 95c5.6 0 11.3-.4 16.8-1.4 5.2-.9 11.4-1.9 14.7-6.4.8-1.1.2-3-1-3.7-1.4-.7-2.8-.2-3.7 1l-.3.4-.2.2a10.4 10.4 0 0 1-2.5 1.3l-1.8.6a66.8 66.8 0 0 1-9 1.8h-.6a332.4 332.4 0 0 0-4.6.5l-7.8.3c-1.4 0-2.8 1.2-2.7 2.7 0 1.4 1.2 2.6 2.7 2.7z"/>
  <path fill="#005e5d" d="M32.2 101.2c3 .4 5.9.9 8.9.8 2.9-.1 5.8-.6 8.6-1.2 5-1 10-2.4 14-5.8 1.1-1 1-3 0-3.8-1.1-1-2.6-1-3.8 0l-.4.3-.6.4a15.8 15.8 0 0 1-2.1 1.2l-.6.3-.6.2-.7.3a52.6 52.6 0 0 1-10.3 2.4H44a19.7 19.7 0 0 1-2.9.3c-1.2 0-2.5 0-3.7-.2-1.5 0-2.3-.2-3.6-.4-1.4-.2-3 .3-3.4 1.9-.2 1.2.4 3 2 3.3z"/>
  <path fill="#005e5d" d="M34.5 108.5c5.2.8 10.6 1 15.8 0 5-.8 9-3.3 13.1-6 1.2-.8 1.8-2.4 1-3.7-.8-1.2-2.5-1.8-3.7-1-1.8 1.2-3.6 2.5-5.6 3.5l-1.5.7-.4.2-.7.3-3.3.8-.9.2c-.9.1.5 0-.4 0a40.5 40.5 0 0 1-10.6 0h-.8l-.6-.2c-1.4-.2-3 .4-3.3 1.9-.3 1.3.4 3 1.9 3.3z"/>
  <path fill="#005e5d" d="M36.7 117c10.7 0 21.8-2.8 29.6-10.5 1-1 1-2.9 0-3.8-1.1-1-2.8-1.1-3.8 0-.9.8-1.7 1.6-2.7 2.3l-.2.2a25.3 25.3 0 0 1-5.2 3l-1 .4c-.4.2.4 0-.2.1-.5.2-1 .5-1.6.6a43 43 0 0 1-14.9 2.3c-1.4 0-2.8 1.2-2.7 2.7 0 1.5 1.2 2.7 2.7 2.7z"/>
  <path fill="#005e5d" d="M37.3 122.3a54 54 0 0 0 23.1-4.5c2.3-1 4.6-2.1 6.4-4 1-1 1-2.8 0-3.8s-2.8-1-3.8 0l-.7.7c-.4.4.2-.2-.3.2a18 18 0 0 1-2.8 1.6l-.7.3-.6.3a48.5 48.5 0 0 1-12.4 3.4h-.8c-2.5.4-5 .4-7.4.4a2.8 2.8 0 0 0-2.7 2.7 2.8 2.8 0 0 0 2.7 2.7zm62.3-16.5c4.2.7 8.6.7 12.6-1 2.2-.8 4.8-2.7 4-5.6-.7-2.3-3.6-3.1-5.6-4A47 47 0 0 0 86.8 92a5.3 5.3 0 0 0-4.2 5.5c0 2.1 1.7 4 4 3.7-.5 0-1-.2-1.4-.3a51 51 0 0 0 14.4 4.9c1.4.2 3-.4 3.3-2 .3-1.2-.4-3-1.9-3.2a45.2 45.2 0 0 1-9-2.6l-1.2-.4c-.5-.2.5.2 0 0l-.5-.3-2.3-1-.7-.4a3 3 0 0 0-1 0h.4c.3 0 .7.4 1 .7.2.4.1.3 0 .1l.3.7v-.2.2l.1-.6s-.2.5 0 .3c0-.3-.2.1-.2.1-.4.5-.1 0 0 0 0 0-.5.2-.1.1h.3l.2-.1c.4-.1-.5 0 0 0l3.3-.2a47.8 47.8 0 0 1 6.3.4c.4 0-.4 0 0 0a48.5 48.5 0 0 1 11.3 3l.4.2a36.8 36.8 0 0 1 1.7.8c.5.3 0 0-.2-.3 0-.2-.2-1.2 0-1.5 0 0 .3-.4 0-.2l-.1.2c.1-.2.2-.2 0 0 0 0-.4.2-.1 0l-.3.1a15.6 15.6 0 0 1-3.8 1h-.5a21.9 21.9 0 0 1-4.7 0s-.4-.1-.1 0l-.5-.1c-1.4-.3-3 .3-3.3 1.9-.3 1.3.4 3 1.9 3.3z"/>
  <path fill="#005e5d" d="M82.7 96.7V98c0 .4.1-.5 0-.1l-.1.6-.1.4c-.2.5.2-.3 0 0l-.6 1-.1.2.1-.2-.4.5-1 1a9.9 9.9 0 0 0-1.9 4.3 109.4 109.4 0 0 0-3.6 24.4l-.2 4.1-.1 2.1c0 1-.3 2 0 3l1 1c.2.3 0 0-.1 0l.2.3.2.4c-.2-.3 0 0 0 0l.1.5 1 3c1.4 2.7 4.7 3.1 7.3 3.8a117 117 0 0 0 19.3 3.4c1.5 0 2.8-1.3 2.7-2.7 0-1.6-1.1-2.6-2.7-2.7a66 66 0 0 1-8-1 147.7 147.7 0 0 1-12.5-3l-1-.2-.3-.1c-.3-.2-.3-.2 0 0l.2.3-.3-.5.1.2v-.3l-.3-.7-.3-1.2a9.6 9.6 0 0 0-2.1-3.5l.8 1.9c.3-6.3.6-12.6 1.4-19 0 0 .1-.5 0-.2l.1-.4a59.6 59.6 0 0 1 1.5-8c.4-1.7.7-3.3 1.2-4.9l.2-.4c-.2.4 0 0 0 0 .2-.6-.2 0 0-.2l.7-.6c2-2 3.2-4.8 3-7.8 0-1.4-1.1-2.7-2.7-2.7-1.3 0-2.8 1.2-2.7 2.7z"/>
  <path fill="#005e5d" d="m106.1 150.1 1.2-2 .3-.4.7-.7s.5-.3 0 0c-.4.2 0 0 0 0l.3-.2c.2-.2-.5 0-.4.2.4.3 1.6-1.2 1.7-1.4l.7-1.7c1.4-3.3 2.2-6.8 2.9-10.3l1.5-10.8.3-2.7.1-1.3.1-.5v-.4l1-5.3c.2-1.1.4-2.3.4-3.5l-.5-2.7-.3-1.3-.1-.4c0-.2-.1-.7 0-.2l-.2-1.5v-1.1c0 .3 0 .3.1 0 .3-1.4-.4-3-1.9-3.4-1.3-.3-3 .4-3.3 2a15 15 0 0 0 0 5l.7 3.5v.4c0-.2 0-.6 0 0v.6s0 .5 0 0c0 .8-.2 1.5-.4 2.2l-.7 4.4-1 9.1-.4 2.2v.6a81.7 81.7 0 0 1-3.6 14.2l-.1.3 1.6-1.3c-1 .3-2 1.2-2.7 1.9-1.1 1-2 2.4-2.6 3.8-.6 1.2-.4 3 1 3.7 1.1.6 3 .4 3.6-1z"/>
  <path fill="#005e5d" d="M81.6 107.1c9.8 4 20.6 7.8 31 4.3 1.4-.4 2.4-1.9 2-3.3-.5-1.4-2-2.4-3.4-2-1.2.5-2.4.8-3.7 1h-.3l-1 .2a29.1 29.1 0 0 1-8.6-.6c-5-1-9.8-2.9-14.5-4.8-1.3-.5-3 .6-3.3 2-.4 1.5.4 2.7 1.8 3.2zm-4.3 31.3a56.7 56.7 0 0 0 29.7 6.5c1.4 0 2.8-1.2 2.7-2.7 0-1.4-1.2-2.8-2.7-2.7a54.5 54.5 0 0 1-9-.2l-.9-.1c-.3 0-.3 0 0 0h-.4a51 51 0 0 1-12-3.3l-1-.4-.3-.1c-1.2-.5-2.3-1-3.4-1.7-1.2-.6-3-.3-3.7 1-.6 1.3-.3 3 1 3.7z"/>
  <path fill="#005e5d" d="M101 103.6c-.4-1-.6-1.3-.5-.8l-.1-.7v-.6c0 .2.1.1.3-.4.2-.3.4-.6.7-.7l.4-.2h-.2.7l-2.7-.2h.7a26.8 26.8 0 0 1-4.6-1l-.4-.1c-.4-.2.7.3.3 0l-.5-.2s.6.6.4.3l.6 1v1.4l-.1.3-.3.3c.5-.4-.4.4 0 0 0 0 .4-.1 0 0-.5.3-.2.1-.1.1l.5-.1-.7.1h1.1-.7a19.8 19.8 0 0 1 4.5 1.2c.1 0 .4.1 0 0-.5-.2-.2 0 0 0l.4.2.8.5a2.6 2.6 0 0 0 3.7-1c.4-.6.5-1.3.3-2s-.6-1.2-1.2-1.6c-.9-.7-2-1-3-1.5l-2.4-.7c-1.6-.4-3.4-.8-5-.2-1.8.7-3.6 2.4-3 4.5.3 1 1.1 1.8 2 2.2a21 21 0 0 0 5.6 1.5c1.2.2 2.4.4 3.6.3 1.3 0 2.5-.5 3.2-1.7.8-1.2.6-3-.5-4-1-1-2.8-1.1-3.8 0-1 1-1 2.7 0 3.8zM71.5 79.7c.6 0-.3 0 0 0 .3.1-.3-.3 0 0l.3.2.3.2.7.9.2.3.2.3c1 1.2 1.7 2.6 2.4 4 .4 1 2 1.6 3 1.3a2.9 2.9 0 0 0 2-2.6c0-.7-.1.4 0 0v-.5l.4-.9c.1-.5-.2.3 0 0l.2-.4.5-.9c.2-.4 0 .1 0 0l.3-.4.7-.6c.4-.4 0 0 0 0a6.7 6.7 0 0 1 1.3-.8c1.7-.8 1.8-3.9 0-4.6a8 8 0 0 1-.9-.5l-.5-.3c-.4-.2.1 0 .1 0a10.5 10.5 0 0 1-1.1-1c-.4-.4.1.3 0 0l-.6-.8-.2-.5c-.2-.4.1.3 0 0l-.3-1s-.1-.3 0-.4v.3-.4c-.2-1.3-1-2.4-2.4-2.6-1.4-.2-2.6.6-3 2v.2l-.2.2v.2c-.2.4.3-.7 0-.3a17.7 17.7 0 0 1-1.3 2.5l-.2.3c-.2.3.4-.5.1-.2a12.1 12.1 0 0 1-.8 1l-.3.1-.6.4c0-.1.6-.3.2-.2l-.3.1c-.4.2 0 0 .2 0h-.4c-1.4 0-2.8 1.3-2.7 2.7 0 1.5 1.2 2.8 2.7 2.7 4.6 0 7.5-4.4 8.8-8.3l-5.3-.8c.3 4 2.6 7.7 6.3 9.2v-4.6a11.1 11.1 0 0 0-6.1 9l5-1.3c-.8-1.9-1.9-3.6-3.1-5.2-1.4-1.8-3.2-3.4-5.6-3.4-1.4 0-2.8 1.3-2.7 2.7 0 1.5 1.2 2.8 2.7 2.7zm-18 68.3h-.2c.2 0 .2 0 0 0-.3 0-.2 0 0 0h-.2c.1 0 .3 0 .5.2 0 0 .5.4 0 0a19.2 19.2 0 0 1 2.4 2.3c0 .2.2.3.3.5.2.1.4.4.1 0l1.4 2c.5 1 1.9 1.6 3 1.3 1.1-.4 2-1.4 2-2.6v-1c0-.6 0 .3 0 0v-.5a7.6 7.6 0 0 1 .3-1l.2-.4a9.2 9.2 0 0 1 .6-1l.2-.2.7-.7c.3-.2 0 0 0 0l.4-.3a2.7 2.7 0 0 0-.6-5l-1-.2h.3-.3l-.4-.3-.4-.3c-.5-.3.3.3 0 0l-.8-.7-.3-.3c-.2-.3.3.4 0 0l-.5-.8-.3-.6c.2.1.2.6 0 0l-.2-1c-.3-1-1.5-2-2.6-2-1.1.1-2.4.9-2.6 2a11.2 11.2 0 0 1-.6 2l-.2.6.1-.2-.1.3-.6 1.2-.5.6.2-.2-.3.3-.5.4c-.3.4.4-.2.2-.1l-.3.2-.3.2.2-.1-.7.1c-1.4.3-2.3 2-2 3.4.6 1.5 2 2 3.4 1.8 4.1-.6 6.5-5.3 7.2-9h-5.2c.8 3.8 4 7 7.7 8l-.7-5a11.2 11.2 0 0 0-5.1 9.8l5-1.4a24.8 24.8 0 0 0-6.3-6.9c-1.3-.7-2.6-.9-4-.7-1.4.3-2.3 2-1.9 3.4.5 1.5 1.8 2.1 3.3 1.8z"/>
  <path fill="none" stroke="#005e5d" stroke-linecap="round" stroke-linejoin="round" stroke-miterlimit="10" stroke-width="8.3" d="M515.7 395.6s47-36.3 37.4-61.6c-9.6-25.3-37 17.3-37 17.3s-6.4-38.1-24.8-30.2c-18.4 8-.2 43.5 9 57.1a112 112 0 0 0 15.4 17.4z"/>
  <path fill="none" stroke="#005e5d" stroke-linecap="round" stroke-linejoin="round" stroke-miterlimit="10" stroke-width="6.5" d="M375.6 370.3s22.9-7.7 26.4-20c3.2-11 4.6-25.2 4.6-25.2s-10-2.8-23.6 8.8c-7 6-9.6 18-9.2 25.8.3 5.1 1.8 10.6 1.8 10.6zm-2.3-.7s-19.6-1-25.5-9.4c-5.3-7.5-9.9-16.5-9.9-16.5s6.8-4.7 20.2.4c6.8 2.6 12 11 13.7 17 1.2 4 1.5 8.5 1.5 8.5z"/>
  <path fill="none" stroke="#005e5d" stroke-linecap="round" stroke-linejoin="round" stroke-miterlimit="10" stroke-width="6.5" d="M368.8 369.7s9.3 7.3 9.3 22.8c0 15.6 3.7 10.8 3.7 10.8l-3.5-33.7"/>
  <g fill="none" stroke="#005e5d" stroke-linecap="round" stroke-linejoin="round" stroke-miterlimit="10" stroke-width="6.5">
    <path d="M61 266.7c-5.4 4.6-12 6-15.2-5-13.8 3-9.7-10.5-9.7-10.5-6.8.7-11.3-11.8-1.5-15.2 0 0-7.7-14.7 8.4-13.7 3-12.5 14.8-7 15.6-3.2 0-5.4 7.8-13 17.4-5.3 1.9-9 15-7.6 14.3.9 6.2-3.8 14.2 5 9.3 14 8.8 1.2 11.3 11.1 3.1 16.7 7.5 14.6-5.4 19.4-11.8 16.3 0 0-5.1 10.3-14.8 5.8"/>
    <path d="m60.4 246.3 8.5 9 9-15.4m-31.6 8.5s11.3 7.5 14-6.3m14.4-7.4s5.4 8.8 15 7m-7.1 57.7c-9.9 1.8-6.8-33.2-6.8-33.2s7.7-20.7 12-23.4m-33.4 8.8c6.8 9 6.7 8.7 8.2 17.9 0 0 3.9 31.9-5.7 30.6"/>
  </g>
  <g fill="#005e5d" stroke-width="0">
    <path d="M188 136.1c5.7-7.1 11.1-14.5 16.2-22.2A371.7 371.7 0 0 0 226 76.3c.6-1.2.3-2.9-1-3.6-1.2-.6-2.9-.4-3.6 1-4.2 8.1-8.6 16.2-13.3 24.1a320 320 0 0 1-19.5 29l-.5.7-.3.3c.2-.2 0 0 0 .1l-1.2 1.5-2.4 3c-.9 1-1.1 2.7 0 3.7 1 1 2.8 1.2 3.7 0z"/>
    <path d="M187.4 137.2a370.3 370.3 0 0 1 38.2-14.4l2.3-.7a6 6 0 0 0 2.5-.8c1-.5 1.7-1.4 2-2.5.3-.7.3-1.4.5-2l.5-1.3.1-.3.3-.6a98 98 0 0 1 12.1-21l.5-.6c.5-.7-.2.2 0-.1l.8-1 1.5-1.8 3-3.7c5-6 9.4-12.2 11.8-19.7.6-2.3-2-4-4-3a25.8 25.8 0 0 1-1.9 1c-.6.3.4-.1 0 0l-1 .4a32 32 0 0 1-7.2 1.7l-1 .2h-.3l-2 .2c-5.3.6-10.5.8-15.6 2.1-2.9.7-5.6 1.8-8.1 3.4-1.2.7-1.8 2.4-1 3.6.8 1.2 2.4 1.7 3.6 1a24.1 24.1 0 0 1 2.4-1.4l.4-.2c.2 0 .4-.1 0 0a29.3 29.3 0 0 1 7.2-2l1.8-.3h.4c-.5 0-.1 0 0 0l1.1-.1c5.2-.6 10.5-.9 15.6-2 3-.6 5.7-1.6 8.3-3l-3.8-3a36.2 36.2 0 0 1-1.3 3.4c.3-.5 0 .2 0 .3l-.4.6a44.6 44.6 0 0 1-5 8.3l-1.2 1.7-.2.2-.3.4-.8 1c-4.3 5.3-8.6 10.5-12.3 16.2a104.9 104.9 0 0 0-9.3 19.3l-.1.4c0 .5 0-.2.2-.3.5-.4.3-.2.2-.1-.6.3.5-.1-.1 0l-2 .5-5.4 1.7a374 374 0 0 0-35.6 13.8c-1.3.5-1.7 2.4-1 3.6.9 1.3 2.3 1.5 3.6 1z"/>
    <path d="m189.9 130.8-2 4.6a279.4 279.4 0 0 1-1.1 3c0 .1-.3.6 0 0l-.4.8c-.5 1-.5 2.3.4 3.2 1 .8 2 .9 3.2.4l24.1-10.5.7-.3.3-.1 1.2-.5a99.6 99.6 0 0 1 7.4-2.8l9-2.5c1.2-.3 2.8-.7 3.8-1.6.7-.7 1-1.6 1.4-2.5 0-.2.2-1 .4-1.1 0 0-.3.5 0 .1l.4-.8a97.3 97.3 0 0 1 8.7-13l1.5-2 .8-1.2c-.3.4 0 .1 0 0l.6-.7 6.6-8.6c4.8-6.6 9-13.5 11.8-21.2.6-1.5-.9-3.5-2.5-3.3l-8.6 1c-1.3.1-2.7 1-2.6 2.6 0 1.3 1.2 2.8 2.6 2.6l8.6-1-2.5-3.3-1 2.5-.1.3-.3.6a64 64 0 0 1-3 5.9 97.3 97.3 0 0 1-8.7 13l-1.4 1.8-.4.5-.1.2-.9 1-6.5 8.6c-2 2.8-4 5.6-5.8 8.6-.9 1.5-1.9 3-2.5 4.8 0 .3-.1.7-.3 1 .5-.7-.1 0 0 0-.2 0 .7-.5.5-.5l-.2.1c-.4.2.7-.2.2 0l-.9.2c-2.8 1-5.6 1.5-8.4 2.4a108 108 0 0 0-9.7 3.5c-9 3.7-18 7.7-26.9 11.6l3.6 3.6 2-4.6a279.4 279.4 0 0 1 1.1-3s.3-.6 0 .1l.4-.8c.5-1.3.4-3-1-3.6-1.1-.6-3-.4-3.5 1z"/>
    <path d="M186.4 139.8a4.8 4.8 0 0 0 1 5c1.4 1.2 3.3 1.4 5 1.3 4.2-.2 8.3-1.6 12-3.1 2.2-.9 4.2-1.8 6.2-3a57 57 0 0 1 4.8-2.4c.2 0 .9-.4.2 0l.7-.3 1.5-.6a159.5 159.5 0 0 1 10.1-3.6l13.5-4.3c1.8-.6 2.6-3 1.1-4.4l.4.7c-.2-.5.1.2 0 .2v-.4c0-.4.2-.2 0 .1l.2-1 .4-1.1c.2-.6-.2.4 0 0l.1-.3.4-.8 1.2-2.2c2-3.6 4.3-7 6.7-10.4 4.8-6.9 10-13.5 14.8-20.3 2.8-3.8 5.4-7.7 7.8-11.7 1-1.6-.3-4.1-2.3-4-2.7.2-5.5-.2-8.1.6-1.3.4-2.3 1.8-1.9 3.2.5 1.4 1.9 2.3 3.3 1.9l1-.3c.5-.1-.4 0 .2 0h1.8l3.7-.1-2.3-4C265.5 82 260.3 89 255.1 96c-5.2 7-10.4 14-14.7 21.5a29 29 0 0 0-2.3 4.8c-.6 2-.9 4.4.7 6l1.2-4.5c-8 2.7-16.1 5-24 8a68 68 0 0 0-5.7 2.5l-4.6 2.5-1.4.6-.7.3-.3.2c-.3.1-.2.1 0 0-1 .5-2 .8-3 1.1-1.8.7-3.7 1.3-5.6 1.7l-1.5.2h.3-.4a19.3 19.3 0 0 1-1.7 0h-.2c-.5 0 .2.1.3.1h-.5l-.4-.2c.4 0 .6.4.2 0l.2.2c-.3-.3.4.6.2.2-.2-.3.2.8.1.2v.3-.2c0-.3-.1.7 0 .4l.1-.6c.5-1.3-.4-2.9-1.8-3.2-1.4-.3-2.8.4-3.2 1.8z"/>
    <path d="M193.7 138c4.7-2 9.3-4.5 13.8-7a217 217 0 0 1 10.3-5.1l.8-.4.5-.2c-.1 0-.5.2 0 0a80.2 80.2 0 0 1 10.2-3.2c1.4-.3 2.3-2 1.9-3.3-.5-1.4-1.8-2-3.3-1.8-5 1-9.8 2.8-14.2 5.2a2.5 2.5 0 0 0-1 3.3 2.6 2.6 0 0 0 3 1.5c4.7-1 9.4-2.4 13.9-4.1 1.2-.5 2.3-1.8 1.8-3.3-.4-1.2-1.9-2.3-3.2-1.8-4.5 1.7-9.2 3-13.9 4.1l2 4.8a39.8 39.8 0 0 1 13-4.6L228 117c-10.4 2.2-19.6 7.7-28.9 12.6a98.8 98.8 0 0 1-8 3.9c-1.2.5-1.6 2.5-.9 3.6.9 1.3 2.3 1.5 3.6 1z"/>
    <path d="m230.3 122.6 3.5-1.8-2.7-4.5a287.8 287.8 0 0 1-16.8 8l-1.3.5-.5.3-.4.1 2 4.8 8.8-4.6 4.2-2.2a396.2 396.2 0 0 1 3.4-1.8l.5-.2c.2-.1.2-.1 0 0h-1l-1.1-.6-.2-.4c-.3-.5.2.5.1.3l.5 1c.7.8 1.6 1.2 2.6 1.3 1.5 0 2.6-1 3.6-1.9 1.5-1.4 2.7-3 3.8-4.7 2.2-3.2 4-6.8 6-10.2l1.9-2.6a14 14 0 0 1 2-2.1c.9-1 1-2.8-.1-3.7-1.2-1-2.6-1-3.7 0a52.5 52.5 0 0 0-15.8 22.2l5 1.4.2-.6c0-.1.3-.6 0-.2l.5-.8 1.3-2.3a1069.5 1069.5 0 0 1 8-13A249.4 249.4 0 0 1 255.9 88c2.4-3 5-6 7.7-8.7l-4.2-3.2a80.6 80.6 0 0 1-7.5 12.3l-.4.6-.3.4c.1-.2.1-.2 0 0a81 81 0 0 1-3.5 4c-1.6 1.8-3.3 3.6-4.3 5.7-.6 1.3-.4 3 1 3.6 1.1.6 2.9.4 3.5-1l.9-1.4.3-.4.4-.6 2.3-2.5a79.9 79.9 0 0 0 12.2-18c.6-1.3.4-2.6-.7-3.5-1-.8-2.5-.7-3.5.2-9.8 10-17.4 22-24.6 34l-3 5c-1 1.6-2.1 3.3-2.6 5.3-.3 1.3.4 2.9 1.8 3.2 1.5.4 2.7-.4 3.3-1.8l.3-1 .1-.2.7-1.6a52 52 0 0 1 5-8.4c0-.2.2-.4.4-.6l.2-.3a45.7 45.7 0 0 1 7.7-7.8l-3.7-3.7c-4.3 4.1-6.6 9.7-9.7 14.6a42.2 42.2 0 0 1-1.7 2.5l-.2.3-.2.2a22.2 22.2 0 0 1-2 2.2l-.3.3c-.5.4.3-.2-.1 0a2 2 0 0 1 2.5 1l-.3-.9c-.3-.5-.8-1-1.3-1.4-1.3-.7-2.6-.3-3.8.3l-5.2 2.7-11.6 6a2.7 2.7 0 0 0-1.1 3.4c.5 1 1.9 2 3.1 1.5 6.9-3 13.7-6 20.3-9.5 1.2-.6 1.7-2.4 1-3.6a2.7 2.7 0 0 0-3.6-.9l-3.5 1.7c-1.2.6-1.7 2.5-1 3.6a2.8 2.8 0 0 0 3.6 1z"/>
    <path d="m262 73.3-1.2.7a2 2 0 0 0-.7.7 2 2 0 0 0-.5.9 2 2 0 0 0 0 1c0 .4.1.7.3 1l.4.5c.3.4.7.6 1.2.7l.7.1a3 3 0 0 0 1.3-.3l1.2-.7.7-.7.5-1a2 2 0 0 0 0-1 2 2 0 0 0-.3-1l-.4-.5c-.3-.3-.7-.5-1.2-.6l-.7-.1c-.4 0-.9 0-1.3.3z"/>
    <path d="M262.2 78c1.3 0 2.7-1.3 2.6-2.7 0-1.4-1.2-2.6-2.6-2.6-1.4 0-2.7 1.2-2.7 2.6a2.7 2.7 0 0 0 2.7 2.6zm-74.3 67.7a12 12 0 0 0 12.3 3c2.2-.7 4.2-1.7 6.2-2.6l5.6-2.7c3.7-1.8 7.3-3.7 11-5.4l2.7-1.2s.8-.4.3-.1l.7-.3 1.6-.7a64.8 64.8 0 0 1 12.3-3.3l.7-.1c.6 0 1.3-.1 1.9-.3a6 6 0 0 0 3.2-1.9c1.4-1.6 2-3.7 2.9-5.6a122.5 122.5 0 0 1 16.5-25.8c3.1-3.7 6.6-7 9.9-10.5l2.5-2.8c1-1.1 2.1-2.3 2-4 0-1.6-1.2-2.7-2.3-3.8l-2.9-2.8c-1-1-2.7-1-3.7 0s-1 2.7 0 3.8l2.4 2.3 1 1 .6.6c.2.2.2.2 0 0 .3-1.8.2-2.3-.1-1.6l.1-.2-.3.4-.5.6a67.9 67.9 0 0 1-3.3 3.6c-2.8 2.9-5.7 5.7-8.3 8.7a116.7 116.7 0 0 0-19.3 30.4c-.4.8-.7 1.7-1.2 2.4.4-.5 0 0-.1 0 .5-.3-.5.2.1 0l-1.3.3c.6-.1-.2 0-.2 0l-1.2.2a44.4 44.4 0 0 0-4.5.8 99.4 99.4 0 0 0-22.2 9c-4 2-7.9 4-12 5.6 0 0-.4.2 0 0l-1 .4a17.2 17.2 0 0 1-2.4.8h-.3c-.5.1-1 .1-1.6 0h-.2l-.8-.1-.5-.1c-.1 0-.8-.4-.3-.1l-1.4-.8c-.6-.4.4.3-.2-.2l-.7-.7c-1-1-2.7-1-3.7 0-1 1.1-1 2.7 0 3.8zM221 97.4l1.2-1.7c.1-.2.8-1.3 1-1.3-.1 0-.4.4-.1 0l.2-.2.4-.4.8-1 1.8-1.9 1.2-1.2.6-.8.4-.5c-.2.1-.2.1 0 0l-1.3.4c-1.6-1.7-2.2-2-1.8-1.1l.2.5.3.8.7 1.8 1.4 3.6c.3 1 1 1.7 2.1 1.9 1 .1 2.1-.3 2.7-1.3l1.8-3.3.8-1.5.5-.8.2-.4-.4.4-1.3.4c-.3 0-1.4-1-.8-.3l.5.5c.5.5 1.1.9 1.8 1 1.3.5 2.7.3 3.9-.3 2.3-1 3.2-3.4 4-5.6.3-1.3-.6-3-2-3.2-1.3-.4-2.7.4-3.1 1.8l-.4 1c0 .2-.1.5 0 .1l-.2.4c0 .2-.2.3-.3.5-.1.3.4-.3 0 .1l-.4.3c.3-.2.3-.2 0 0-.2.1.5-.1 0 0h.1c-.5 0 .3 0 0 0-.3-.1.5.2.2 0-.3-.1.3.4 0 0l-.3-.3-1.1-.9a3.4 3.4 0 0 0-4 .4c-.6.6-1 1.5-1.4 2.2l-2.7 4.9 4.8.6-1.4-3.8c-.5-1.3-.8-2.8-1.5-4-1-2-3.5-2.2-5.1-.7-.8.7-1.4 1.6-2 2.4l-3 3a36 36 0 0 0-3.4 4.8c-.8 1.2-.3 3 1 3.6 1.2.7 2.7.3 3.5-1z"/>
  </g>
  <g fill="none" fill-opacity="0" stroke="#005e5d" stroke-linecap="round" stroke-linejoin="round" stroke-miterlimit="10" stroke-width="6.5">
    <path d="m208.1 339-7.4-11.3c-2.3-4.1-8.7-5.7-13.4-4.7-3.1.6-6 2.7-6.5 7.9-1 12.1 11.5 8.8 11.5 8.8l4.4 5.3m-3 12.2s1.8-6.5 8-12a42.8 42.8 0 0 1 24.5-10.3c15.7-.2 26.5 5.3 37 18.9-19.7 11-33.7 25.2-69.5 3.4z"/>
    <path d="M196.7 361.4s-12.3 12 0 15.8c6 1.8 12.5-11.4 12.5-11.4m35.6-.1s-1 17.4 11.5 10.8c5.5-2.9.3-16.8.3-16.8m1.9-1.8s7.4 6 8.8 3c1.5-2.8-5.2-7.7-5.2-7.7zm-54.8-9.7 13.2 6.2 10.6-6.4.1-11.5m-10.7 17.9-1.3 9.5m13.5-14.9 9.8 5.5 3.9 10.1m7.4-21.2-11.3 11m-30.4-3.2-5 9.3m25.5 4.7-2-13.2m18.4-3.3 8.6 9.3"/>
  </g>
  <g fill="none" stroke="#005e5d" stroke-linecap="round" stroke-linejoin="round" stroke-miterlimit="10" stroke-width="6.5">
    <path d="m369.8 93-7.4-11.4C360 77.5 353.6 76 349 77c-3.2.6-6 2.7-6.5 7.9-1 12.2 11.5 8.8 11.5 8.8l4.4 5.3m-3.1 12.1s1.8-6.5 8-12A42.8 42.8 0 0 1 388 88.8c15.7-.2 26.5 5.3 37 18.9-19.7 11-33.7 25.2-69.6 3.4z"/>
    <path d="M358.3 115.3s-12.2 12.1.1 15.8c6 1.8 12.5-11.4 12.5-11.4m35.6-.1s-1 17.4 11.5 10.9c5.5-3 .2-17 .2-17m2-1.7s7.3 6 8.8 3.1c1.5-2.8-5.3-7.7-5.3-7.7zm-54.9-9.7 13.3 6.2 10.6-6.4.1-11.5m-10.7 17.9-1.4 9.5m13.6-14.9 9.8 5.5 3.9 10.2m7.4-21.3-11.3 11.1m-30.4-3.3-5 9.3m25.4 4.7-2-13.2m18.5-3.3 8.6 9.4"/>
  </g>
  <g fill="none" stroke="#c0c5c9" stroke-linecap="round" stroke-linejoin="round" stroke-miterlimit="10" stroke-width="5.4" style="mix-blend-mode:normal">
    <path d="M557.9 80.6a15 15 0 0 0-7.6 2.7 12.7 12.7 0 0 0-16.9-7.5v-.6a3.2 3.2 0 1 0-4 3.4c-1.8 1.8-3 4-3.5 6.6a24.5 24.5 0 0 0-35 19.5l-1-.2a2.4 2.4 0 1 0 1 4.6c.4 5.3 2.4 10 5.5 13.8a11.8 11.8 0 1 0 19 9 24.5 24.5 0 0 0 2.5-.2 11.8 11.8 0 1 0 18-11.1 24.4 24.4 0 0 0 3-20.5h.4c1.7-.1 3.4-.6 4.8-1.3A15.2 15.2 0 1 0 558 80.6Z"/>
    <path d="M518.2 85s-6.8 5-15.4 12.5c-8.5 7.4-6.8 5.4 4.6.5 11.4-4.8 32.5-18.5 32.8-14 .3 4.6-41.7 24-42 28.9-.2 4.8 10.9-1.5 20.3-8 9.4-6.6 38.2-25.4 30.8-16.8-7.4 8.5-.6 12 6.6 3.7 7.2-8.4 16.2-7.2 9.7-.9-6.6 6.3-17.3 19.2-7.7 14.3 7.7-4 10.2-8.3 10.2-8.3"/>
    <path d="M532.2 102s-28.8 12.9-29.7 19.7c-.8 6.9 32.2-18 30-12.8-2.3 5.1-37.1 18.2-35.7 22.8 1.4 4.6 21.4-12.5 16.8-4-4.5 8.6-22.8 9.7-10.2 9.4 12.5-.3 19.4-18.2 27.6-20.2 8.9-2.2-2.2 4.8-7.4 10.8-6.4 7.6.6 9.1 5.4 3.7 0 0 10.3-8 6 0a37.4 37.4 0 0 1-4.8 7.2"/>
  </g>
</svg>