<svg xmlns="http://www.w3.org/2000/svg" viewBox="0 0 613 460"><rect width="100%" height="100%" fill="#19243b"/><path fill="none" stroke="#005e5d" stroke-linecap="round" stroke-linejoin="round" stroke-miterlimit="10" stroke-width="6.5" d="M211 218s7-31 24-13c17 17 13 16 13 16l2-18m-16 14 14 4m11 16s17 27-7 26c-25 0-21-2-21-2l11 14m2-21-13 7m-16 7s-32 3-20-18c11-22 11-18 11-18l-18 4m19 11-1-15m325-4s7-31 23-13c17 17 13 16 13 16l2-18m-16 14 14 4m11 16s17 27-7 26c-24 0-20-2-20-2l11 14m1-21-12 7m-17 7s-31 3-20-18c11-22 11-18 11-18l-17 4m18 11-1-15M66 358s6-31 23-14c17 18 13 16 13 16l2-17m-16 14 14 3m11 17s17 27-7 26c-24 0-21-2-21-2l11 14m2-21-13 7m-16 7s-32 3-20-18c11-22 11-18 11-18l-17 4m18 11-1-15"/><path fill="#005e5d" d="M378 199v-1 1h-1l-3 2h-1a26 26 0 0 1-6 2l-4 1h-2l-2 1a52 52 0 0 1-6 0h-2c-1 0 0 0 0 0h-1 1l-1-1c0 1 0 0 0 0s0-1 0 0v-1 1c0-1 0 0 0 0 0-1-1 0 0 0l2-1 1-1a52 52 0 0 1 13-3l1-1h1a55 55 0 0 1 9 0h1-1 1c-1 0 0 0 0 0 0 1 0 0 0 0 0 1 0-1 0 0v1c-1 2 0 3 2 4l3-2c1-3 0-6-2-7a9 9 0 0 0-5-1 59 59 0 0 0-26 5l-4 2c-2 2-2 7 1 9 2 2 5 2 8 2a95 95 0 0 0 11-2l10-3c3-1 6-3 7-5l-2-4c-2 0-3 1-3 2z"/><path fill="#005e5d" d="m344 205 1 5 1 2v1h1s0 1 0 0v1l-1 1a6 6 0 0 0 1 4v2l1 3h1v1l1 4 2 5v8a15 15 0 0 0 3 8l5 1h14c6-1 11-4 14-8v-4h-4l-2 3c-1 0 0 0 0 0a21 21 0 0 1-4 2 26 26 0 0 1-5 2h-1s-1 0 0 0a41 41 0 0 1-10 0h-4 1l-1-1v-1a5 5 0 0 1 0-1l-1-1v-1l1-4-1-4-1-4-1-4-1-3-1-1-1-1v1-5s0 1 0 0v-3l-1-5-1-4c-1-2-2-3-4-2a3 3 0 0 0-2 3z"/><path fill="#005e5d" d="M389 241a46 46 0 0 0-3-14v-1 2a5 5 0 0 0 0-3l-1-2v-1c0-1 0 0 0 0v-2a8 8 0 0 0-1-4l-1-1v-1a44 44 0 0 1 1-4v-5l1-3-1-2-2-6c-2-1-3 0-4 1s0 3 1 4l-1-1s0 1 0 0a20 20 0 0 1 1 4v1-1 6l-2 6 1 3 1 2v1l1 1a11 11 0 0 0 1 5c0 1 0 1 0 0v-1 3c0 1 0 1 0 0v1a28 28 0 0 1 2 6v1c0-1 0 0 0 0v5c0 2 2 3 3 3 2 0 3-1 3-3z"/><path fill="#005e5d" d="m351 218 17-1c5-1 11-2 15-7 1-1 0-3-1-3-2-1-3-1-4 1 0-1 0 0 0 0h-1a10 10 0 0 1-2 1l-2 1a67 67 0 0 1-9 2 332 332 0 0 0-5 0l-8 1a3 3 0 0 0-3 2l3 3z"/><path fill="#005e5d" d="m351 224 9 1 9-1c5-1 10-2 14-6v-4h-4l-1 1a16 16 0 0 1-2 1l-1 1h-1a53 53 0 0 1-10 2h-1a20 20 0 0 1-3 1h-4l-3-1-4 2 2 3z"/><path fill="#005e5d" d="M353 232h16c5-1 9-4 13-6 1-1 2-3 1-4 0-1-2-2-3-1l-6 3-2 1s1 0 0 0l-1 1h-3l-1 1c-1 0 1 0 0 0a41 41 0 0 1-11 0h-1v-1l-4 2 2 4z"/><path fill="#005e5d" d="M356 240c10 0 21-3 29-10v-4h-4l-2 2a25 25 0 0 1-6 3l-1 1s1 0 0 0h-1a43 43 0 0 1-15 3c-2 0-3 1-3 2 0 2 1 3 3 3z"/><path fill="#005e5d" d="M356 245a54 54 0 0 0 23-4 17 17 0 0 0 7-4v-4h-4l-1 1a18 18 0 0 1-3 2h-1a49 49 0 0 1-13 4h-8c-1 0-2 1-2 3l2 2zm63-16c4 1 8 1 12-1 2-1 5-3 4-6l-5-4a47 47 0 0 0-24-3 5 5 0 0 0-5 6c1 2 2 4 5 3h-2l15 5 3-2-2-3a45 45 0 0 1-9-3h-1c-1-1 0 0 0 0l-1-1-2-1h-1a3 3 0 0 0-1 0h1l1 1c0 1 0 0 0 0-1 1 0 0 0 0s-1 0 0 0h3a48 48 0 0 1 7 0s-1 0 0 0a49 49 0 0 1 11 3v1a37 37 0 0 1 2 0c1 1 0 0 0 0v-2 1c0-1 0-1 0 0 0 0-1 0 0 0h-1a16 16 0 0 1-3 1h-1a22 22 0 0 1-4 0h-1c-1-1-3 0-3 2-1 1 0 3 2 3z"/><path fill="#005e5d" d="M402 220v1l-1 1h1l-1 1-1 1v1a10 10 0 0 0-2 4 109 109 0 0 0-4 24v9l1 1h-1l1 1v1l1 3c1 2 5 3 7 3a117 117 0 0 0 20 4c1 0 2-1 2-3l-2-3a66 66 0 0 1-8-1 148 148 0 0 1-13-3h-1v-1l-1-1-2-4 1 2 1-19a60 60 0 0 1 2-8l1-5v-1c0 1 0 0 0 0h1c2-2 3-5 3-8 0-2-1-3-3-3-1 0-2 1-2 3z"/><path fill="#005e5d" d="m425 273 1-2 1-1s1 0 0 0h1-1l2-1 1-2 2-10 2-11v-5h1v-5l1-4-1-2v-2s0-1 0 0v-3l-2-3c-1-1-3 0-3 2a15 15 0 0 0 0 5v4s0 1 0 0v2l-1 5-1 9v3a82 82 0 0 1-4 14l2-1-3 2-3 3 1 4c2 1 3 1 4-1z"/><path fill="#005e5d" d="M401 230c9 4 20 8 31 5l2-4-4-2-4 1h-1a29 29 0 0 1-9 0l-14-5c-1-1-3 1-3 2-1 2 0 3 1 3zm-5 32a57 57 0 0 0 30 6c1 0 3-1 3-3l-3-2a55 55 0 0 1-9-1h-1a51 51 0 0 1-12-3h-2l-3-2c-1-1-3-1-4 1l1 3z"/><path fill="#005e5d" d="m420 227-1-1v-1l1-1v-1h1-3 1a27 27 0 0 1-4-1h-1 1-1l1 1v2s-1 1 0 0c-1 0-1 0 0 0h-1 1a20 20 0 0 1 4 1s1 1 0 0l1 1h3l1-1v-2l-1-1-3-2-2-1h-5c-2 1-4 3-3 5l2 2a21 21 0 0 0 6 1l3 1 3-2v-4h-4v4zm-30-24c1 0 0 0 0 0 1 0 0-1 0 0h1l1 1v1a16 16 0 0 1 2 4l4 1c1 0 2-1 2-3 0 0 0 1 0 0v-1l1-1c0-1 0 0 0 0v-1h1c0-1 0 0 0 0a7 7 0 0 1 1-1c2-1 2-4 0-5a8 8 0 0 1-1 0v-1 1a11 11 0 0 1-1-2c-1 0 0 1 0 0h-1v-1c-1 0 0 1 0 0l-1-1c1 0 0 0 0 0 0-2-1-3-2-3l-3 2v1-1a18 18 0 0 1-2 3 12 12 0 0 1 0 1h-1c-1 1 0 0 0 0h-1a3 3 0 0 0-2 3c0 2 1 3 2 3 5 0 8-5 9-9h-5c0 4 3 7 6 9v-5a11 11 0 0 0-6 9l5-1-3-5c-1-2-3-4-6-4l-2 3c0 2 1 3 2 3zm-18 68s1 1 0 0a19 19 0 0 1 3 3s1 1 0 0l2 2c0 1 2 2 3 1l2-2v-1c0-1 0 0 0 0v-1a8 8 0 0 1 0-1 9 9 0 0 1 1-1l1-1a3 3 0 0 0-1-5l-1-1c-1 0 0 0 0 0l-1-1c-1 0 0 0 0 0l-1-1v-1c-1-2-2-2-3-2l-3 2a11 11 0 0 1 0 2s-1 1 0 0l-1 1v1l-1 1s0-1 0 0h-1l-2 3c1 2 2 2 3 2 5-1 7-5 8-9h-6c1 4 4 7 8 8v-5a11 11 0 0 0-6 10l5-2a25 25 0 0 0-6-6 6 6 0 0 0-4-1l-2 3c1 2 2 2 3 2zM59 76v-1 1c-1 0 0 0 0 0h-1l-3 2h-1a26 26 0 0 1-6 2l-4 1h-2l-2 1a52 52 0 0 1-7 0h-1c-1 0 0 0 0 0h-1 1l-1-1v-1c0 1 0 0 0 0v1c0-1-1 0 0 0l2-1 1-1a52 52 0 0 1 13-4h1c1 0 0 0 0 0h1a55 55 0 0 1 9 0h1-1 1c-1 0 0 0 0 0s0-1 0 0c0 0 0-1 0 0v1c-1 1 0 3 2 3 1 1 2 0 3-2s0-5-2-7a9 9 0 0 0-5-1 59 59 0 0 0-26 5l-4 3c-2 2-2 6 1 8 2 2 5 2 8 2l11-1 10-4c3-1 6-2 7-5l-2-3c-2 0-3 1-3 2z"/><path fill="#005e5d" d="m26 82 1 5v3h1s0 1 0 0v1l-1 1a6 6 0 0 0 1 4v2a8 8 0 0 0 1 3h1v1l1 4 2 5v8a15 15 0 0 0 3 8l5 1h14a24 24 0 0 0 14-8v-3c-1-1-3-2-4 0l-2 2a21 21 0 0 1-4 2 26 26 0 0 1-5 2h-1s-1 0 0 0a41 41 0 0 1-10 0h-4 1l-1-1v-2l-1-1v-1l1-4-1-4-1-4-2-4v-3l-1-1-1-1v1-5h-1 1s0 1 0 0c0 0 0 1 0 0v-2l-1-5-1-5c-1-2-2-3-4-2a3 3 0 0 0-2 3z"/><path fill="#005e5d" d="M70 118a46 46 0 0 0-2-14h-1v-1 2-3l-1-2v-1c0 1 0 0 0 0 0-1 0 0 0 0v-2a8 8 0 0 0-1-4l-1-1v-1 1-2c0 1 0 0 0 0a44 44 0 0 1 1-3l1-5v-3l-1-3-2-5c-2-1-3 0-4 1s0 3 1 4l-1-1a20 20 0 0 1 1 4v1-1 5l-2 7 1 3 1 1v3a11 11 0 0 0 2 5c0 1 0 1 0 0v-1 4a28 28 0 0 1 2 6v1c0-1 0 0 0 0v5a3 3 0 0 0 3 3c2 0 3-1 3-3z"/><path fill="#005e5d" d="m32 95 17-1c5-1 11-2 15-7 1-1 0-3-1-4l-4 1v1a10 10 0 0 1-3 1l-2 1a67 67 0 0 1-9 2 332 332 0 0 0-5 0l-8 1c-1 0-3 1-2 2 0 2 1 3 2 3z"/><path fill="#005e5d" d="m32 101 9 1 9-1c5-1 10-3 14-6v-4h-4v1h-1a16 16 0 0 1-2 1h-1v1h-1a53 53 0 0 1-10 2h-1a20 20 0 0 1-3 1l-4-1h-3c-2 0-3 0-4 2l2 3z"/><path fill="#005e5d" d="M35 109h15c5-1 9-4 13-6 2-1 2-3 1-4 0-1-2-2-3-1l-6 3-1 1h-1v1h-5v1a41 41 0 0 1-11 0l-1-1-3 2c-1 2 0 3 2 4z"/><path fill="#005e5d" d="M37 117c10 0 22-3 29-10v-4h-3l-3 2a25 25 0 0 1-6 3l-1 1s1 0 0 0h-1a43 43 0 0 1-15 3c-2 0-3 1-3 2 0 2 1 3 3 3z"/><path fill="#005e5d" d="M37 122a54 54 0 0 0 23-4l7-4v-4h-4l-1 1a18 18 0 0 1-3 2h-1a49 49 0 0 1-13 3l-8 1a3 3 0 0 0-2 3 3 3 0 0 0 2 2zm63-16 12-1c2-1 5-3 4-6l-5-4a47 47 0 0 0-24-3 5 5 0 0 0-4 6c0 2 1 4 4 3h-2a51 51 0 0 0 15 5l3-2-2-3a45 45 0 0 1-9-3h-1c-1-1 0 0 0 0l-1-1-2-1h-1a3 3 0 0 0-1 0h1l1 1c-1 1 0 0 0 0s-1 0 0 0h4a48 48 0 0 1 6 0s-1 0 0 0a49 49 0 0 1 11 3l1 1a37 37 0 0 1 1 0c1 1 0 0 0 0v-2 1c0-1 0-1 0 0a16 16 0 0 1-4 1h-1a22 22 0 0 1-4 0h-1c-1-1-3 0-3 2-1 1 0 3 2 3z"/><path fill="#005e5d" d="M83 97v2c-1 0 0 0 0 0l-1 1-1 1a10 10 0 0 0-2 5 109 109 0 0 0-4 24v9l1 1c0 1 0 0 0 0v2l1 3c2 2 5 3 7 3a117 117 0 0 0 20 4c1 0 3-2 2-3 0-2-1-3-2-3a66 66 0 0 1-8-1 148 148 0 0 1-13-3h-1v-1l-1-1a10 10 0 0 0-2-4l1 2 1-19s1 0 0 0h1a60 60 0 0 1 1-8l1-5v-1c0 1 0 0 0 0 1 0 0 0 0 0h1c2-2 3-5 3-8 0-2-1-3-3-3-1 0-2 1-2 3z"/><path fill="#005e5d" d="m106 150 1-2h1v-1s1 0 0 0h1-1l2-1 1-2 2-10 2-11v-5l1-5 1-4-1-3v-4l-2-4-3 2a15 15 0 0 0 0 5v7l-1 5-1 9v2a82 82 0 0 1-4 15l2-1-3 2-3 3 1 4c2 1 3 0 4-1z"/><path fill="#005e5d" d="M82 107c9 4 20 8 31 4l2-3-4-2-4 1h-1a29 29 0 0 1-8 0l-15-5c-1-1-3 1-3 2-1 1 0 3 2 3zm-5 31a57 57 0 0 0 30 7c1 0 3-1 3-3 0-1-1-3-3-2a55 55 0 0 1-9-1h-1a51 51 0 0 1-12-3h-1l-1-1-3-1c-1-1-3-1-4 1l1 3z"/><path fill="#005e5d" d="M101 104v-1l-1-1v-1h1v-1h1-2a27 27 0 0 1-4-1h-1 1-1 1v3s-1 0 0 0c-1 0 0 0 0 0h-1 2-1a20 20 0 0 1 4 1s1 0 0 0h1l1 1a3 3 0 0 0 3-1l1-2-2-2-3-1-2-1h-5c-2 1-4 2-3 4l2 3a21 21 0 0 0 6 1h3l3-1v-4h-4v4zM72 80s-1 0 0 0c0 0-1-1 0 0l1 1v1l3 4 3 1a3 3 0 0 0 2-3s0 1 0 0v-1c0-1 0 0 0 0l1-1c0-1 0 0 0 0v-1h1c0-1 0 0 0 0a7 7 0 0 1 1-1c2-1 2-4 0-5a8 8 0 0 1-1 0v-1c-1 0 0 0 0 0a11 11 0 0 1-1-1c-1 0 0 1 0 0h-1v-2c-1-2-1-3-3-3l-3 2v1-1a18 18 0 0 1-1 3h-1 1a12 12 0 0 1-1 1h-1c-1 0 0 0 0 0-2 0-3 2-3 3 0 2 1 3 3 3 4 0 7-5 8-9h-5c0 4 3 7 6 9v-5a11 11 0 0 0-6 9l5-1-3-5c-1-2-3-4-5-4s-3 2-3 3c0 2 1 3 3 3zm-18 68h-1 1s0 1 0 0a19 19 0 0 1 2 2v1s1 0 0 0l2 2c0 1 2 2 3 1l2-2v-1c0-1 0 0 0 0v-1a8 8 0 0 1 0-1 9 9 0 0 1 1-1l1-1a3 3 0 0 0 0-5l-1-1h-1c-1 0 0 0 0 0l-1-1-1-1v-1c0 1 0 1 0 0v-1l-3-2-2 2a11 11 0 0 1-1 2v1l-1 1v1h-1c0 1 0 0 0 0v1h-1l-2 3c1 2 2 2 4 2 4-1 6-5 7-9h-5c0 4 4 7 7 8v-5a11 11 0 0 0-6 10l5-2a25 25 0 0 0-6-7h-4l-2 3c1 2 2 2 4 2z"/><path fill="none" stroke="#005e5d" stroke-linecap="round" stroke-linejoin="round" stroke-miterlimit="10" stroke-width="8.3" d="M516 396s47-37 37-62c-9-25-37 17-37 17s-6-38-25-30c-18 8 0 44 9 57a112 112 0 0 0 16 18z"/><path fill="none" stroke="#005e5d" stroke-linecap="round" stroke-linejoin="round" stroke-miterlimit="10" stroke-width="6.5" d="M376 370s23-7 26-20l5-25s-10-3-24 9c-7 6-10 18-9 26l2 10zm-3 0s-19-1-25-10l-10-16s7-5 20 0c7 3 12 11 14 17l1 9zM369 370s9 7 9 22c0 16 4 11 4 11l-4-33"/><g fill="none" stroke="#005e5d" stroke-linecap="round" stroke-linejoin="round" stroke-miterlimit="10" stroke-width="6.5"><path d="M61 267c-5 4-12 6-15-5-14 3-10-11-10-11-7 1-11-12-1-15 0 0-8-15 8-14 3-12 15-7 16-3 0-5 7-13 17-5 2-9 15-8 14 1 6-4 14 5 10 14 8 1 11 11 3 16 7 15-6 20-12 17 0 0-5 10-15 5"/><path d="m60 246 9 9 9-15m-32 8s12 8 14-6m15-7s5 8 15 7m-7 57c-10 2-7-33-7-33s8-21 12-23m-34 9c7 9 7 8 9 17 0 1 4 32-6 31"/></g><g fill="#005e5d" stroke-width="0"><path d="m188 136 16-22a372 372 0 0 0 22-38c1-1 0-3-1-3-1-1-3-1-4 1l-13 24a320 320 0 0 1-19 29l-1 1-1 1-3 3v4h4z"/><path d="M187 137a370 370 0 0 1 39-14l2-1a6 6 0 0 0 2-1l2-2 1-2v-2h1a98 98 0 0 1 12-21v-1c1-1 0 0 0 0l1-1 2-2 3-4c5-6 9-12 12-19 0-3-2-4-4-3a26 26 0 0 1-2 1c-1 0 0 0 0 0h-1a32 32 0 0 1-8 2h-3l-15 2-9 4-1 3c1 2 3 2 4 1a24 24 0 0 1 2-1h1a29 29 0 0 1 7-2l2-1h1l16-2c3 0 6-1 8-3l-4-3a36 36 0 0 1-1 4c0-1 0 0 0 0v1a45 45 0 0 1-5 8l-1 2h-1l-1 1-12 16a105 105 0 0 0-9 20c0 1 0 0 0 0 0-1 0 0 0 0-1 0 0 0 0 0h-2l-6 2a374 374 0 0 0-35 14c-1 0-2 2-1 3 1 2 2 2 3 1z"/><path d="m190 131-2 4a279 279 0 0 1-1 3c0 1 0 1 0 0l-1 1 1 3 3 1 24-11h1l1-1a100 100 0 0 1 8-2l9-3 3-2 2-2v-1l1-1a97 97 0 0 1 8-13l2-2 1-1c-1 0 0 0 0 0v-1l7-8 12-21c0-2-1-4-3-4l-8 1c-2 0-3 1-3 3 0 1 1 3 3 2l8-1-2-3-1 3h-1a64 64 0 0 1-3 6 97 97 0 0 1-8 13l-2 2v1l-1 1-7 8-5 9-3 5v1c0-1 0 0 0 0v-1c0 1 1 0 0 0l-1 1-8 2a108 108 0 0 0-10 4l-27 11 4 4 2-5a279 279 0 0 1 1-3v-1c1-1 1-3-1-3-1-1-3-1-3 1z"/><path d="M186 140a5 5 0 0 0 1 5l5 1c5 0 9-1 12-3l7-3a57 57 0 0 1 4-2h1v-1h2a160 160 0 0 1 10-4l13-4c2-1 3-3 1-5l1 1v-2c1-1 0 0 0 0h1v-1l1-2 7-11 15-20 7-12c1-1 0-4-2-4l-8 1-2 3 3 2h7l-2-4-15 21-15 22a29 29 0 0 0-2 4c-1 2-1 5 1 6l1-4-24 8a68 68 0 0 0-6 2l-4 3h-2v1h-1l-3 1-5 2h-2a19 19 0 0 1-2 0h1-1s0 1 0 0c0 0 0 1 0 0v1-1 1-1c1-1 0-3-1-3-2 0-3 0-4 2z"/><path d="m194 138 13-7a217 217 0 0 1 11-5h1v-1a80 80 0 0 1 10-3c2 0 3-2 2-3 0-2-2-2-3-2l-14 5a3 3 0 0 0-1 4 3 3 0 0 0 3 1l14-4c1-1 2-2 1-3 0-2-1-3-3-2l-14 4 2 5a40 40 0 0 1 13-5l-1-5c-10 2-20 8-29 13a99 99 0 0 1-8 3c-1 1-2 3-1 4s2 2 4 1z"/><path d="m230 123 4-2-3-5a288 288 0 0 1-17 8l-1 1h-1l2 5 9-5 4-2a396 396 0 0 1 3-2h1-2v-1 2l3 1 4-2 3-5c3-3 4-7 6-10l2-3a14 14 0 0 1 2-2v-3h-4a53 53 0 0 0-15 22l5 1v-1l2-3a1070 1070 0 0 1 8-13 249 249 0 0 1 11-16l8-9-5-3a81 81 0 0 1-7 12v1h-1a81 81 0 0 1-3 4l-5 6 1 4 4-1 1-2 1-1 2-2a80 80 0 0 0 12-18c1-2 0-3-1-4h-3c-10 10-18 22-25 34l-3 5-2 6c-1 1 0 3 1 3 2 0 3 0 4-2v-1l1-2a52 52 0 0 1 5-8v-1a46 46 0 0 1 8-8l-4-3c-4 4-6 9-9 14a42 42 0 0 1-2 3 22 22 0 0 1-2 2l-1 1s1-1 0 0a2 2 0 0 1 3 1l-1-1-1-2-4 1-5 2-11 6a3 3 0 0 0-2 4c1 1 2 2 4 1l20-9c1-1 2-3 1-4a3 3 0 0 0-4-1l-3 2c-1 1-2 2-1 4a3 3 0 0 0 3 1z"/><path d="m262 73-1 1a2 2 0 0 0-1 1 2 2 0 0 0 0 1 2 2 0 0 0 0 1v1l2 1a3 3 0 0 0 1 0l2-1v-1l1-1a2 2 0 0 0 0-1 2 2 0 0 0 0-1h-1l-1-1h-2z"/><path d="M262 78c1 0 3-1 3-3 0-1-1-2-3-2l-3 2a3 3 0 0 0 3 3zm-74 68a12 12 0 0 0 12 3l6-3 6-3 11-5 3-1 1-1h1a65 65 0 0 1 13-4h2a6 6 0 0 0 3-2l3-6a123 123 0 0 1 17-25l10-11 2-3 2-4-2-3-3-3h-4v4l3 2 1 1v1-2l-1 1a68 68 0 0 1-3 3l-8 9a117 117 0 0 0-19 30l-2 3c1-1 0 0 0 0 1 0 0 0 0 0h-1c1 0 0 0 0 0h-1a44 44 0 0 0-5 1 99 99 0 0 0-22 9l-12 6h-1a17 17 0 0 1-2 1h-4s-1-1 0 0l-2-1c0-1 1 0 0 0v-1h-4v4zm33-49 1-1 1-2s0 1 0 0h1v-1l2-2 2-1v-2h1l-2 1c-1-2-2-2-2-1h1v1l1 2 1 3 2 2 3-1 2-3v-2l1-1-2 1s-1-1 0 0l2 1h4c2-1 3-4 4-6l-2-3c-2 0-3 0-3 2l-1 1v1s0-1 0 0h-1c1 0 1 0 0 0 0 0 1 0 0 0 0 0 1 0 0 0h1c-1 0 0 1 0 0h-1l-1-1a3 3 0 0 0-4 0l-1 3-3 4 5 1-1-4-2-4c-1-2-3-2-5 0l-2 2-3 3a36 36 0 0 0-3 5c-1 1-1 3 1 3 1 1 2 1 3-1z"/></g><g fill="none" fill-opacity="0" stroke="#005e5d" stroke-linecap="round" stroke-linejoin="round" stroke-miterlimit="10" stroke-width="6.5"><path d="m208 339-7-11c-3-4-9-6-14-5-3 1-6 3-6 8-1 12 11 9 11 9l5 5m-3 12s1-6 8-12a43 43 0 0 1 24-10c16 0 27 5 37 19-20 11-34 25-69 3z"/><path d="M197 361s-13 12 0 16c6 2 12-11 12-11m36 0s-1 17 11 10c6-2 1-16 1-16m1-2s8 6 9 3c2-3-5-8-5-8zm-54-10 13 6 10-6 1-11m-11 17-1 10m13-15 10 6 4 10m7-22-11 11m-31-3-5 10m26 4-2-13m18-3 9 9"/></g><g fill="none" stroke="#005e5d" stroke-linecap="round" stroke-linejoin="round" stroke-miterlimit="10" stroke-width="6.5"><path d="m370 93-8-11c-2-4-8-6-13-5-3 1-6 3-6 8-1 12 11 9 11 9l4 5m-3 12s2-6 8-12a43 43 0 0 1 25-10c16 0 27 5 37 19-20 11-34 25-70 3z"/><path d="M358 115s-12 12 0 16c6 2 13-11 13-11m36 0s-1 17 11 10c6-2 0-16 0-16m2-2s8 6 9 3c2-3-5-8-5-8zm-55-10 14 6 10-6V90m-10 18-2 10m14-15 10 5 4 11m7-22-11 11m-31-3-5 9m26 5-2-13m18-3 9 9"/></g><g fill="none" stroke="#c0c5c9" stroke-linecap="round" stroke-linejoin="round" stroke-miterlimit="10" stroke-width="5.4" style="mix-blend-mode:normal"><path d="M558 81a15 15 0 0 0-8 2 13 13 0 0 0-17-7v-1a3 3 0 1 0-4 4l-3 6a25 25 0 0 0-35 20h-1a2 2 0 1 0 1 4c0 5 2 10 5 14a12 12 0 1 0 19 9 25 25 0 0 0 3 0 12 12 0 1 0 18-11 24 24 0 0 0 3-21h0l5-1a15 15 0 1 0 14-18Z"/><path d="m518 85-15 13c-9 7-7 5 4 0 12-5 33-18 33-14 1 5-41 24-42 29 0 5 11-2 21-8 9-7 38-25 30-17-7 9 0 12 7 4 7-9 16-7 10-1-7 6-18 19-8 14 8-4 10-8 10-8"/><path d="M532 102s-29 13-29 20c-1 7 32-18 30-13-3 5-38 18-36 23 1 4 21-13 17-4-5 8-23 9-11 9 13 0 20-18 28-20 9-2-2 5-7 11-7 7 0 9 5 3 0 0 10-8 6 0a37 37 0 0 1-5 8"/></g></svg>